<mxfile host="drawio.corp.amazon.com" modified="2025-07-07T15:30:48.754Z" agent="Mozilla/5.0 (Macintosh; Intel Mac OS X 10_15_7) AppleWebKit/537.36 (KHTML, like Gecko) Chrome/138.0.0.0 Safari/537.36" etag="NnWay8gzU16mIVR8G1ku" version="21.7.4" type="device">
  <diagram name="Page-1" id="VghdWP-HzqG168t5EoY1">
    <mxGraphModel dx="567" dy="312" grid="1" gridSize="10" guides="1" tooltips="1" connect="1" arrows="1" fold="1" page="1" pageScale="1" pageWidth="1100" pageHeight="850" math="0" shadow="0">
      <root>
        <mxCell id="0" />
        <mxCell id="1" parent="0" />
        <mxCell id="RAb3Ar-sFwlH_cfJhrFY-42" value="" style="shape=image;verticalLabelPosition=bottom;labelBackgroundColor=default;verticalAlign=top;aspect=fixed;imageAspect=0;image=data:image/png,iVBORw0KGgoAAAANSUhEUgAABC4AAAE9CAYAAADEVSM0AAABYGlDQ1BJQ0MgUHJvZmlsZQAAKJF1kL9LQlEUx7+W9SAdChocGh7REljIS2lospdUYCBm9GN7Xp/PQJ+X54toKmhqjaj/INobbChyyDWCoKCpsYZoKN5S9jpXK7XoXr58P3w553LuATr8Gud5L4CCaVvJ6Ul5aXlFlh4hoRs+DGJCYyUeTSTiVIJvbz/ODTzCr0fEW9LTZXb7ee6jsvt6EKiep/7Wt52ejF5i5O+kMOOWDXhCxIl1mwveIu63aCjiPcFGg48Epxt8Wq9JJVXiK+JeltMyxPfEwXRLbrRwIb/GvmYQ0/t1c2GePEAawBRiiNOVoUJBmKRgBrF/esL1HhVFcGzAwioM5GBTd5QSjjx04lmYYBhFkFhBiBQRu/69w2ZWHAcixwSbzYwZwMkOfbfazIaoru8COHvgmqX9bNbjeEvZMaXBvjLQte+6L4uANAzUbl33rey6tUOg8w6oOJ9j3GY8gr4iNwAAAFZlWElmTU0AKgAAAAgAAYdpAAQAAAABAAAAGgAAAAAAA5KGAAcAAAASAAAARKACAAQAAAABAAAELqADAAQAAAABAAABPQAAAABBU0NJSQAAAFNjcmVlbnNob3TBk34DAAAB12lUWHRYTUw6Y29tLmFkb2JlLnhtcAAAAAAAPHg6eG1wbWV0YSB4bWxuczp4PSJhZG9iZTpuczptZXRhLyIgeDp4bXB0az0iWE1QIENvcmUgNi4wLjAiPgogICA8cmRmOlJERiB4bWxuczpyZGY9Imh0dHA6Ly93d3cudzMub3JnLzE5OTkvMDIvMjItcmRmLXN5bnRheC1ucyMiPgogICAgICA8cmRmOkRlc2NyaXB0aW9uIHJkZjphYm91dD0iIgogICAgICAgICAgICB4bWxuczpleGlmPSJodHRwOi8vbnMuYWRvYmUuY29tL2V4aWYvMS4wLyI+CiAgICAgICAgIDxleGlmOlBpeGVsWURpbWVuc2lvbj4zMTc8L2V4aWY6UGl4ZWxZRGltZW5zaW9uPgogICAgICAgICA8ZXhpZjpQaXhlbFhEaW1lbnNpb24+MTA3MDwvZXhpZjpQaXhlbFhEaW1lbnNpb24+CiAgICAgICAgIDxleGlmOlVzZXJDb21tZW50PlNjcmVlbnNob3Q8L2V4aWY6VXNlckNvbW1lbnQ+CiAgICAgIDwvcmRmOkRlc2NyaXB0aW9uPgogICA8L3JkZjpSREY+CjwveDp4bXBtZXRhPgp+dqVAAABAAElEQVR4AeydB2AUxffHHyG0EHrvvffeexUQRAVEEGygiIqKWLCXn/7Fhl3BgoIKigqCFKX33nvvvffO/33nMsfmuJaQwCX5Pg23tzs7O/OZ2b2dN++9SbZr7+GrV0UkV9aM+i+FBEiABEiABEiABEiABEiABEiABEiABEKHQJgpilFdhE6hWBISIAESIAESIAESIAESIAESIAESIAESAIFwSYYP8w82KCRAAiRAAiRAAiRAAiRAAiRAAiRAAiQQMgTCBH4itLgImQZhQUiABEiABEiABEiABEiABEiABEiABK4RcLmKJKPFxTUk3CIBEiABEiABEiABEiABEiABEiABEggVAoxxESotwXKQAAmQAAmQAAmQAAmQAAmQAAmQAAlcR4AWF9ch4Q4SIAESIAESIAESIAESIAESIAESIIFQIRCGEBeMcREqzcFykAAJkAAJkAAJkAAJkAAJkAAJkAAJOAmEcVERJw5ukwAJkAAJkAAJkAAJkAAJkAAJkAAJhBKBqBgXoVQkloUESIAESIAESIAESIAESIAESIAESIAEXAQY44I9gQRIgARIgARIgARIgARIgARIgARIIGQJMMZFyDYNC0YCJEACJEACJEACJEACJEACJEACJOCKcUEOJEACJEACJEACJEACJEACJEACJEACJBCCBFwWFyFYMBaJBEiABEiABEiABEiABEiABEiABEiABGhxwT5AAiRAAiRAAiRAAiRAAiRAAiRAAiQQsgRocRGyTcOCkQAJkAAJkAAJkAAJkAAJkAAJkAAJ0OKCfYAESIAESIAESIAESIAESIAESIAESCBkCRiLi6shWzwWjARIgARIgARIgARIgARIgARIgARIICkTCE+WlGvPupMACZAACZAACZAACZAACZAACZAACYQ0Aca4COnmYeFIgARIgARIgARIgARIgARIgARIIGkTYIyLpN3+rD0JkAAJkAAJkAAJkAAJkAAJkAAJhDSBsKsa4IIxLkK6jVg4EiABEiABEiABEiABEiABEiABEkiyBMKSaZALxrlIsu3PipMACZAACZAACZAACZAACZAACZBASBPgqiIh3TwsHAmQAAmQAAmQAAmQAAmQAAmQAAkkbQJcVSRptz9rTwIkQAIkQAIkQAIkQAIkQAIkQAIhTYAxLkK6eVg4EiABEiABEiABEiABEiABEiABEkjaBMIQ4IIxLpJ2J2DtSYAESIAESIAESIAESIAESIAESCBUCYRhSRGuKhKqzcNykQAJkAAJkAAJkAAJkAAJkAAJkEDSJhCOVUWouUjancBZ+xMnTsjKlStl0+ZNcujgQbl0+bJEpImQPHnySJUqVaRAgQLu5MeOHZONGzfI5ctXpFixopIlS1b3MbuxaZPmc+igRKRNK8WKFpM0adLYQ+bzsua/ectmOXL4sGTImFFKlSzlPn706FGZPXuWlmWznDp5UlKmSiW5cuaSEiVKSOXKlSU8PNydlhskQAIkQAIkQAIkQAIkQAIkQAKJk0D41atXqbdInG0b41oNHTpUvv12sOzYuUOOHz8uZ8+elStXrqiCIIVERqaVggULyjPP9JW77rzLKA2WLFkifZ56Us6cOSNt2twunwz8JNo1Dx06JD0f6Snbtm2TiIg08uUXX0n9+vWjpYFy4r6uXeWgpq1Zs4b88vOv5viMmTPkxRdfkK1btwoUJBcvXpTkyZNrPhGSOVNmqVS5kvzw/RAtV2S0/PiFBEiABEiABEiABEiABEiABEggcREIFzW5SKbKC0rSJgBFRc+ePeTK1SuSIkUK85chQ0ZVXFyW8+fPCxQMh9Uq4plnnpYihYtI1apVJWOmjALF1/bt22Xy5Ema5ohkUqWClVWrV8maNavV4uKQ2bVg4QKpV6+edrlrUVUWL14si5csNscf69XLlW7BAnnwwQdV4bHVlCNdunSSPXt2o0Q5qFYg+/bvk7Fjx6q1x0apVKmSvRw/SYAESIAESIAESIAESIAESIAEEiEBxrhIhI0amyqFpwiXho0aypNP9pE/Rv4pGzdskn1798me3Xtl3rz50rNHTwkLC5P9+/fLd99/Zy4BC4zixUuYbSg+Vq5cFe3Sq1atktOnT5vzcGDhwoVG+eBM9M+4f8xXWFK0b3+nsfIYPuJX2bFju1FavPzyK7Ju7XpZtXK1rFm9VpUVm0z5Hn3kUcmZM6czK26TAAmQAAmQAAmQAAmQAAmQAAkkQgJqcaGritDgIhE2bcyqlDYirfw45CfJli1bNIsIxJFA3In33hsgU6dNlfXr18vUKVNM5pkyZpLKavEwfvw441qyatVKtyvIhQsXVOGwVs6dO2esIqDEWLRoobHQsCWDGwrOhSB+Ru7cuQUxNjZt2mwUHGk1LgYsLzJnvmbFkVGtQFq0aGH+bD78JAESIAESIAESIAESIAESIAESSLwE1OJCY1xQcZF4WzgGNYM7htONw3kqlAjWLQMxMCBIW7duXRN3AvEw1kQpKnAM7iFbtmwxioo7NSZG4cKFZefOnbJZA21agRIE8S8gjRs3kZQpU5o4FnBVgVy6dEnWrllrtvkPCZAACZAACZAACZAACZAACZBA0iQQpqNPHYEmzcqz1tcTgBUEgmFCyYDAmIhfsXffXmNRkTq1a0UQKBSsVKtWXbJmzWoUFBs2rHfHs4BLybbt24wionWr1lKuXDljRTFhwnh7qomLgRgZGXU1kWrVqpm0ZlvjZ0CJAWXIwz0ekk8+/UTWrltr8nZe250RN0iABEiABEiABEiABEiABEiABBItgXAuKZJo2zbGFTt16pT89tsImaKuIBt0mdOTWIJUFQhZsmSR/Pnyy/IVK67LE5YYrVq1ks8++0w2bNgoBw4ckLx588qePbuN8gNLoJYsWVLKli0nI0eOlLH/jJU+fZ4ySgxcB1K8eHET8BPbcE3p0LGjLFq8SEaNGqWxLnZI377PSM4cOaVa9WpSvXoNqVunrtSpU8cdOwPnUUiABEiABEiABEiABEiABEiABBInAca4SJztGuNaQUnRo+fD8u+//5o4E3ADyZ07j7GkWLduvcyaNeu6wJr2Ivd06mwUF3v37jHuIXApWakxLWAx0ahxYxNks1ixYpI+fXqZP3++KkRO6N8pWaeuIrgOYmjkz5/fZmeUGB9/NFDjZTTQuBtDZLWuTIKVRMaMGSMTJkww5WrXtq288867kjp1avd53CABEiABEiABEiABEiABEiABEkh8BBjjIvG1aaxq9Pnnn8mff/5plBY1a9aUJYuXyvZt282KHnt275GDBw5Jh7s7eM27Ro0axiLj8uXLMnfuHKPgwAoikCaquIAULlRIcqjVxJkzZ2TJkqWCYJ3Hjh01iodatWtLqlSpTDr7T758+eTJJ56UBQsWyry586WPrnaCGBy4xnZ1Qfn8i89VWfKpTc5PEiABEiABEiABEiABEiABEiCBREqAMS4SacPGpFpHjx417iGIb4ElRvu/2N/EpHDmkSFDBsGfL7mjfXtzaOasmSao5mJ19cioq46UL1/B7C+gS6fa5UvnzpurFhkrjZIkMjKd1Ktbz1e2Ju5FxYoV5cMPP9JAnesEy6OiHCjrxIkT5ciRwz7P5QESIAESIAESIAESIAESIAESIIGET8BYXDDORcJvyBupARQXJ9RVBAKlQJ48ea7LDkE0oWyAYBvLnDoFcS6wGsjq1atl5swZGuNij5QpU1rSpUtnkmXJnEWKFS1qXEOmT58mq1auNHmUK1dWiur+YARl63ZfNymk1hsQxOQ4dux4MKcyDQmQAAmQAAmQAAmQAAmQAAmQQAIlQIuLBNpwcVlsuGnYJUihDDh48OB12X/zzTfq4rHE7IfiwrmsKXZC+VCsWHE5f/689Huun7GIKKcBORG8ExIWFiZVdeUQxLRYtGiRTFPlBaRjx07GqsJ80X/gCnL69Gmf8TSOHj1i3E2QPiJthF8rEJsnP0mABEiABEiABEiABEiABEiABBIuAV1V5KpOoSfcCrDkN04ALhwlSpTQwJnzjKXEwE8GSqZMmcwyp/v27ZchPw6RIUN+MME1jxw5YiwuBg0eJAM/HmgUEShB5kyZzZKmazSQ5kq1psDqIKXLlJE0aVxLqCJNdV06FQoMWHjgD4E172x/Jw65BUuw3tuls4mH0bFDR0Ggz8jISHPN9brc6vvvD5CNGzea/Js2aWpWPHGfzA0SIAESIAESIAESIAESIAESIIFER0BXFUmmlaLmItG1bAwqlDx5cun9WG+1hFhoXD2wcgeWKo1MG6kuJCfMkqjt2raTzvfeK88/95xs3rJZVmtwTVhHQEEBgXKhapUqZjlVrCaSLVs2szoILCysYFlUBNiEGwmkSZMmkjlzZnvYfKZJk9ooQSZOnCDjx48z1hgRERHGAgOWGBBcq0OHDtKr12PmO/8hARIgARIgARIgARIgARIgARJIvASSP9P3udeht0iX9trMeOKtLmvmi0CuXLmkTu06RkmBpVEvXLhgFAT169eXZ/s+K336PCWlS5dWS4jsUq58ebMvR44c7uygoIASIrVaWEBB0aJFC7ntttvcriJICCUHFBeZYJ1Rtao82qtXtGVQkSZNRBqpoAE98+bNK8nDkpslVU+cOCEXL140+1q2aCnPPfe8PKaKlowZM+IUCgmQAAmQAAmQAAmQAAmQAAmQQCImkGzn3sMasuCq5M6WKRFXk1ULlgBW68CfFSgk4N5hLSfQVyD2u01nP+25OO4tDc63eSBfX4I0yMuZ3uYJCxEKCZAACZAACZAACZAACZAACZBA0iAQbgaRUYPRpFFl1tIfASgT/CkUvCkjnPn5OxfprPLBeY63baSjgsIbGe4jARIgARIgARIgARIgARIggaRFIFznxeXqtTAESav2rG0CJKAWHxd1KdbLF0SSpxRJkVrrwA6cABuSRSYBEiABEiABEiABEiABEiCBoAiEq+E+Y3MGhYqJbh0B7aMHV4lsnqifK0TOHNY+e1n1Feoykja7SLE2IiXuunXF45VJgARIgARIgARIgARIgARIgATijUCUxYUrbkG8XYUZhy6BcT110N9eJF9dkZTpQq+cpw+ILBgoslWVFlCyJYuKi3FFFReX1PLi6EaRPYuouAi9lmOJSIAESIAESIAESIAESIAESCBOCERZXFBxESc0E2ImpTuJLPlaZOPfarnQViRHJbVi0NVCNMZESMilMyLZy4nkh2Ilg7qGRK1+c+6YyIbRIlvG63IlqUKiqCwECZAACZAACZAACZAACZAACZBA3BNgjIu4Z5qwcizQUCR1ZpGFatUwrb8qCcqrkqCBSNHWLgXGra5NhoIi+IPAyuLETl0zVVfASaVKjCsXXYqLzMVcx/kvCZAACZAACZAACZAACZAACZBAoiMQxhgXia5NY1YhxInIWVGkxRcixdXiYvc8kfkfiPymcSNmvC5yeIN6aNxiixwoLHbMFBmvbi1/qFvLmhFaRy0T3Egg+eq5PvkvCZAACZAACZAACZAACZAACZBAoiPAGBeJrkljUyF1C0kZKVLvDZFc1UWWDRY5orEj1vwisn6kSDa1wijUXCR3FbV2yKLWDhnVZSMiNhcKfM7VKyIXTonAFeT0PlVYTFerin/V0mKH65qIxVGkpUuZsm+xKy5HoaaB82UKEiABEiABEiABEiABEiABEiCBBEnAxLi4eqtn1BMkukRa6CKtRLKW1PgRY0Q2jXUpDPYtEsEflBuZi4tkKqruG4X0L79IujzqUpJT3U3UfSM2cTGwOghWCTm1R+TkLpFj2/Vvi0txcmyzyx0EViE5KriCiBZqocoTdW05f1yDci4QKdBIJDJ3Im0MVosESIAESIAESIAESIAESIAESMBYXBADCbgJQPmQsYhIlcc0zoUqMTaqAmOdWl2cVeUCLCH2LXH9hYW7rB2gzEiR1hVzAkqMyFyqWMiqigwE0tRjyVO6VgKBJcXl85rHabWmOKLKioOqrNiryorduu+kyEXdj08chzLDSnpVjpTr5lJQIH+7qsgmDcqJvIvf4bq+Tc9PEiABEiABEiABEiABEiABEiCBREUg2Y49h9Tg4qrkya6z2BQS8EYAsSRW/qhuI3+pYuGEKiAuaqp4insBxURYCpcCpOx9IiXvcrmIOMsFC6HfVKlSXONdVOqhR1TZQiEBEiABEiABEiABEiABEiABEkiUBJLt3HPYKC5yZ1dTfwoJ+CNwVi0lds4Q2TXH5c5xUt07zh2NbiHh73xfx2A5EZHN5fKRuYSualJf42nUUIVF1NKnnufBcgNxL2ARAjcSCgmQAAmQAAmQAAmQAAmQAAmQQKIlQIuLRNu08VgxLEMKpQWWJj2+XZUYGovi2DZXjApYZ1w64+fiah2BpUwjNS4G3EAyFnK5pqTPq9/zqQIjuyojaEHhByAPkQAJkAAJkAAJkAAJkAAJkECSIkCLiyTV3PFQWcSugCID7iP4xNKl53VFEFhnIGbF5Quui4andiks0qplRbhaUiTTGBnJ1SUkTK0tkus23T3ioXGYJQmQAAmQAAmQAAmQAAmQAAkkfAKuVUXiK15BwufDGgQigJgUyVO5/mzaCA3OSc8jS4OfJEACJEACJEACJEACJEACJEACN0CAq4rcADyeSgIkQAIkQAIkQAIkQAIkQAIkQAIkEL8Ewq6qtQX+o5AACZAACZAACZAACZAACZAACZAACZBAqBFQO39EF2AwxFBrGJaHBEiABEiABEiABEiABEiABEiABEhAQyMCAi0u2BVIgARIgARIgARIgARIgARIgARIgARCkYAu50B7i1BsGJaJBEiABEiABEiABEiABEiABEiABEgAFhdXGeOCHYEESIAESIAESIAESIAESIAESIAESCA0CYQhvAVtLkKzcVgqEiABEiABEiABEiABEiABEiABEkjqBBjjIqn3ANafBEiABEiABEiABEiABEiABEiABEKYAGNchHDjsGgkQAIkQAIkQAIkQAIkQAIkQAIkkNQJMMZFUu8BrD8JkAAJkAAJkAAJkAAJkAAJkAAJhDABE+MCUS4oJEACJEACJEACJEACJEACJEACJEACJBBqBNTiAkUy/4Ra2VgeEiABEiABEiABEiABEiABEiABEiCBJE6AFhdJvAOw+iRAAiRAAiRAAiRAAiRAAiRAAiQQygRocRHKrcOykQAJkAAJkAAJkAAJkAAJkAAJkEASJ0CLiyTeAVh9EiABEiABEiABEiABEiABEiABEghlArS4COXWYdlIgARIgARIgARIgARIgARIgARIIIkToMVFEu8ArD4JkAAJkAAJkAAJkAAJkAAJkAAJhDKBsKtYUMT8E8rFZNlIgARIgARIgARIgARIgARIgARIgASSIoGwZMm02vijkAAJkAAJkAAJkAAJkAAJkAAJkAAJkECIEXDFuIDVBYUESIAESIAESIAESIAESIAESIAESIAEQoxAuMvagiYXIdYuLA4JkAAJkAAJkAAJkAAJkAAJkAAJkIASYIwLdgMSIAESIAESIAESIAESIAESIAESIIGQJRCOGBf0FAnZ9mHBSIAEEgiBqxrk+OzZc/o8vSoRadJIMhNAKIEUnsUkARIgARIgARIgARIggRAmEO5aVSSES8ii3VIC589fkFOnT5sypEmdWlKnSS2uiK63tFi8eCIicOnSJbniWNkoPHlyCQsLS1A1PHnqlPw5Zpx8Nuh7U+6e3btKpzvbSob06RNUPVhYEiABEiABEiABEiABEghFAlEWF4xxEYqNcyvKBEXF6nXrZdrsuTJ91lzZvXdvtGJkz5ZV7m7XRmpUqSRFChWU1KlSRTvOL0mbwIULF2TUPxNkwKdfukFUq1RR+vd9UvLlye3eZzcw4P9u6K8y7Lc/7C758O3XpF6tGkErL6D0WLh4qfR77S05c+asySdzpozy7qv9pVKFcvGuaIOlxe69++SfiZPcdfjn38lSs1oVKVc6HS0v3FS4QQIkQAIkQAIkQAIkQAKxI2BiXODFm0ICe/btl4+/GiQ9n+onv/z+53VKCxA6cPCQfPntEBn41WCzTWqJg8C2HTvlgd5PSdVGLc3frHkL5MqVKzGu3LETJ2XpilXRzlu4dJls3b4jVvlFy8jHl3PnzsmKNWvdSgskO3L0mFHAQZGSkOT4iRPyzoefutth6IiRAmXirRIoheYtWiL1W7c3Zera83HZsm37rSoOr0sCJEACJEACJEACJJBECYQbWwsaXCTR5r9W7b37DxiFxITJU6/t5FaSIADF5YmTJ3Wwf/yG6otB7q7de2T56jXX5bN81RqpUrG8pI2IuO7Yje6AkmLJspXXZbNk+Upp1qiB5MqR/bpjcbkDsSzy5MopTRrUky0//WyybtKgjhTIlyfG1han1WLkwKFD7uIp0lsqVy5fliNHjkZTCsVFgeAedOnyJbl6BRFBbnElg6hQMl1+K1lYMglPHi7h4eFBnMEkJEACJEACJEACJEACcUkg3Lwyhv57Y1zWmXl5EDirM9b/TpkmnkqL/HnzSMumjSRv7tzqEpJSjh47Llt05vy/qdM9cuDXhEwAigu0radbUEzrBOuGVWvXebXEWbZytdlfqED+mGbrNz2sQmABAKsOT1myYqWx9Mih7k3xHTMjXWSkPND1Hmnf5jYBz4wZMkgqvWdiKqfPnJH9Bw7G9LR4S39JFRdORcqNXghszl84H2/WNzdaPl/nG/WKKlkuXLlgFC6pUqaKsVLKV97cTwIkQAIkQAIkQAIkEJgAVxUJzCjRp4D7x5wFi6LVs0O726Vb5w5eZ6uf7tVDjh0/YVZOcJ6EQcnBw0dk9dr1sn7TJpMnBnBVK1aQksWKSMnixSR9ukg5d/68zJg9T5Ug23WQp2vy6ox1mVIlpEbVypIiajYT5vGz5y+QDZu3uNNUKFdG8ypvZjxhUr9m/UZZt2GTmrIvlp0601+1UgWpXb2q/lUz10HZEFh00rSZAosSXKds6ZKmPIePHpWNmjdcGArmz2eqsW7jJvOZO2dOaVi3tpzS+AuwHli5Zp3mMUPzrygNateUWnoN1AOy78ABVfrMEAw4Ufaa1Sobq4L5GnMBM/4oW4vGDc05VTTeQrJkYbJs5SpZoMfNYF5n1xvUqWWuB4sEz5ghYLVh0xZB2ZYsX2HqgvSoK8qYM3s2M4DCDPbchYuNewTKFUwdIiPTykFt+63qJoJznTJy9FhZoVYSYcnDpHiRwlKnRvWAA3Fj+aB19ibLV62WjVu2CpRhyTX4ZlzJmbNnZcXqtV6zQ7yLVdp2FbXfYJUPp4DrSnUvWbR0heEK9xZwLV+mlJQuWVxKFC2ibZxOLuvAffPWbdqOSzX9Gpk6c45UKFtG0Jbos6W0T2fLmsW4pqCPHFEFEAT9A9Ye2fUY7gv0v/nqcrFC+9Ps+QslowbtrKZxYsqURB5FVdGRXrbv3G36BjhZgUIRfR2z/NmyZNY862sfSW3ui7UbNgpcfNCPUf6SxYpK+bKlpaKWr1rlipIpYwaTTWz6RtqINOae2rp9pyxxuP6gH8J9JXu2bNqOYSbWTbnSpYJWDCVEpYVtC/sJZRnqgXagkAAJkAAJkAAJkAAJ3BwCZlURDB4pSZMAXsK379wli5etcAPAABorIvgysccgKqsOopxy4eJFQVyEDz776roZ9zk6UIMg3z6PPCzFihaWFClSyLc//eLO4s42raRsqZJmAIedx9V1YcLkaTJlxiyTBgPeOjWrmUE6ZvU//nKwYDDslHEaEBF/XTrcKd3v7SiZM2Y0A08MbP8eP9EkbVy/rlFW/DLyL3c5+zzykFxVpYYtDwKQQrHgaYGCQST+ej3YXTrfdYdE6OAOy19Omj5D1qzbYPL/+oefnEUy23+NHS/4Q3qIDSBpvug/9vgbLz5rBrsplQ1kjwZ8/FYDV9qym536z3QETtU/DIT7PPqwUbzATWPnrt0xqgOCrM5esNDEVLB520+0Jf4gjzxwn1G82GPePm0/gpWDL4G7SE1VTkEhEFdy8NDh62JqOPNerMoeWA2h/1iBIuCXkaM0KOi1/odjliu2B7z5itSuVkUma/977d0PsMst6He27z32UHe5V/vbeVWEzFbln+3rlcqXNQFGwQX1HvDJF0ZxYzOBkgfWSxAoOJqqm8l7n3xuFCA2DT6hKLAKtaYN65l7AMqTtz8Y6Exmtm3a3/76Wzq2bys9unUxyovY9I02LZoKlFfD/xx93XXGTPjPva9wgQJGMePe4WfDrB6jPBKDoF1RH7qNJIbWZB1IgARIgARIgAQSAgH12hUdDCaEorKM8UHg4sVLZtbWmXf1ypUkZwziAuAlHtYD3pQWznyhHPniuyGye89eKVakkLGwsMfXqYXGIbXWgGCGGuby6zdutoeN0iNPrlyyQwfnXwwe4h44uhM4Nn7WwKJTps8Sb4EZoQgJFFgUFiieSgtH9jJ9zlxBINOYChQWnkoLZx7TZs2RY1Ez9nDdGKb18FRaONNDsTDy739MfArnfmwHU4e9QdYB7RFIjAWDKohs/TBwHzTwfYHljpXl2kf2xaEbBKwhNm3d5u4LUAx98Nar8uwTvewljUIOriRIC7GKBE+lhfsExwb62ghVAtyIHDt+3LSh04riRvILoilM9lBeQLli6+28ZjB9Iy7byV4bMS0SkyS2+iSmtmFdSIAESIAESIAEEh8BE+Mi2JfhxFd91ujipYvq9hE9KGPOHNk0CF1yo0CAm8LMufPlos4uOgXKrhJFi6oLQVU5o1YHU2fMdlswIF05dclo3bypcaHA4A+DJQisBBYsWabuEw2Mywa+Q2CxAHePQgXyCWaIMdh0xlyorKb5sESAJYQznsGjD3ST6mpyjzrgOjY/uD5gSc3UqWO/XCssEsqrGfy+gwdl+B+j3LPh+/YfkKPHj5lymsJ7/AOXA5jqp0qZ0gxa4WpiBct0tmzSSBU3hY1FxeCoYI44vnffAePaAmuW9Zs2y9iJ12a227VqYSwHkocll/GTphgrDZwzV2f5b1OLAuTnTfzV4fjJE2pVk0O6d+4oM+fAdcdlAYB86tasblxE4CpStFBBdbMJ85a9ex+UTrBusFKqRHG1BMkrpUoUs7uM5QCUUYU1zkVczFQjkCWUIVbgslC4YAHJoG4YsJqxfQ4WN3CtiUybVlyKul32FGMF89SjPdRFpLRcuHhBdqlSbd7CJQjFaJRn1pIGJzzQpZM0qlfHlB2KNbhnpNQ29idwqdq4+ZrrR7OG9aXDHbcbyyK4KyH/ffsPapnTmf1QANo+jHzh/gEXKusqkiplCnXLSGYsSGDBlC9PHkEMj8uqPFy4ZKk4rSE2bdlmzvXlmuOvb2CZ2pLadrDcQD+0CimU6faWzVyuImFh6iaT2VhBYX8gQSDOxCSJrT6JqW1YFxIgARIgARIggcRHgKuKJL42jVGNMAMNxYNT0qRObQYjGGZAIfDTiN+jDVxsWpjJI6YD4jwsXrbc7jZKi1f6PW0Gkci/WOFC8sKb77jzWKpxEBrWraWxAkpHG2DCV79G1UrGBBsDdytQgpTQAdyZc2dl6cprS212urOdDqxuN64HuA7+7KAPbhNHtew5U2Wz2bg/77+3kxnIIv6ACaB4NZlMmzXbfRwbb77YT5qrcgUDxhMnT5mVFazZPMz8L1/2bvIOpcVzTz4mOTT2BJQ9WHHCqbh4WM3372jd0ihhMLDetHWriZuAa2J2HMEQz2uQS8RfsINFDFChXLDuDuk0fgJiN2AWH1YByKdIoYLIIpoEqgMUlhgUox2gZBn04zD3+RjUIl5IMEEtwR2xQpzuRhhwp1OXkCKFCphyo5wQxPeAUsTGX3BfMBYb+1WhhIG+FcSbyJI5k6lLGY1TYRUXS9V95cDBpkZxAYVbSh38WwFjLKcaGRmhfbGAlFaFS3N13YDyzPYld1q9T1KmSGkUMoj7AcVYIEH7p0hxbRUKBMKF5MqZw9wf1TRuihVYqUyZOTvadZs3biidVHlgA33C+uW2Zk2k7W0t7GnuT8SR2awKP6tswbXQNt4UF4H6Bvp9K70OrK+glLIuW2jX+zrdbcruvnCQGzFdPQT3z/Ydu9QFaq+6ZJ2VzNq2eXLlUHbZ40TxFWSxfSaLaX18ZsQDJEACJEACJEACJEACAQnQ4iIgosSeAEv8RQ+WeCUGM6MYSGGA6Jytx8x31ixZDDgMfPPnyytlSpRwW0rAsuLEiVNmQItgm+P+m2LSwkcfM9RwO1i73hUzAgcwW45ZZVgk7Nq916TFP5ht//HX380g5qoO0OA2YOX8hYvGVQSDc6dg8A+lCYIiYlAJgUuJ3bZpMdiz+xCEME2amAfiQ+7OQavN237iGlidwFMw4AQjK1AKwPQ/rVoMQBDXwel6cO7ceV1W8npFSlzUwZbB3ycCZCKOgxVYVBRUawv0q5zZs2vskhJGwYLjsFLYs2+fsTiwfO15MflEfIH1jvgPOBeDagQ3Rb1La39DLAgIFEewPiig/RAD8nx5chtLC6sY+ujLQYK/e+9ub6yEihYuaPJAn4PSzCqeRmi8B/w1qlfbuMAgEKZnMFVzQcc/GTToJqxAbB42dgjK2qXjnUY5BAuRYAXMEAQWipVD2g9wz8BtyQYSPXXqtDurq1evuOJPeN4EmuJm9Q13YWK4gdgxU6bPln8nz4x2Zn5dYrb7vXdJVrX0iAtBP5o+a77M0L+HuneSfHlzu+/7uMifeZAACZAACZAACZAACcQNATMV6Bq+xU2GzCVhEcDg0g6IbclhJo6BEToHVgXp1qmDsR7AYPrfKdNsMvMJxQUUDU7BQMw5YMfgLpO6SFjBQBfKgvRqHl+5QnTFBdxDTp064x7oIW5BpXJlzQAR5+BcKzYYof3u/ISyAYPUhCiXNO4IZpitwMLDWnvYfc7PcJ3RvxElgDOv2GwfMAEyrwXlhBJr9LiJGuxynglaiZVfrMDyAt/h2mKDkNpjMfk8qQN0p7IE5yJIKhQ6V65cVouU9dGyw+owsA7CAB/uK7e3bG6UEM5ECNiKv573dxVYnOTOlVNaNW/q7os2LRQi+GvVrLE82LWzUYjYY56fGfR6CL6J1Uucrk/ou6/8b4BZwQSuKrB6CVawgs1/U2d4DdAZbB6hnA5WIhs2qSXSjLlquZRVGjeobawsTp0+I8ePn5Tk4cnVCmOPum6pRZW6tWXKlEF27txjLJTy5c0lUBbhmXTg4GHznIHbkF0F6KRaT6G/4hoI3ps2bYTmeUKwf+26TdpfL0iBAnlvqG+GMluWjQRIgARIgARIgAQSKgEzsvOYlE6odWG5Y0EghZrN51azdadghh8znnjZL6Hm5/iDgmKNWkGs27DRPXtuz/G02MAsJtJbwSAB+6wgPWIn4LO0DiIx+4yBHCw3li5fZeI82LQwpS+kM9aw3HBZKPiPKWDPy4RBSUTELR3Q27LE9BN1TaEuCcEIFDsYHCfTc26FmACZGsPBWhTYMvyhQUN9CYJGwqXGc2UaX+k996NvIbCoM74F0mDZW1+yRAPDIjZJushIM2B9VFdKgdXNtxpjxLqx2HMHDRlm+uY9unIMYovAemTIL79Fc+FAWlgKwTqpT6+H7anXfaLPVtd4Jx++/ZrGYBntjk1iE8Kt46MvvpGX+z1lYonY/b4+obj7fdQY+XzwD76SJPj9UB6sW79Jrqg71m3NG0mFctGXW8WzZNGSFTJ2/GTpptYXadOmkYWLl5tlcR/qdo8uH3tKfv19lPaRg4ZFusi0cm/HdmZ72Ii/5PRpl1KwYvnSxm1owSKXm9u4f6dK5YplVWGVg4qLBN+LWAESIAESIAESIIHERoAxLhJbi8awPlAeYGDmDGaImXLEIUBsBQy8/AkGzIi5gKCTsAyA7FcFBGY8I9K4lv9EjAjEwbCCGVEcwwA9pwaHrKzXgeIC4oyzgO9wE8HMKCwK4K4RqYMQKxhUdr6rveZ1vRsHrC1g5XFaZ2kTmiDgY0ZlZKVC2TLyeI8HjLuM3Wc/wR9pw6LcXuz+m/WJ2X9YM8REFqkSAUEwEY8iNoLYB2tVgeZ0TwqUDywx1mugWSjB4GoBBQYsJurqErsI3jl63AS3awnygksLgqjC6gLKM7g/bdC4KxOnTI9mqYHlX3fv2SfZPJYHdpYH/RzuJ8/36S2d1R0FgVCx8o29X9D3EQS3UP58ztOu24bCBpYGE3WZYCu1a1STrroca1aN17Jtx075+rsfY8TF5hNKn1BMwOoLSrn06SMN3+9+HCFYaQeWXN273O2zuBcvXjTWNrDGuPuOVkap8fc/k9Q6Z6155lxQF7JOd7WRPLlzGmUqArzC/Wz//kPSomkDKVwov0CZSyEBEiABEiABEiABEggtAhrjQv+7NjkeWqVjaeKdABQCBfLlkwa1a8nvo8eY68Gk/dlX35SnevWQmlWrmECKqdTdw5tgwJxN41lgdQM7EIPJPuJI1NFBFQJNzlu02B0wEHkUyp/fmOxjO60OTiprUMJfdCDnKVj+tGypku5gijDzL6iDOwwqIVihAvEgChfMHy2IJKwAECvDaeXhmXcof0+dKqWJw2DLCAsFxLUoo7EinO4VcOc5ceKkrpRxUZL7aB+bh79P9AEMrp2CtkSg0JS6HzyhIPFUjmAgDSsGp+UDFFgIbul0P0I7YCUYGzQSljWr160XBNOMjaDOYOIUu9KF3WdjnsxQJYEVBAatoe4icI2D4gIuTOhTUNKVL1PKrJSBGBaQ4ydPyv5Dh1RRFqlp05q0WHkE1kFFVPnxzkefmnSoyxlV3lz1obiA0g7LZmZU9yko01zxP/IZF5GX3vo/9z1j3LPUMim5Rzsc09VrcA8hOCdWDjmiK5Hs1hghVlD2inr/oF9AIWNcstRiKq5Eu0a0MsFF57jyR99Df0DbxpdL1hXE6FCLFjx7YB2xQpUP4OlPEDQX9z6sNkaOGudOijgw+fLkMqvKjPhjrMmvQd2aZhUjLP185sw5KVmyqMbdYYwLNzRukAAJkAAJkAAJkEAIEVBXESz8R81FCLXJTS8KYk00a1Rf5ixY5PbDR+DCdz50Dc4CFQgv/jD9t4NJnPvMS69LrWpVjNuHpxtB3VrVzWAQ+cKio6iuOoLVLTxXcahepaLkzZ3L7e4Rqf7olcqXc5vbY6b6gd5PmRUWsumMMwSKjFm6fCuCcD6nM9zW6sMcTCD/pNBBKNwYoLixcRH6v/Wu1K9d07gTQIkAZQJWHsFSmm+91E+Xpi0S69qhDdAHnPLmgI8Ef5Bu99xtYjlgOVGnQLEBKwZrLYNjiA3RteNd0bijrNPnlJDnXn3LfTqUCE0b1DOz6u6dQWxAWQJrDVhtWGnasJ70euh+wSoxVpAOVgxwKbGBTKHw2qGrVCxcsky+G/arsaiAMggrnMCawiotkAfitEAx1uPJZ43FBVa7yZ4tmxw+ckSGjhhpL2PaCHESoAzxFJRhx65d8uo77xvXk0b165r+DB6w8LCKPpyH5VCTq+IBjGFpYAOH/jR8pOAPgvupdfOmZtv+M3n6TOPShYH5yNFjo7WFTXMjn1htBnFurKA/9ujzrP0qrz3f1yzHG5fKC/R/WGXBpQMKu0IF80nr25qYeBQTJ013XxsbYOwpUKjAMqNZo3qSXWNkQPkCqzCsSJJTVyRZtHiFLiO8xKyW0uHONp6n8zsJkAAJkAAJkAAJkEAIEmCMixBslJtdJLzoY6D8QJdOsQr4h5nrBnVq6mBgkXvlENRh7sLF11UFS5giEKHTBQUuA3BL8VRcQEmB2W4rGBwhXgBcRBD80crf469t23126VD7PSF9wgICrgUd7mgjA78a7C46rAecFgQ4AOXGjYq1BHC6+wSTJ6wEoIBwCpYJ9VxpA21dQBVJpXWJUmt1gcCa23fukhIxtLqAqf8atdaApYOVEkWLmsG7/Y5PMMyWLYuULF7UrbhALAssswvLBciEyVPNn/ni8Q+shayiBtYi+PMmtapXUSVZ3mjBVL2lg1vLlqG/eDukyriy5v6D1QSUgM4VeDxPQFwQ53EsQetchtYz/Y1+T61LIxcrWuhGs4nR+ViutliRgjJ33mIZPfZfVX6eMcqlrdt3mnzQtlBuQBYsWmYC9u7eu998h8IihwbsvLh0pXFZw+ojiLFz5Mhx/TtmnjsVK5QxSiMojhBHA/0TwTlXr9mgS+OeVysMDc6pChsKCZAACZAACZAACZBA6BAw9uE6IUVJ4gRgit6qeRP5/P13zBKQ/nBYawaslmBdF/LpwBSuJTBd9yX3qNKiW6e7zWy2M40xBdc4DoizYQXLUJbUoKCeM7kYuD1y/31qBdDBJvX6CQsMlE3HOIElqESBs4nLFLAUuaN1S+n/zJN+rRLAA4PL4CrqvYRGcaWWB489dL/3BF72YqZ7z959brcdJIFiAn3D0+0Ex1DO0iWKY9MIBo2wxLlw4bzdFdTnsePHZfHyayuY4KRiRQq5+6Ezk0gNzlrKcU0cQzwLWO74k3s1ZkSTBnVNmf0pwBBfomP7ttHikXjmG6FlyKvLr/oS5N+jWxfDDWnyaEwNKBDhUuJNYFVyz13tot0r3tJF23cD/Rv3UEO1poLVzc0S9J/SpYpLp7tvNy4pCMI59Nc/jWIByiTEuimocXmyZM6oVjFb5I9R42V31DLJUEJUqVROKqlyYrEqL3765Q8ZNvwvQcDh7Wpt8+PPI+WrwUPNeVUqlVeOWaR4lGIG1hyz5izQPnnxZlWV1yEBEiABEiABEiABEgiSQLLtuw8aa9u8OTIHeQqTJXYCMFPftHWrrF2/0fiLYxYzZ/bsZjYYA9AcajIPRYc3OX7ihM7Cr5Yt23aob/5544iEgJqIZ4CBredsvM3j1OnTxrT/nLp6QNJp7AHM3vu6DmZR96gbAMz/MYBGrJZUKVPpADC3iYORTweLmDU1KxRs3OgO0mmsCzRGAephBab7mBE/aGfxdaCHASSUMRjUX7h4UTbpyhkYNEPCdHCEAWcunR0/cfKkcZe4pGkgqXVQBbcNrGiCOAA71KoA5TSBZDSv7FmzumNyYIUIuDMgRgIEZSuqg3AEI7WCm/PosWNmwA2XB5QVgzOsBFMgX15TVwzmbqQOmMGGoLxwhcCyt+d0VRm4pKAs+fPlkTRQjjgEaXeqBcNuZW+D5GCQjhVoPNPitOvKp/vSqHKmcKECyv2wnD5z2uSOsqB/QYlly2UORP1z6PAR2bx1m8kPu8J1YA3rFCczmx7s4CqyQ+tzRbmZ9Mq4iF4zefJwk8/+Awfl0JGjxmICXKEwq1CujLufoo226Uw/3FMOa3wJzMwj30KqWID7CFxKILA+2ah9xPZf9L3i2g+wMg+CiYIpBs6HlC/6EXhkyZxZ6lSvqkt95riurojlADcTE9NBr4d7CPFdEJsDAheK1boiCVw3YCWAYyg7gqXu0zqhTeDigf6EuBmx7d+2DRDLYq/GM8Ef+jpYwToE94mnctEU0Ms/Z866+rmXQ153gTPiVRxG+2gMinQaqDOXWlNA0Ylj2H/s2AnJkiWTcQ0BB9wLqVOnMve9K/7IWeMmAtcTPDOg4ICLExSb2dQaA0oS7DexSHQZ4ghdoQT919bba8EcOyPS+FeCOZJykwRIgARIgARIgARI4AYIqOLikL4DXhUqLm6AIk8lARIgARLwS+CsKoGgYEwsguhQUL5RSIAESIAESIAESIAE4p+AuooknhfJ+MfFK5AACZAACcSGQLKwYPy2YpPzrTknsdXn1lDkVUmABEiABEiABEggOAKquMC8EYUESIAESIAE4o9AuLrnJCZJbPVJTG3DupAACZAACZAACSQ+AsbigjYXia9hWSMSIAESCCUCiIXhLXBrKJUx2LKgHsHG9gg2T6YjARIgARIgARIgARLwTcBYXPg+zCMkQAIkQAIkEDcEEEA3oSsvUH7Ug0ICJEACJEACJEACJHDzCKjtLu0tbh5uXokESIAEki4BrNaROlVqwSolly5fkqtXEK4z9H+D4FCJmBZwD6GlRdLtv6w5CZAACZAACZDArSOgigtEuAj9F8dbh4hXJgESIAESiEsCGPxTARCXRJkXCZAACZAACZAACSRuAmGiS6FSSIAESIAESIAESIAESIAESIAESIAESCAUCYSJmu5SSIAESIAESIAESIAESIAESIAESIAESCAUCdDiIhRbhWUiARIgARIgARIgARIgARIgARIgARIwBGhxwY5AAiRAAiRAAiRAAiRAAiRAAiRAAiQQsgTCrpoYF4xzEbItxIKRAAmQAAmQAAmQAAmQAAmQAAmQQBImEIbl6VwriyRhCqw6CZAACZAACZAACZAACZAACZAACZBASBJgjIuQbBYWigRIgARIgARIgARIgARIgARIgARIAAQY44L9gARIgARIgARIgARIgARIgARIgARIIGQJuGJcmDgXIVtGFowESIAESIAESIAESIAESIAESIAESCCJEghHjAuG5kyirR9i1V65ep1MmzlXypcpKQ3q1fJZujHj/pPde/ZJ3jy5pM1tTeXixUsy4o+/5czZs3L3Ha0lc6aMPs/lAe8EgmXv7ewrV67I0uWrZPGylbJt+y7JljWzPNajm6RKlcpb8pDex750Y81z+swZWbR4uSxaulKOHT8upUsWl84d2t1YpvF89riJU2THzt2SLVsWuatdK59X85buRu4bnxfigZtCgG13UzDzIiRAAiRAAiQQZwTCuapInLFMsBm9+Nq7cvDQkWjlj0ybVqpUKid3t28taVKnjnYsvr789ucY2bvvgCxfuUbq1akhYWFhXi+FAfKu3XtNWigu1m3YZBQeSJw9W1a5o00Lr+dxp28CwbL3lsPESdPlj9Hj3IcOHDwkFy5cDGnFBZQtK1atNWUup4qy5MmTm232JXczxmrjq8FDzf1oTz579lzIKy6gdNu6fadRuPlTXHhLdyP3jWUU35/rN24WtEOhAvkkQ4b08X25BJN/Qmi7BAOTBSUBEiABEiCBm0DAZXFBk4ubgDp0L3HlyvUd4NTp0zJ91jzZf+CQPNvnkZtS+NtbNZM/Ro2TWtUr+1RaeCtIyeJFBX+Y7a1ZrbK3JNwXgEBs2SNbDOggKVKkkDdf7msUXWnTRph9ofrPwUOH5fNvhpjiDRzwhkRGlZd96cZaDIofSJHCBdTqprsk96F8vLGrhM7ZN3Lf3KxafPbVD3Lu/Hl55MGuUq1KhZt12ZC/TkJou5CHyAKSAAmQAAmQwE0kYCwuXFYXN/GqvFRIEiiYP6/06f2wccP4YegIOXzkqJk93X/goOTIni3oMqM/uZbZDfoUk7B6lYqCP1/iK98UKcKDUq74Ot9eL9Bxm875GeicQMedecXXdjBlCMTels1bXsdPnDSH8+fLrbPWWWzSaJ/ezouWIMgv3vLxts9mh2MQz/4IhZw3CdSXfOXnLS/s81c2b+fAEsSXpZG39DHd5688/o7hOoGOnzlz1l2ccqVLSob06dzfnRuB8nGmDXY7rvMMNr9g75tg6hHomoGOe7sGLJ+gtAgkscnbX56B+nGw1ws2HcoSk7RIH6jtAuUX6DiuQSEBEiABEiABEog7AsbiIu6yY04JmUDy8OSSLjKtWi8UkdYtm8hPv4w01dmzd79RXLz93idyWQdWD3W7R33YV8iiJculWaN6Jh7FsWPHZcjPv8v6jVs05sRFyZI5k7Rq3sgcw+z2l4N/Mnk1blBH6tWubrbhEjJq7ESz/UDXjrJQ81u1Zr1kyphBnuz1oNmPl8PhI/+W2XMXmhfw/PnyyCEPtxYoWOzs+Z1tbxOY/iP9pGmzpGjhglK8aGEZ/c9E2bf/oClXuzbNpXaNqiZ//DP+36n6N0VjZJwTKG/KlCohK1avlQL58sr9XTu40zk3lq1YbSxS1qzbIKlSppRieg1cO0/unCbZlGmzZcKkqXLk6HFjiVCzWiU1mb9DUqZMYY6jXvCZn7dwiRw6fFTy5MohNdXSpKnyHDLsd9m+c5cULphf7ut8l0k//PfRsn7TFsmhrjCPPnyf2eevPY4cPSY/DP1NNm3ZZtoDLjTdu9wtJYoVMed6/gNXD0/2Nv+O7dvIrHkLZaW6Vpy/cEEqVygn92jcAtRlxMgxJpYB8tum5vZvvPuxURK8+sJT5hKw2kE90UawyChetJCgrTNqG0NsOxUrUlDq1qpuXE7gavLuGy+Kvf7t6g40e94iWbNuo6lLhXKlpf3tLeXPv8fL2vWb5MqVy6Y9USa0BeKf4NjmLdsFlkOQopo/3ACKFSkkc+YvMmUyB/Sf9z76QsLDw+W+e+5SU/p01/UlpAPHYcP/VPek/ea0XDlzSNd77jT9CztwzW9//FXC1eWki+4fPnK0bN22Q1KEp5D6dWtIxztvN+d5/oO4LL//OVZWr10vUABdvnzF9FHMBtetVc2dHEoBmLajv505c85YNDRrXF/Kli5h0qA//jNhsnGfSq8Kg7Kli5trol6B+oK/vgyXrH+nzJAlGrPi4qWLUkj7JO75KpXKu8uGjZ2798josf+6902aOsvEPLF9+NKlS6b8CxYtN20CV7TqVSu4y4gTfx7xl+HcrHE95Rgu/06eLjlzZJeH7+/sztdu2L7RRJ8nU2bMMTEqUmtMlcYN65i+AUXVth275Ed9JkEe7NZJ8uXJrc+AA/LN9z+bfZ3uamuedeaL/nP27Hn5+tuhsnSFy4KorCpfetx/r6RO7TtWi7f7Bvn5aw97PXziOfDf1JmyYOFSU97MmTJICbUe69qpvdvVKtCzxFffSJMmtbaJ6/mKayEO0Dh9zuH5i+dwXLfJ2AmTZL7WA88z/AagPRrWryV36L2K+wKC58BX+luAtsFxtPWa9RuNa1n3Lh3M8xfp4N7yy4hRsnvvPnXjCjP32UPdO7vjF9n29/Vsskozf89ZX23nj/epU6dl/H9T9bdvhalLnlw5pWqV8nL7bc1QbAoJkAAJkAAJkEA8EnDFuIialYzH6zDrBEbg8uXL7hLj5Q+Cl03I/97/zLyYYvvo8RMmKOaLr7/n3of9eEEdqgO9YzoYa6uDsIMHDxvFwwwdyFrFxWwdDO/ctccMaDHg/2vMBPP9qA72rfz6+yiZMn2O/WoGKO4vURsYTCMfiJ39P3T4iNmH/VN1YGMF5cJgpnrVSuZlesbsedHiM6COtp623vZc+4lBqlWUYB8UHlDCICaIqcffE+SfiZNtcsNl5pwFZibdKiI+/ep7QXA4K7jmiZMnjeJigyooMHh3mtnv2LXb1Od01EAc59lyerYHXGZeemNAtPZAfu8P/Fo++N/LbqWBvTY+MUAFKyd7m/+Hnw1yJjUKptyqaKlds6rMmrvAfQyDbtsO2IkgqqP/uTaYxWBm9doNgr7y4TuvSEREGh3kXGsnKDmQhxV7fav0svvBGn9OAV8oZaD8gRLA8/imzdvko88Gy6fvvylz5y8xSix7PuKqQKDkSJ0mlbsOti+hPQZ8/JVNbj7B6/8+/EKee6qXFC9W2NwDtu4YVFm5fPm8DsBnSJWK5VTZUNDudn8eOXJMUHanoI8OGfab6UuIS4D+3V+ZWSUM0oJjpowZjeICSgIoSqycO3he75lD0k5jveBcf33htCpEfPVlKLs++OSbaNcFRyglPRUXCMqKwboVlBV/tg+D3xZV5FjBMdzXOK9/vyfMbii+wHDor3+6+66npYw93/YNKEutwLIASrKUqiBD7Jvj+myybXJWlT2Qc+evPStOnjxlTzWfKBMUslbQhz7+YrC82Pdxu+u6T2/3jb/2gCLJKQhG/NsfY9y7oOicO3+xUbIhuO1fAZ4l/vpGzhzZjLLPZn5MeeDPWhvFdZvgfnfev2iPCf9NM65jUITDCuOt//vE3Z9wfMz4SbZ4cvr0GbMNdyP0OyvIEwrx9wd+Ww92EAAAQABJREFUJe+8/oJRjNr29/VsguIP4u85663tAvH+Qe9L57MFipWT009RcWEbi58kQAIkQAIkEI8EuKpIPMJNaFmfUCUDAhbuU9eQsfoSagWzrE7BABSDGgxe8TdWXz6xD9Kofm0pVaKomZ0+oQODcTqAb9qortTR2ePJagGBIHhYuQEm+StXrzfnwO/aBkc0O6L+OaUvslZpgZnIB7p2kkuqUPnux+Hul19nel/bTRvWNb7dGFDAqgMvwhv1RbhUyWIyaoxrRhKzf717djcz7998P8y84PvKD1YSVga8/ZKE6ezuTh3IQmkBpYFVWjTUlVGwyglmIvECj0E+FBcb9NpWaQGOt6llStYsmeXkqegDKXuNQJ++2gMWDv2ffVwi1YoGA1+km79ombRo2iBQltGOY6CKgKeZdLWWDz752hxDgNSWzRrJU+paNEh5QXmDgdI9d7tWkMAsMOoNSZ8u0lgnYECC9kQ5MGDpdFd0KwRYJxQtnEdnuKMHg8WsZvu2LY3iBwMRCFYu6aCWIBEREdHKBMUF+ivKUSB/HtNPp6niCtfDdTHj3kEDzk7U2XzMDkPg+4/ZaVjbnPDSBj8P/8ukw8xvpzvbmu0Rf/5t+hGsBN7QuB5OKVWimGGMa8FaCLJE44B4U1zAwgnWI7Akypc3t+xV6yY7GFu/YbMJqDhuwhR3fy+tfRaz5ZCINGnk3Lnz8vtfroEv+nDLZg2NIgXWRbA+wawy6u2rL2CwbsWzL2/ees1i5dGH7pOSel/v0YEa8vIUWDmBI+4dCGLNoC3Q96BksUoLxL5o07Kp6RuwiMF+WPpYyxGci/Jm1CCS4JE/bx7s8ilIg1VLjh07YSzEMBj+R5UXGCjHVMAPlhmIz+KyrjlgrHYwwMUKRsFIoPbwzMMqrdDH+z3dSzCjj+uBWzDPEn99I3v2rMZaYUSUYgT3Pfom7p34aJO2rZobyzzcd5cuXVZLpi9Nv12n/RjtsUCfPba/QenZqnljo6Sxz0vLBvcUBPdEH7W826WK4o8/H2wCSO/as9dYzti0vp5NUFzE9DkbiDcsrKzSAr9zeCbB+s8qOG2Z+EkCJEACJEACJBA/BBjjIn64JshcsbKIHRjaCjTRQT9cN5yCATle4qxgUA7BwK6LmjhDMJP+m5rAQ0mwc9deqa+rhEBxAcEANmPG9GaAgu845k3sbCmONVWzeCgaIDjXvgCbHQH+wQsmZi8vqMIEigsIBjhQoEC5AqlYvsy1/HXQhJlJXwLzdyuYrcagHgM3zA7jJd1KliyZdMC60gwgsQ8sMLCBub+V+9U8GjP2NyK+2iNL5ozGhB95ow1hdYG/mArqVqtGFXMaBopol/PKD8onDDhhSg/FBRQUdgAKU2/UF9KiaUOprBYH+Js5Z6Fpdxz3lA/ffcVtHu88VkzdS9A+EAyaMbDFoAb5QeB2gP4AthC4g+APbhiwaEA6O7OLfbDMyK2uHlbQr2xwTk/FBWaJMasKKV60iHFFwPaylavNbDaOIY1TGjeobThAyWAVF+d1pt+bYJUHDOpgtg9lQ25VfkWoEgU8UVYILEiswIXKOWsPaxDLGfcqLA0gcI+CYKYa4qsv2PZCGs++jIG8FQzk29/eQq1sqpl2t/vtJxQN9v7EPig0bd5w27GC5wZcNtAfX3/nI7MbfcGmxQ4MrOEqFIwUKVTAXVfcV7PURQz946i6rsVU0qVL6+5TGPgOinIpwex+sIoLWEb5aw/PMuFZskOXYkU/GvbrH6b9qlZ2ueFs0uemFV/PEn99A+cW1fvASsH8+dyc4XplJa7aBP0YVmqIiYT7FO5ZsMKBQgACpbUVuG3BnaOMujQ5FRe4l6wFlFGwRD0r8dsCrrDcQ/+x4uvZhOMxfc7id8qKN964h1Em/E7CUi9VqpTSvEl98yyy5/GTBEiABEiABEgg/giEJ5NkGrku/i7AnBMOAbwcZtZZ9WTJwnSmOotZ3aOGzpwGEgwOIXlyX5uVLKCz11YQ4wJxMzA7BjP4lRo/An74EAw6EYfCmyCtlUAzrzadv89wjeHhFLhmWIG1QLAC33cMtDBTjEEHlD2YrX/i0Qd0Bu6wOxuskOIpKIM11cYxvNzHtdj2wED4+59GRMs+hYeperSDQXyxvuqBkmKAYcXZF3LlzG6Y2TLaNDH9NM+tqJPCwqI/wDAD+tGng9wKh5jm7UzvVGAVLHCtTxdUFw7E3IA40zjPDSbIJlyyvvtpuJmNdp7r3EbMAAj6mFNpgX0HHJzLlCqOXdHEcvbVF/z1ZShVEA8GsSugGILr119qofRErwcECoNgxdkXYFkAgWLDivO43RebT9czYqE59UZnwZ2D42PHg1eCBGoPz3rBCgLWV3jWmbhB6qrSoG5N6dzxjqCeJf76hue1nN+dzOOqTRAbwloiOa9lt+G6Y8XGoLDf7afzXlqscVXw5xRv1j72uOezKabP2WCe3fd2bG/iNUE5BoX9fxr/BbFx6kbFbbJl4ScJkAAJkAAJkEDcEwi/KvofY1zEPdkEmCMGY/78uX1VKTIywgxs7CAJ6ZwBNDETD8ELOWZfl69ca4KAYl/d2tcCEOK7U5yWHrAUgPIjLsX58oyZ0mAFlgZwkVii7hKYyYcFAmZlEaOjUoWy7mzatW5u3CvsDrxYY+AJM3ArsEyBu0hcCmJHYKCJ2cHWapbvFKe1iHN/XG9bxRTyRR11gUxzCdtHUMb4km++G2qUFhjkNNLggLCsccY5icl1ncu6Ovu0cxtpnEq2mOQ/cdJ0t9ICwTjhjgP3Kjtrj7xse0L54CnWUgT7MWvvab1jz/XVF/z15fs1iCqCDlYoW9r0cyx7i34FvgPeftmzKD6/O/sCBqZQjjoVC87jPjMJ4oDTmiibul7B9S224uqzrrNjcn8Gag/P8mAVnv+9/rxMUWu0cROnGr6I9VJCn3Xpop6bOMfXs8S2r7e+4Xkt53cn87hoEzz/ftF4RBAE4IX1zSy1rnLeF7DKsQK+cI/zFOf9hiC8zucp0hYudM3azfNcz+8xfc4GwxsWHv/35osmlsq0mXPMfYo4Kyir83zPsvA7CZAACZAACZDAjRNQ93ydu9Q/CgnEloBdSQODmo2bt5oI8fOi4gcgTzu7Wkf9miF4mbXB1Xy5iSBdvrzXLDgQyBMmx3AHOKtm9HEhUCIgdgYEvsuYMYQVhXMA5O06COqHwTBcEF578WmBSwAEJu+wKLCCmBW11M8fA1L8lS7lSmd5IB0GK9YlwH5aC4LdGu8AptNnz53T+BfXYhHY/H192vyxmgTijdjr19CApN4GC77yuZH9tgzIA7EkEEQQK3Ogj0Dy5nHNvJsvcfwPYjNAaqt7C1bzgDm3pzhjqiAWhS9BnAi4bkCwgglcEPBnrS1wDGliK8gTAmskKAoQyNYzP9un4N4EVwj0CSibcS/YY8hjxuz5ZkUHbKPPII1tB199wV9fRv645+CWg/gvHe9sg6zNSjnWLcfsCPCPfT4gGVaRQbmcQV1vpC/AagpWKxh8L40KDgqFFQatzt81rNIDOXDgkPn09g9cAXAPYglRlNOKtb7AqksQrD7iS9kfqD1snvYTfQkxcpo3aSAf/d+rxsUCxxDfxJmXr2eJTeOtbyAfpxXCnqgVcbA/rttkXVQ/Rt5PqDsTFF7oN05xxnjByklwq1u42OW6Z9Oh71sXJfxOIOCxfX5VVqUw4roEK7bvI72356xnPpYl9nvjjTbHfQSFN+KqvPrC0+4s8LtHIQESIAESIAESiF8CjHERv3yTRO4IymZNehGQzSmYocKsIgSm55jxt4H68KLobzYzfbp0xpUCKxkgkF+ffq85s46T7bs1wCN82THDbWcMA2WMlTKwGgAsSTB7bJUwiMOA+pTU5QxtIErMnmbJnFmVNUc0uGRy+WrgO2Y1DriRuAYbC8wgDm46aVKnkYEDXjeKEMygwhy59zMvm89AZXIeR5wD+JajTs+/8o4p55UrV43S4F5dkhVLRsa3QEGCtocZ/Fpd7rD30y9Fu2S71i2ifY/LL3A9QmyHObo6A4KE2kCozms4BzVYHQT8e9zfRWNMXHNhsOnvaNPS9A0oXfq99LbdbT7b3mA9oFgCHwzSvhz8o7HeQXwLpyDegg0KiNVGhv460rRttcoV5JGHumrMjsKmvrD8eeHVd9xxQBBsM1BfwGDWV19Gub4Y9KMZSOJeRZBECFwL/C0R6iw7tqFAGvnXWBO3A/cOgrZaixIofmpVdyk0Pc8L5vuSZavksaf7u/PDOVg+F+J0QUOASri84J7zJYh38+Szr5q+YMsHtnZAW0rvazyL0A8e7fOCfDLgzeuyypE9m9/2wPPCKQM+/tLETMBzA25cuOchwT5LAvWNrGp1ZQWrfsCaB8sOY+Adl22CwK1WPtbVe+ASt2FT9ME8YneMHOVyF8TzEX/epPVtTQTPRwQpfaLvK8Zy7ORJjWGjbff2q/3MErnezvPchwCg/p6znukDPbsHvveaPPfy/0z/yK33gF2VBs8OxNShkAAJkAAJkAAJxC+BMAS4cM5Mxe/lmHtiIGAtAmxdMHv3WI9u7tlCux/msw/f39l+NZ9wF7HiaW3hrR8iGCGWhLSCgY71ybb7MGPpKWH6MumWqOPOdDb+QPUqFU3ZMUBBnAsEurSuLb7iQSDWAMyeMdCB0gIvrhikI0gn5JEHu5jv2MYACBYc+MyrnCCYVXyhb2/3gAj7cBxxRSAN6l4rAwYyMPNHOX2JZ3ugfD0euNfdHignBlsoZ2YN2OlNvLG36Zz523SIgxJI0PboA07BbDj6ip3x9dZOzvTYdl7f85jrePSytFUXHcROATsEY4WSAnV3CtoLAzjnfgzGnX3Epm/UoLZ7MGz34RNKgSZRSiDbn5zHndu+jtfTwLS2P2MQbgMAOs9Fe2JVD2v5YQfVVunX6+Fu7uClOA/1xqw1WAfqC/76MqxAcE9gwOhaDeiiye/hB6Lf086yetuGZdPzz/R2Kymd5cd+uKtAbF8Ipm/Z66CdraAt0aatWjQ2u+BGgfvZCurRrHE9931h99vrYsUT5GfLh++PqaWJFQyEPYN02vvBpsGnv/ZwpsN26ZLFTVvhGQFXH7Qb4l6gf0ICPUsC9Y00ukLPvRovw9l3UMe4bhOUA9YRECimYfUEfk4Bq9f6P22Ww0a/gkuJXRob6bCMLaSFWp9gdRwrCIaJtkMdPFcccj4bbFvY/hPoOWvT2+vg0x9vWGnZ3yIoCWHlg3vkwW730E3ECZHbJEACJEACJBBPBJJt23VQLSCvSr6crkFTPF2H2SYBAuhH8F0+rbPcufTFFCt5xJVYs3W8KManwFQcs64QDFQevK+Tz8vBjH7//kNm2U2n64E9AStv7FXLCQyGM2u5nf7vzjRHjh43L76ex/FyDCUKLFViI2iPwxo4FcEFYd4Mdr4G0LHJP9hzLIe0OpCEJYa3AUOwecUkHfjBZ95zltuZB1bzOK3L7gbDGC4JNpYABl7e2tyZd0y2cd/ARQGz+/74YLlMKKEQ/8Xz/oILCQLhYsCG+jjzCdQX/PVlMNqxc4/kzJktRqb63uoP1w70SaxyAouq2MrDvfuZU6GYwMAc/NC/vbUJllU+qib+uVSB5XSd8HVtuG9gxQhfbglghWNOvt7y8tcenulhcYNnj3VL8Txu7yF/zxJ/fQPtj4E2ngOez4C4ahOUGRZO+1UJk0+Xj4VyJJD88tsoXSJ5tkn28Xuvu2MfYQfuN+R1Tl1zMqlLnzPmUaB8PY+Dn6/nrGdafPfHGyx3q/URllCO798jb2XjPhIgARIgARJIqgSSbd91SH+Gr0reHNdMSpMqDNY76REY/+9UYypfIH8eSRsRIUuXrzYDQ5B47qle1wU7THqEWGMSCD0CTsWFc2nm0CspS+Qk8MwLbxjlJeJf7FU3JbtcLyw2Xn6+jzMpt0mABEiABEiABEggGgGuKhINB78kNQKYncZsJ/6cArcPzxUanMe5TQIkQAIkEDMCsN6BK4mNc4SzYbXw6MP3xSwjpiYBEiABEiABEkhyBIyrCGpNi4sk1/ascBQBmAVv0uCf27bvNCbJCLRmA4oSEgmQQOgRWLFqrVldBcEwbfDM0CslS+SNwP4DB80KTGfOnDOxbsqUKn6d+4q387iPBEiABEiABEggaRNgjIuk3f6sPQmQAAmQAAmQAAmQAAmQAAmQAAmENAGNnoVVRUK6jCwcCZAACZAACZAACZAACZAACZAACZBAEiWgawRqaE4Nz0khARIgARIgARIgARIgARIgARIgARIggVAjoIoLCE0uXBz4LwmQAAmQAAmQAAmQAAmQAAmQAAmQQCgRiFJc0OIilBqFZSEBEiABEiABEiABEiABEiABEiABEnARMIqLZAxywf5AAiRAAiRAAiRAAiRAAiRAAiRAAiQQggSM4oIxLkKwZVgkEiABEiABEiABEiABEiABEiABEiABYYwLdgISIAESIAESIAESIAESIAESIAESIIGQJcAYFyHbNCwYCZAACZAACZAACZAACZAACZAACZAALS7YB0iABEiABEiABEiABEiABEiABEiABEKWAC0uQrZpWDASIAESIAESIAESIAESIAESIAESIAFaXLAPkAAJkAAJkAAJkAAJkAAJkAAJkAAJhCwBWlyEbNOwYCRAAiRAAiRAAiRAAiRAAiRAAiRAArS4YB8gARIgARIgARIgARIgARIgARIgARIIWQJhV6+ibOafkC0kC0YCJEACJEACJEACJEACJEACJEACJJA0CYQlS5Y0K85akwAJkAAJkAAJkAAJkAAJkAAJkAAJhD6BMNpahH4jsYQkQAIkQAIkQAIkQAIkQAIkQAIkkFQJhLkMLmh2kVQ7AOtNAiRAAiRAAiRAAiRAAiRAAiRAAqFMgDEuQrl1WDYSIAESIAESIAESIAESIAESIAESSOIEGOMiiXcAVp8ESIAESIAESIAESIAESIAESIAEQplAlMVFKBeRZSMBEiABEiABEiABEiABEiABEiABEkiqBGhxkVRbnvUmARIgARIgARIgARIgARIgARIggQRAwFhcXOXSIgmgqVhEEiABEiABEiABEiABEiABEiABEkh6BMKTcUGRpNfqrDEJkAAJkAAJkAAJkAAJkAAJkAAJJBACLouLBFJYFpMESIAESIAESIAESIAESIAESIAESCBpETAxLmh0kbQanbUlARIgARIgARIgARIgARIgARIggYRCgDEuEkpLsZwkQAIkQAIkQAIkQAIkQAIkQAIkkAQJMMZFEmx0VpkESIAESIAESIAESIAESIAESIAEEgoBWlwklJZiOUmABEiABEiABEiABEiABEiABEggCRKgxUUSbHRWmQRIgARIgARIgARIgARIgARIgAQSCoHwq1eviv5PIYF4IbBg8XKZMn2OybvvEz0kRYrweLkOMyWBhE5gybJVMnbCFKletYK0bNogoVcnpMsfl8+lDz8dLBcvXZJa1StLg7o1QrrewRQO/XDkqHFy4OBhyZ8vt7zU73H5/qff5PDRY9Kt852SO1eOYLLxmWb2vMUyc84CCQsLk359ekoyL2uy38i9cPnyZZm/aJngOmvXb5K8uXNK/2d7S+rUqXyWKVQPXLh4Ub77cYScOn1G7u9yt2TLmvmmFBXcZs1ZKAuXrpTItBHSu8d9UqRwgZtybV4keALB3EvB58aUJEACJBD6BML1rUGSCTUXod9U8VPCnk/2l8VLVpjMp08YIZGRac32F4N+kk1btpvtt15+xr3/6Rfekhmz5pv9cyb/KalSpTTbvv7ZtHmb/P7nP+bwU489mGAVF8eOn5D1G7dIRJo0Uq5MCV/V5f4QJvDEs6/LnHmLTAnffvVZua15w2il7fPcG+ZlvXSp4jJ08EfRjt2ML19//4u5F0eP/VeaN65nBnb+rosB2iIdWECqVionyZMn95c8VsdupN/fap7+KhyXz6VffhttLpUhfboEr7jYsWuP9Hj8BTe6pctXy913tJKvv/vZ7MucKaP0fKCz+3hsNjZs2ur+TXj2yR5eFRcxvRec5Ril988773/h3rV8xRrBdUJdcbFqzXo5feasFC9aSDJlzGDKv3L1evl2yHCznTtndunS6Q53veJrY7P+7nd96Klo2d/RpjkVF9GIhMaXYO6l0Chp4iuFt/s18dWSNSKB0CMQDp0FLS5Cr2FuVomqVS7vVlxs3rpdKpQrbS49fORYOXPmjNnGj2PlimXN9qIlroFShfKlAyotblYdbsZ15ujs3StvfSglSxSVn78beDMuyWvEIYGjx467lRbI9t8pM69TXEARALmos5y3Qrrd017Onj0nLZrWD6i0QPn2Hzgkjz31sinqNFU6potSOsZl2W+k399qnnHJIankNW/BUndVB33+f1KmZDFJmTKF3N6qqezZd0CaNa7rPh6fGzG9F5xlwSw0JJMqWYZ9+7FERKRRqwGXQt6ZLtS2+738rhzQe/qTAa9J3drVTPGgJMfz4MTJU9Kwfq2bUuSFURMZuNg3n70rpYoXSbATDjcFGC+SJAl4u1+TJAhWmgRuMgG1uBD8T0miBDBTa2X9xq1GcbFv/0G30gLH1m3YbBQXBw8dce+vVa2SPc39eeXKVR1wxW1vikme3tJ62+cusG7AVcqbqbIzDbZ379nnueu678gLEkx+150cYEegegQ4PVaH/bHxdyxWF4vFSTFhMlPNnp0Cq6GTp07f0GA/UHsHYuR5HIMVO2BxlhXbnmmxDwPJQBKojM7zvfEMpt8784jP7StXrgSl0EEZvPEKVDZv9fc8J5g0nufY77Epkz3X1+eNlMdbnlCGWakSpazG99f7R5+Bt2mcn4HKEui4My9/94Iznbc88TsFqVi+lOTMkc2Z3L3t7Tz3wRhseMsnUDt768cXLlwwSgvPS6dMkULeef05z93RvnsrQ7QEji/BpLX8cJrz/cCRjd/NYK5hM/CWNhA/e6799MbTHnN+eruW87jdDjadTe/8vJFzY5JPbK8T7HnBpnOW2dv2jeYT7Pne0nnb5yxjoOPOtJ590tf96jwnptuByuNZBmf+OAaJj3dP53X8bfsrH84LdNxf3jxGAk4CanHBGBdOIEltu0ypYu4qQ0EBgYWFU1av3Wi+woTUSuUohQce4IN+GK4z2DNk9+59kj9/Hnm4+z3SukUjm9Tr52n12f1O/abhi3xEfadh+dH+9hZSqUIZk37i5BkybPgoWbN2g5k5q12jsvRRV5MsmTOa45OnzZG/xkyQUmoBAd/bn0eMNmlx/f59e8uBQ4dl+MgxZl+1KhWkh5o3O1/EYeb3+Tc/yUKNwRERESF1alaRvmpO7M2H+Iehv8uYCZPNddep7+/jfV8125gZg3k+uH361RCBWS8Es2RP9rpfSupMlTd5/tX/E9S/ZPGi8vgj3UwSDKJffO09s31b80aG3+EjxzTfH4yv9lFlBBeGLp3aueMfYEb7qeff0lv4isCUt2kj12zosy/9T86dOy9NGtYxTC2rcmVKmhnTIcNGyo6de2TINx9cV7ztO3YLTK0nTJoup06dUb/9SnLH7c2ldo0qJm0w3NCmYA8uudS8uUbVivLgfR1l8vTZMnb8ZP1xDZPPPnjd5DddFQi//+VyJRrwdn91xUltzNJxnbva3Sbh4cnV3368FMiXR5554mHBS/XAL743/QZMYPnzzOMPSdnS/t13/tX+BMHs5cRJru3Z6jYS01gSMKUHv6UrVssOZQUB5wfu62D6Ir4jfsK4iVMF3DNlSq8v/+Wl+713SQHtm/74/vTLn3ruMsmeLYu8+kIfZOUzL1hHWRcFpOvb/3+SUuPHPNnrAWMSH6iMMP0HY8ykH9F+Nvqf/2Sj3veNGtRSV4B7jbl6oH6P68aF7Ny1VwYP+VVWankg6Gtd1SQefec3dTObNG22bNm6Q9De2bNnlU53tTHHw8PDBe0x4OOvdUY4hTzes5t8o+42c9VqIDIyQjqoi8OD3ToGLOL02fNlxB9jBS4FuMce1LZs5Jjdjk2fs3wb1K1pXMxsn4PFQr+nekqa1KmvKxd4L1620tTlg//1d7v+vD3gc9m3/4AULlTA9PWLFy/J90N/M/co+iCeeejHuMdsDKHPvh5irltG69Pr4a7mWoPV5WD5yjWSN08ueeGZXtddHwymzHDFI8JB+5xzJuzcoZ15VtpnCu67snqNIT/rPaFuJd74IcbRV98OM21YTN0gEDMhkHi7F+B6hGcenuWTpswStNvRoyfk9tsaS88H71XLkJQaD2K4bNu+y2Q/f+FyUwfn8ybY3xVvz0p7/a6d2huLrRmzF5g+2U6fvbi/f/xlpMyYvVDOn78gHe9sbVxq4Ep5Rt0/8Fs3b+FS89yFJSM4de9ylzTVZ8d6fU4OGzHKjeRzddMc/scYaaW/A/jteuNdl4Uf2tdaPgb6bUBmtry+eGXMkN59Tbvhqw88+2RP+fiL7wz/fn0ekVlzF8rUGXPl7vatTN+LSXliys+WzfkZk+dCm5ZNzP2C3270P7is1tTfNYjtxyWKFTZWOX+NnWjeY2roxMxL/XpLHo2PArH3s7ffpED3o/O+/vCdl9zK11ff/si8+5QoVkSeeLR7UL9tsbmXUP4/Ro/X/vmHqRuUglX1fWu+9kfU+4lH70cStTT0/1yx7y145+qtz1rIkaPH5dW3PzTbbVs1k+ZN6gWshy+WsPbFO12gZ4pts9i++yGO1K+//y3oD7DKate6mTzyYGfz/Ajm98Tf/drKy3uvvQ+93TeBflv8vS8AeqB3T7hEDvzye9M+uIcLFshrJuHe/fBLs++RB7uY91XL1NtzDwqVP0aPk/+mun6HMWbAcwvvDpBA74T+3odMBvyHBGJIQCMlaoyLZC5tXQzPZfJEQAAve7VUKTB3/hJZs86loMCDGYJBAkxXV65ZZ76v37TFfOIfvKxCYC6HIF5W8CL9qrpUZNEfBPtyYI/ZT7zYde3xtHvgh/3/6I8JlAZQXGDQ+/7Ab2xy83KI43O0jKOHD5K0+uK7/8BBU2aU2ym4/qN9+jt3GeXE4SNH5fehroc1FAz3P9LXnQYvkv+p6wAsTX74+v3rtNbf64DCus3gJHtNPNDXbdgo3bQuTsELQRf9+0njJGDg4Cnp00WaF2/k84i+cGOwgZd+m+9jGggNL7uduj9u6m7PhxLnpdff133HpXOHtuYl0sZswIuWFbywo7x4KYE4WUEZ5KyLPQefCAT31AtvRmuXyTpozKH9AIPJYLiNGTdJXn/H9aKNPNF/MCDs0rGdeWm3dcQxCAIA2n3WtQCxRLBv3YYt7vqH1Q1TRcpp6fzAk+59OB95d+/ZV/79e5hbqYX9Tjl+/KT7Gq31JXanKtjA8t/JM2OsuEDQQMSgcAoYLdH2G/fnD6YP9erzkvswWEOhV09fFnPlyu6X75ZtO0w5MRCF4CXKV1540UCfsWLj1NzftYO5j/2VEbO4lrFlb/OZOn2uoF9/9O7L+rLvu9/HVTgNKEM7duttL28+cQ+jv0Fx8dnXP0brr+hPn6mSMK2a/3do39ooAG0dbOwdZALuiNMDhWQJHwpEe9H+rw2wm6ZfvPr2xzJ1XDVVmoXHus/54ot2OXHypHzwv2t9xF4c/WPuN67nGYIj4gUeffevvyeYJAj+CcEAYvrMeWYb/4DXIFXY4JpoN8hSvS9wbzjjnmzass30L7i7eZOffxtl+qo9Zrna7/hsprFXIM5nitkR9Q/uKyc/KDH7vfSOOwmUY8GI572Ac+zvjGe5MNjOr4pNKBChsLOCPuBMG9PfFc9npa/ro00977chw343A4KG9WqagRy+OwWcntffzuE/fi5rtK2h6LQCRvirULaU5lHSXYc7VLEPCea3Ael8ldfyuufu25EsmvjqA6eVpc3vod7Pu5/BUPDdaHkC8YtWwKgvsX0ugGvvZ16RX77/xDwXfPVj/IZ3f+RZGfv7d0YRbO9nz98kFCfQ/YjfT9sPMdAsre5X+w8eMu88OL9hvVpBPWdiey9BWeeM+YJ2tG2JZ72VQPVIqxM8UBiiLo8+1MU8WxYuWe6u29O9HwqqHr5YwjoKeVtWtlyezxRfbRbMu9/Q4X/JwM+/s1mbfox7E5bCUMZgQsle39fvib/71Z2xY8Oy9rxvAr3PpEuX1u/7AiYUA717Hj12wl0f3MMQuKPaOt5zl+sZ4GTq+dx78/8+EbzXWUF9Dh0+ahQXgd4Jd+7e6/MdBhM5FBKIDYEwnBRlZRSb83lOIiBgB734UYdSYZW+VEHuU597CAZeJ06clLXrNpnvSI+ZpMU6iLMP5Y/fe1VmTRppZmyRaIzOrPuS33SGHT8yEGiov/rkf+avcYPa5ofji0FDzbHChfLLFx+9ZWbTsAMzrpiJ8pQX+j4mI/QFsKnD//ppnZ3HvnZtmpnkmLGFYgLy2Tc/ms/aNavKpLE/y/dfuQYuK1evMzPi5qDjn88/esNtCZInT0759ov3zB8GBZjZhMBq481X+po/bEPwcuVNWrdo7N6Na0Jg+QHBoBUvNnjJRn0hmDEDB/CAfDl4mHlBMF9i+A9mojH4wCyhp6xXRYFtl08/eEMQN+GnwR9LW52RgATidvbcORkwcJBJC6XX8zqri/PffeN57S8xj+iP+mOGDJp9zDQO1wEK9mGWZOTPX6myYqjZxgUx++lLZujMrBUoxurXqW6+YvCHl4eYCJRBMJsfpnFOJv/zi7HSwfkoF9wqps24NqCcOPono1BBrAAMQgPx9SyHv7we6t5R7lVlkBVY/6BfIrBfoDLac/CJvvry80/Kr0M+M4Mk7AOXS7pKhr9+j3RxIZ9G3T/I6+H771EroA8Fz5LCBfOZ7J/s1V3QF//54wcZPWKwuT9wYNmKtea485+WzRoaBk63hjmOmA3OtM7tR9UiAQMZWHJAMOBdHaXEjW2fs/njPsC9++OgD6WKznJCoBzCTJqnOFckmbdwmTm8ZPkqdzLct8tUGWGVFrCOGax9C58Q7Hcqs9wnBrnx/lsvuhUTOMU+52AJ5U/88Rv8w6/mVPSz9956wfQzW15/efo7BmuFD1VBg75iBfd/hgzpTJnxjIbgXrd1wIAkpr8rvp6VsIL4cuDbJv6DvT4UDGhnZ5lg0QVJnz5SXujby7TVf2P090aV41YwWwmrnNccrjiPP3q/KXfrltd+J2x6fMb0t8EXL2eedttXHyiYP69NYp51sHRr37alsYSLaXliys99YcdGTJ4LXTu3l9900gLvCVacFi52H36/kc4+B/BMh+WhUzx/k4K5H533tY0fYmOFIe8mDWsH9dsW23vJBnfFswh9b6jGfcHvqlOCqUer5g3dp6yJeheEggeC/GD5GpPnpSdLd+a64e+Z4kwXk3c//NZbpQV+a/C++uRjD5jsENPNU3z9nsT0frX5or7R7psA7zOB3hdi8+5py+Lv0/ncW61jAau0QNnxDEcf6qWKK0igd0J/7zD+ysBjJOCPAGNc+KOTRI45XShggr5kmWsmF7MpmHXFAxfxL9as32iI1KhW0XyuXuNScOClFAMdaHEzZ8pkjvnzjV/kCP4Fk3hr3owT8SKHgQPk3o53GKsNWG78/tc4Uw5vA5bbb2tiZkXqQhGhMwIQrMoAk/u6tarpbNh/Zh/cJ+APa2enc+sMp33RRx1wXSg3YE7nFMx8/X97dwIo13j+cfy94woiEpJIBFkQQomIUGssRayNpSIlIbYU/VubFlWthtZW0lbUTlNbY4utNNTeSux77YQgkRARS6iE+39/78wzee+Y7SZzb851vi+5M3PmzJn3fM6ZmXPe87zP26lTdr2Wa9cu34ihZVmDg06GrXvMI489Fa6g6bli/W/X98uzaJbJfl6dlCvsWWXwztuHW10xVVG9dHVDRRnlTzvzvFDPKT4cus+ajQ8+wkwV/tx87cUls+vbyaIWcc55l4RoEDUm6Qp9NW7KiL9g2+0ewqW1rLg7kh5XW3QyEHdn0aggKr18486Ut94J9zVco/ZPhdKXKnfn9gkdMKsryqa+4e0iH7qu8vCjT7odt9uq1Eu/NV3hqfqnq4wK81S0khWdHPVZKxvlommjzzgvhIPr86W+p3pvK4W+Nj2+LbcsRSdp3a3ooMKSc7avUEd7jW7X8I1he/quQCrbbLWpj6rJNqTNn/91uOJbbL8PM9fgj672WcOnwpetS0O8aEVVaL7p788IobwDNugbGteUrLCwDN51+/DZXH+9tfNRP1/6xrRKRQ20GnFiR9/tTVejVfRdofLs89kGkqbuc+HF/k/XFTvnI8+UcNK+e17z0Q+FV5zUfUQNiroCrS5Uh44YGrpEaVlqLNb32V3RidSRPxkRvqs6dVwhNIZoPl0Bs+52etyU0sdHpqyycnaoU33v2HIUDl6ulPJTBJV9v27r9y3ryrbuOn3y9S233FLPqdugIhlULFpQn0d9T6nO+o5W0b5r67Awvyulviv79V0ndH/Te6gRVd8/+qxahKEan9UAPHdudt/TCCHajxWKP236jHCyr8YVXRDQyVTHFTrku5lpmWv6E0Crt7pRFZZqfhvika9KeRUuV49L7QPxvDrpiz+r1+VGDSv3WxXXp6l+8Xvb/aZ8Lyh6S99z+qdukOoiYBdnbHm63c7/1ul7QCfN9j3wqo9iikvhb9JVf5+Qf7rc51GNUIoaVeJYdStS0mOVrf1+rP2j0vfMwn6WFEWpizYqO/iupDqWUVEUiC5UWbHvfT0utR7Df7xHfn9X9IeiSdU1SkXdLVQqrUeYKfen0DLu+ljqOyV+ve435dhPv9dWLApmKR9xrKLjFl14iUup35Nyn9f49YX3S31uSv22DIouxBUeL1R77FlYh2oex997cQPfKH8xMI4gruaYsNwxTDV1YR4EigmQ46KYSsqm6QqtnbjrypW+xPVYodoD+q8XGgP0Q6UDLRVr6LCTRc0fhwNrnjZlhklVCLyKTlbiRgtNs6gI3e8djRuvk0V1i3h32rcP5DSvSiaKX7ckRZlMJvtk7q/64lq50TeG6F9clmyzZPyw7P14WdYtQy/QVW8L/dU8hXkzFJa49x47uwt8ZImSRqrfrNla1n5bzw38CamV2EOhfQvTcGHLKnarLjjHH3d4yBmgA291S9FB+Jk+OVxHf3JkpZTb9KjxYEN/AlHrYiY6GbITInsPhfUXK4oUsu40Cs9VPoT5X3+Tn1VdhJrScKHhQU/8zVn5Bqv8gnJ3dMKxm29IUy4Pva/+aT9XFIAOUEv56oShsFRaVuH89rhSHW2+wlud+LVk+Wj27Pzbqc91saL+yGeNuSh8JxV7vti0uHtEsedLTSu2/guzz5Vaftwgqrwixcpu/gRHDRcKj9Z2VAOGivWdnv7+ggY6a7jqvmq3/KKm+QaexVUK/TSSj5Xeq/eyuzW9XbLKfXZRfleqqbD93mje+uh3SI910jnGh6eP9/3qa1Fsnyz32xA3FMTvWa1X/JpK9xelPrbscn42T3y7MN8Lev2aa/QKDRf6fStV1JXTGqQUEl+uVPt5VL4SNVyo4VL5rCxC0KIvzbDUb9vCfpbU1cyKctuUKtWsh46l1Mh9hc/XMsk3+CuSRI12KtYoWWk9Sr1/qemF3yml5qvm2E/HTFZ+7/MGFZb6JYofQyzs70nh8gsfV7Kq9nis3LFn4Xs29fG0KCl9Yc62+Pi31DGhvofKHQ81tT7Mj4AE/Ce1zv+/oJ8bLOkT0BfzJhv3C1fBlORSZeMB2RMJhbgrisGuQOg5+wJbPjfWvKYphMxfVtbdUApP1m26bnUCpwOHwiSgei5OGKYTzb6ujybnGyz02kUpOiixoqubm/s+8HHpUxBCGT9XeD9eljXiaJ7pPmrDSjyPTdOtkump4UJXPaxbja6a28GFcoTIyH7c9JoZM2fpJpQO7dvb3ZreKkxW217JqybcOjHU4dSzxrorLjg7/z6l3Cy8XjMq+WfcOp9/8SLcsf1GV2oU/huXPr0XRDrE0/89ORuurWnyLDxgVdi+IiV0kFBNUVIrRdLowHY/n2dEV7QshFev14HW6F8d53beYRufcO/mEIWkqIKr/n5zSNhayrfYELuVllWqvpXqWOp1LT09HqLybb9tCosSi53iE9ipqBvYhv3Wczph0Ul9S5WF2edK1W2Gz+diZWXfKFysbLD+uvloLCWlVU4PFQs3j7//lNS4c6eOLj6p6ej3y6SU+DvqvenZRu/FVbfm/l0pt14Tbrsr32gxYtjeoSFb3f0sOq3ca4s9t7h+G4rVRdNauj6L8r1gIzGVyvOi9VF3WTsht99jTS9Wqv086jfVLg5d4xOx2rZXDh6VSt8zC/tZivf716Pk6oXrUu166LhFDRfKn3PP/f8Ji1HUkx3vVVqPwvdtycex4S+OPcx19lGLVtTYWHgRzZ5rrttqrEodL8THY0099mzK+rRvv1x+duUj08VMK/GxbaljwoU9hrH34BaBYgL+crRvtKDdophNqqZtslH/sL72g2rJN9f1+RZUbPpWvpXdrm53j1rw2/pkeco0rH8/8F1M1sxdYbN5tQwL77b+sjoo14gBuiKlcHCF6nWPwt91UqmDCCW0shPORb1yp9wc6qahoqtwCiO1emuI11InsNYarxNy1UlFy7L+1JN9X08lANU/df9Q0XOap1hRtnLr827dFqyrieZXf1EVrbcS9Wn0FmUUt6KrrcqWb8XCPhUOadvKnqv2Vv4KXV69Vw+fUf1I9+sTjw4vVWjtN37kkkpu8f5wx133hcSbWsBcnwwqDIUVVURRN9ruM3InZtFTJe+qXipv+NBXhbzadlM3na5dOhV9nY0mooYGRT3YvyE+678V2172uNztpEey21ZXnjRihUZziYsiPNSYobDx8889NX+lXEk9y/kWhqlqmeWWpefjz1bcNatSHfXaakux/V6vVZb6wUMPbTSySbXLtPkUlm371AM+P4MlBVZIvQxtlBHNf8ovjw19z9eOuuLYcprztin7nCIkCosSoqkbgz6/iu6xEkdf2DTdKhprL587QOXCS68Kt8ptYd2Aeka5Bu7xWd71valbK9b9JJNrRFYCN4X06jOoRG0tWXQiYH3p9Rl7z3eT0GfeTgpbsi7N/btSbl2UP0BFuSY02tRQnxBPow3FRaMnWVFCu3Klmt+Gcq+v9XMtXZ+mfi9Y1IR+N6yrliIvCot+u/U7pWMSK5ZXyh4X3lb7edTFob123zG83Bq6lSNE34Eqlb5nFvazpNdZI80/734gNPwqqmPK2++E97U/1a6HtrV9pi13hkWNVLMe9n6L43bVXO4bvfcc/zu9re+mY8cQ/X2DcVNKUz6vpZZbaZuXO17Q8Vg1x551/vfEivZ/lTgy1p4rddtj1QXdUW+85c7wW6Z59ZtWzbF0pWMYjZg1ZP+fhtHTStWB6QgUChBxUSiS0sfqEhIXJYhUicPQ9FhDW1pR/gPL1XDUqFPCVWi1yOqKqJJiKn9FHLK6854j3MXnnR6uVFsWdmVWtysRal1WKL2SMSoh0MR/PRD+2fvpVqNTLGoZ6fvoKlRQiaUG7rB3SEqo6A41pNx2/WX5IdDi91E/RBU1Cmy+3V6hzhpFQkNH6qqwGhgGDd4/fokb6YeFLVcG+/W0AynNJ08r+/lhB60by/BDjrXJ4VY+6qOpoigNXf1QGKoSf9kV2vBkE/8898LL7qfHnhy2qaJq1F9eRbkh1P++GjedZOkETflOtL0t5HbiLVeGulqVhh2cXaemNLLs67Pga4QFvWanPQ4IyUrn+xMh2SuxWtzwo/dRQ5nlUFAfexu+S89t6kdouCHXN/tf/sqRhbrquXJFV8i0fjfffneI1Ljfn3DH5Zrrb3U6oNMB78rduubfX91FKvnGy9H9csvS83FD0bCDjwn75JmnnhBG0ihXR7222lJqv7/wsmvCCei5510aGhQWNpxWeRyU8V4ns/v5dbD9RRFc6/vIGisnn3pOuCJmOWxsenPfVrPPqTFXGej1eZ02fWZ+qF/VTf3LBw4akv+O0zR9Rspdyd15h63zOVg0/647baubUJR3yPIjaOQlJZy0z5Cm2zCu+szqBEWug3Y/YLE0FqjCaoQ5a8yFoSvc4CGHNHLIrlHL/FWukeb+XSm1Jurypd8y/S6efs4FTnkTrGugvaZrlxXtrjvnz5eEBMz77TPYaSjPwlLtb0Ph65rrcUvXp6nfCxrl7I++q07cYFZsRJXB+xya//6RlT5PFulUyq7az6NeH6LwfOSdlZ0HbWN3XTXfMwv7WVIiRQ3Jqe8Ji2DLv3HuTlPWQ/kstI9aiY2qWQ97XUvf6tjUhkPXKEwaPWPN3r181Otb4ST8ntuvrrpKpT6vce6XSgurZNXZ5+gpdzxWzbHnOlEX1NF+tDcNS92UY0SN1KQEnHqNRmzSPx2vd+68glMujErHhLf54/hSx0NqSLERsxSF9H3/m0VBoBoBIi6qUUrBPKv17B5+tG1V1/J5L1QUgRBfdRjQv6/NEr7sdVVZofsqOjCwMG5rwdcY5fEJo/pJ9vZXOzRSgLUY24F3N3+ip/Lzo0d+a9QLndAoa7tdUYxPlOL+sWEB0Z9iz+mH9yh/5cuKElPpi1n1WWaZZWxyo1uNV68TDivKvLyEXxf1XR3l61tYfuYTGWnozXJFLf5WdPITh2tqPbW+Wu+4KCRPPlYO2DfbiKLHWgclAdNoKXGp1kph5zrI1nJ0IqbtqRPuE/3oICrVuJ30i/8L2ebt/bUMNW6pdV55LyyZpba5pimDfmFZYgn/teRLJndrz+tqj0acMBOdFKrRQj+kFqpq8+o2jqTYosBE8+sKqIpOhi0ZY5hQ5o8SlCnvh9ZL3aeUe0Xvb0VX8nRFSnVTo4me0/4/3CdWreSrq+1xKbcszafP4oHD9270/koAWqmOem0x4zgfjH1uSu33G+W+B7R/xPuXlt2UoogVjQBkhnLVfXV50PbW+6toxAxFkhSOSGGRBaXes1Td4um2rvGyMrlopmr2OQ1NHH9HxnXRumh/se841f/k44+MZ/nWfTVq6HOootfbqE96rCuo+s5Vg6WKLVePNV2huSoK6bY6yVTf0UOLDH8ZZq7wJ94vzahav318ZFPhPhp/j5Z66/g9C+cptp8WflcUvkaPa/W7Er9/sfeJbfT8oO0GhsZf3b/JX7VUFI79Zmqaij63p/nG1/g3sV27ZUMETnaOBX+r/W2wV8T1ze/rBd+tNm81t/HyNP+i1KfY+xX6Fc5TzfdC/BpZ6zOgIt/TRx+f7+4az6fPkM2n12jIYot0KvZ9qddW+3nUvLoYoO8CFf2G9c99hvW4mu+Zhf0s6TtaxxL63Ol7RUki7bvBIkKbsh5xI7+ONxRta6Wa9ShlGW/3/H4adT+27+Ri89n7x7e2jHiajmXseFTfnbroo1u7wGbfb/Fr4vv23qU+r/G8hfcLPzeVrCodL1Rz7Knjd21vKzq2O2Lk/vljKJtu66XHsZv2j4v+9Pt8dLCel5fOF1QqHROWO4bp7j+LdiynhnYKAtUK1E155wMfHNfgeqxUPNS62gUxX7oFFBKmBE860Fb2e/tBNBWdGOrHMf6C1HO6Kv6p/6fM+BY2Gb9GIfA6gNMy4y9Um2dRbhW2rCukCsnr1HH5UIdKy1OInMJJC7uUaFkKhVZZxTfAFK5nseUqNNWiNHSFOT4gsPn1XupbqC4c6l5SaKT5NKKLRhlRKKQiIxa1KFRfoaSr+veLD0psudW4aR51A9EwqMrCHW87TdfzugIST7flV7qVibrEqI+/+vCqEaIa70rLbcrz8tFBrQ4uihVtL/WnVib7wrpV8i1cXrllaV4t77PPP2/U8KXpleqoeaotxfZ7dbVS5M/CbMPC99U2VUi3QmA7+++C2Ew5SGSpLmb6DlkcpZp9TttJ31Uqx514Wmj80wmQRsb5cNZH/uR0maKfp8L1UfePEYeNCo3AFoVWOI8eK/HezA9nuS6dO4WhQIvNo31An5G4UbTYfM09TZ93fY/pezzets39vsWWr9+i5vxdKfaemqaovq/+Ny98j5dqmNF+pu81ba/CE53C5WreSr8Nha9pzsctXZ9y3wvqXmmRihq6doO+vlHCJ4tdqeuCyBZZaCQLRY2pPHzPTW6e/y396qt54XggTGzCn2o+j5UWV833zKJ+lvRdrigwlQP8CCfH5IYEtbq11HrY+y2OW/sOUFeKFf33pzVQNbUuTfm8llp2pW1e6XhB+0OlY08lhNVvkKI04y6mpepUbLrMtIwO/vek0Et1KHcsXeoYRseu6sJY7MJTsTowDQEJ+IaLmfrcuB7daLhgl0CgJQSUlPT+hyaH5Fa6Mq+rMNeNGxuGe2yJ9+c9EECgeQUKGy6qeTc14l7vuy9pSEEbCWeCD8e1KLNqlsE8CCDgQl6ouOEi7uIa+xQ2XBS7MBDP3xrvKx/RLX5IeEUH6oTzvocmhUhFrcuVl46peRLt1mhEnRFAoPUIkOOi9WwravodEdDVIPWxtKJEmG1y44nbNG4RQCBdArNnz8kn5NSaK6SXRot07QOsLQK1FljaR2GqC69147Xln+C7TdR65C9bNrcIIIBAcwnUvekjLnzsu4+4yCb7a643YrkIIJAVULjdE08/7+b5kFTlo1A3FQoCCHx3BF57460Q8q8rnJbouNLaabQi5WVRlxklS7Z+xJVex/MIINBYQKPoKHeVyto+z1aHDguGdYznVLfFt6a+GyYpOWAtur3Fy0/KfYX5v/LaG2EIenXLVYOFJfhOSh2pBwIIIFCNQDbHRWi4oKtINWDMgwACCCCAAAIIIIAAAggggAACLSfg0/f7BBcUBBBAAAEEEEAAAQQQQAABBBBAIIECvuGi8RB8CawjVUIAAQQQQAABBBBAAAEEEEAAgZQKZDQUKlEXKd36rDYCCCCAAAIIIIAAAggggAACCRfwoxgr4oKoi4RvJ6qHAAIIIIAAAggggAACCCCAQCoFchEXqVx3VhoBBBBAAAEEEEAAAQQQQAABBBIukIu4SHgtqR4CCCCAAAIIIIAAAggggAACCKRSINPgh0LN5rlI5fqz0ggggAACCCCAAAIIIIAAAgggkGCB+ro6n9+CEVETvImoGgJZgaeeecH9Y+J97vsb9XM7bb81LGUExt94u3tr6rtu9V493D577VpmzqY99dW8ee6DD2Y53XbtsqJru8zSTVsAcyOAAAIIIIAAAggggECTBeoZVaTJZt+5Fxx42M/d8/992W2ycX93wR9Pa7R+A7bcLTw+YL8fuWN+elCj59L24JjjR7v/THrcfW+dtdxVl45p8dW/6Ipr3ZNPPedu/cfdbtAPBrpMxo9mXKZ8POcT98prb/qT62Vc33X7lJlz8T719ddfuyeefj5UYqP+fd0SSyyxyBV66OHH3KOPP+02HtCvZg0XYy8a58ZdfWOjuh164I/dEYcObzSNBwgggAACCCCAAAIIIFBbgXqNKkLARW1RW9vSvv7mm1Dl+f4EslSxeUo9n4bpOsFWmeevti+OcsCP93RffPGl23H7rSo2Wqh+kx550v36tHPd2n16u2su/9PiqHJV7zlj5ofup8eeHOZ9YOJ1brl2y1b1upaeSY0hKiussLybPfvjcP+ycePdpr7Br3+/dcNj/iCAAAIIIIAAAggggEDtBerJcVF71DQt8ZtvGvxJdMsNp1vs/bQPhy5PJeC/8Q0zlaITSrx0kSZXet9y9S723Jabb+z0r1gpNv97094vNusiTyu2DRZlodPen1nVy6t532rm0ZtV2jbFKjT0Rz90A71/1y6d3bPPv+gOPuL4MNurr0+h4aIYGNMQQAABBBBAAAEEEKiRADkuagSZpsXMmzffXXHV9W7iPQ+6qVPfcz16rBJyLhy8/09EkUEAABnjSURBVD5uySXr3Um/Pdt98ulnbl3fpcLC6MeMvcy9+dZUN6D/+u6g4XsHLkUDzP54juu33jpu5EH7fotQXTMU5TB86J7u7vv+7XTFW1e6d99tkBvhu6787dob/bTH3f/+91XoDvATv4yllmrj5s79wl1+5fXuEd9VYOo70/zjuaF7x4hhP3Lbb7OF++tVN7gnn3ne13VJd87vT8p3Tfjd2ee792fMdKuv1tP97MhDvlWfaiY88tjT7vqb73AvvfK6m+kjCdq2besG77p9WOfOnTqGRTz25LPuzrvud/c+MMlfvW/vNvImWp+e3rHcc1deO8E//4zrsmIn95sTjym7rPsenORun3hvmOdlX5cjR/0m3P/z2afk11cT1PVl/E23h+dGHT3Srdaze7h/g1+HB//zqG8QyrhzTz/JtWnTxt1170Pu6vG3uBdfejVEHWy+yYa++9DBrlPH5cNrtD/845/3hteMPee3YZqWoWWpnP27k76VE0L1vPb6W8Pz+jPqpN+7Nn4fOvqIg9xavVdzsz762J134V/dwz56RNte3XSGDd29UY4PNVZc/rfxbsLtdwXzzTfdyE15+538MnWn1vtErx5ZJy17heU76IaCAAIIIIAAAggggAACzSQQclwwqkgz6bayxc6fPz+c4FWq9gm/OdM9+O9H8rOp8eISn39B+RTGnHFyODGe/OhT/qr0y6HhQg0d11x3S5h/6rvTwkm8GjZ08q6y7VabhdvCPzqpVtGy4qIcD/oXl3FX3xDyOGwzcFP3wYcf+VwEN8RPh5PtE04+w43/2/muW7cubvLF2WWqgWG97/Vxc+Z86m6+bWJ4zWbf37DRa5vy4I677mtko0aT8Tfc5j6c9ZE769QTndb/iGN+lV+knn/vvffDlfw6H7lS6jk1aqjhRxZqKFIpt6wrfOOMlm3FDHWSH6eQWGP1nnlfeVvDxU23TnSv+UiCrbbcJDRaKNnlH/50sS0uNCLc4ROFTvL1uXX8JW7ZZduGRiJ7H5txpk9kadOsq409p1s13jz97H/zk5TDQ+XA4UPCvjh0xJH5bhmarkaTX/32D37aHLfvkMGa5C4d9/ew/4UH/s+kR56wu/nbWu4TSsw59uK/5Ze9mW/AoSCAAAIIIIAAAggggEDzCYQcF823eJbcmgSefe5FN3DQkLJVfsbPY40W2269mdtvyO7u2htudfc/ODlM10no1v5kV40SOnGeNn2Gj6r4JL9MnaTrZHbqO+/lp23hr5CXK0qweND+Q0KDyGFH/TLM2nfdtd3hhwwLJ8wHHjYqTHvYn7Cq4aJ9+3buxFFHuDV85EQvH0HwznvT3MGH/yLM88KLr7iddlgwIscjjz8TGi6eevaFfBV28IkvF7Zs5yM6tvZ1WGO1Hq79cu3cmLGXu4n/esCfTGcbSh54aEGDz123XhmiEzT6RY9VV3b/vPuB/NsWPpd/IrpTblnnjxntxl44LjQKrLLKSm70SceFVxYmvuy2UpeQwPJxHwXy78lPuP333StEOajRQmXXHbd1n38+1/3lkqvC49X9eo06aqR79oWXQmOBoiAUsXHIAUPD8039c8iIfVzHFTrkoy4UEaJGEDWoqLHEckkoImeDvt9z54691L05Zaq74NKr3Q933i7k51GjmYpyeRx/3GFu/vyv3e/OHhuigaw+tdon3vaNdCeN/oNTFIvK6JN/lticHLbu3CKAAAIIIIAAAggg0NoFMuobT8RFa9+MLVd/jT5i5cifjHAbbrCeO+qwA22SH53kFT9c5wb5xy/6Ezx7jbpNqDznl/HSq2+E+zrZXKnriuF+qT/9+q7jNvHL1IgTSoyo0met1d2m3+8foiwsAmHu3C/DcwrdH7Lnrv65td2nPrKjZ/dVnE7eVT777HO3zNJLh+4meqyuDCqPPvFMuNXIKuqKsbBFDSfqjqJGCyXStKvxFv2gelsZfcZ5oUvDhj6x44qdO4Z1KvWcTY9vyy1L3W86dVohzL5cu3YhB4MSSBbLRzJ4l+3DfIp2kM/TUSPOlpttHOpo9d9vnz2C+2EH75ffFs8891JcrSbd13ClPbqvnH9Nv/W/F+oqv6d9I5mK9hs1Uml7Dxu6R5im+kx5+90QhRIm+D8a9lTrPcDvk926drHJ4bZW+8Trb74dGi1Up2uv+LPbbacfNHofHiCAAAIIIIAAAggggEDtBer9oCKurqHlkivWfhVYYq0EdNJ47ukLujFoudvvNqzR4qdHiRTthLP7qt3y80x7f0Y4aVcDgIaj/O+LrzpLEnnYIfu5P/pcF4rKmDVrdnhNqW4i+QWWuBMn46yP+z74+dUlYcz5l4cuGiVeHk441d1EXQ80bKg1YOziIwwWpbzsG2SO//UZoftHseWo8WA3HymgXBDq0qB/Srj525OODSfspZ4rlkeh3LKKzV+sPpq2TdRV58lnXsg34vzQN2gsvfRSPu/HB/mX9vaREFbW8Y1Oqv+706bbpJre2nI38Pullfj9Z8z09apb8N2lRpBSpVb7xArLtw9vsWbvXr6haY1Sb8d0BBBAAAEEEEAAAQQQqKFARrHWRFzUULQVL6q+vj4kGtRJr/0rXJ34hPij3JCQSrBppWMuIkKRBypPPP28m+wTVnbxIzEMynXBeMxHN6irgcrAzcp3EwkzNfHPhNvuyjdajBi2t/v5MT8JV+3jxWyw/rqhTpp24y3/DEkddV/dXBa2aKSKkUf+MjRaKInkz4461HdL2abR4tr4hKCjf3Wc+8uY0/LRGMotcdXfb/ZJKUs/12ghuQdNnb/YMjSt7TILIlAmPfqkuz/XnWXnQduElyzfIXuyrgczPvgwTNMfa1iI94n8kzW40ym3L9n7aJEzZs7KL7lD+/auc8dsVIkmxo1q+Zlyd2q1Tyjh7E3XXOTOHH1C4VvwGAEEEEAAAQQQQAABBJpJIKMr1/qPgkA1Aj17rJqf7Z77H/bDSjY43VpREkmVLTYdEG4V0aCwfiW8VBcMNWAoR4FG3FC3j7XWXNB1IrygBn+Uh0NFjQdHH3Gg0zCWGr0jLuoysdfgncKkCy/N5m9Qbovl2i0bz9ak+2/7vB3WpeL/Ru4fujUM3GLjRsv45JNPnZI7qtvD+eee6izC4ykf6VDuuUYLyT2oNH/9EvVhTo2sopFXypVdc10ebrz5zpBXQttGXXNUukddOZTLRMtSZImSsqr0Xr1XuI2/RZQ4VFEOM/x2rlTUYGbFonP0WHkuVPQ+SqL61VdfOY1CYkURP5ZMVNPuvu+h0NXliy+/dJ/6Li9xqdU+8caUt92Jp5wVcm0o6SwFAQQQQAABBBBAAAEEml+gPuS48HkuKAhUI6CuHcoXoSSbGmVCSRvtZF3TrevHKiuv5IcV7REaKbTc/rlwf+WquP3Oe8Jb7eyTZMZdPqp5/2rmURcKJcRUo8np51zgXvWjnai+hUXvf9FlV+cn77rTonUT6b5Kt9AYo4SSGnXivocmu5tuuTO/fN25xg/9edm48cFm5W5dw3Ckmq7uIuWe0zyFpdL8vXKNSNo+m2+3V4g6uXPCX4s2zvTPRaCoQUlFiS8tkWfXFTs7dRvRdpOr/sVl2D67h4fqamRl2MHHhru2b9j0YrdyszLs4GNCPc889YSQ+FUNKSrDD8kuz+ZTfbr6RjAVJUS994GHQ4JYNawUK7XaJxS5ocSl+jdkj13cRhuuX+ztmIYAAggggAACCCCAAAI1FMiEHBdRP/EaLptFtTIBH35TssZLZDLhuSWXrA+RAnaSaiemeqwIAnVfsLL9tlvaXbe+T5qoohNIKzpZr6Zkcu9dal47wbbnB203MIyUocdqOPjcn7grUWdhWdWfMFt9lGxReTkWpShy4KjDR4QTb406ofdWzoq4rLlGL7dm79VCg466iOh9dRI+3CedLPecllGYWLPS/HvvuYuLR0hp166ts+0Y18mWvdcPd8xPlmFcfn70yHxCU5uuqAx1ebEoGyUZjZORLrVUG3fk4Qfa7CVvB/jIjgOH7x0sbCZ1X9FytXxLyGrP7b7bIKf6WFF+EA3bakUNaBqJJi612ie0jirabr39tqQggAACCCCAAAIIIIBA8wvUvTl1ZhhXpGe37NXL5n9L3uG7IjBnzqdu5oezXJfOnVyHDsslbrWUj+Gr/81ziv4oPOlXZdXNZYQfSlWRGUN/tJsfSvPwmqyDuki8/sZbTg0jGtqzWNHoHdPenxmGTS1seCn3XFOXpfnnzv3CKbKqVF1smWMvGufGXX2j0ygtN197sU1udPvll/8LyVbb+S416vpTLGJG3UNkoKFWiz3faIHRA3W9+Ozzz0N+lWhyqLuG0JWLtqUShhYr6iLy2WdzwwgtxZ7XtFrsE7M++ti189tVDTMUBBBAAAEEEEAAAQQQaH6Bujff+cDn5mxwPbot/BCQzV9N3gGB2gl84odIvX7CHe7Z518Ko2JoyRP8ibpFDtTunVrHkq6+7pYQAaJRVlRO/fUot+sijq7SOtZ8QS3ZJxZYcA8BBBBAAAEEEEAAgaQJ1KvRQldjKQikRWD27DnOEnJqnY/wiTTT2mih9VeUhfJyqKiLxS650UTChJT8YZ9IyYZmNRFAAAEEEEAAAQRapYCPuPBdRXy7RU8iLlrlBqTSTRfQqBiTH3vKfThrthvQf71GI1M0fWmt/xVPPPWcm/L2Oz7Hxmo+F8navltNNp9J61+z6teAfaJ6K+ZEAAEEEEAAAQQQQKClBbI5LnzLRc+VyXHR0vi8HwIIIIAAAggggAACCCCAAAIIlBeoD6OK6A8FAQQQQAABBBBAAAEEEEAAAQQQSJhAxvluIuS4SNhWoToIIIAAAggggAACCCCAAAIIIBAEQsSFI+KC3QEBBBBAAAEEEEAAAQQQQAABBBIoECIuNLIIBQEEEEAAAQQQQAABBBBAAAEEEEiaABEXSdsi1AcBBBBAAAEEEEAAAQQQQAABBPICRFzkKbiDAAIIIIAAAggggAACCCCAAAJJE8iECjGoSNK2C/VBAAEEEEAAAQQQQAABBBBAAAEvkG24IMUFOwMCCCCAAAIIIIAAAggggAACCCRQIBdxQchFArcNVUIAAQQQQAABBBBAAAEEEEAg9QKZEGzBqCKp3xEAQAABBBBAAAEEEEAAAQQQQCCJApkQa0HARRK3DXVCAAEEEEAAAQQQQAABBBBAIPUC5LhI/S4AAAIIIIAAAggggAACCCCAAALJFSDHRXK3DTVDAAEEEEAAAQQQQAABBBBAIPUC5LhI/S4AAAIIIIAAAggggAACCCCAAALJFcjmuEhu/agZAggggAACCCCAAAIIIIAAAgikWCAbcZFiAFYdAQQQQAABBBBAAAEEEEAAAQSSK8CoIsndNtQMAQQQQAABBBBAAAEEEEAAgdQLhIiLhobUOwCAAAIIIIAAAggggAACCCCAAAIJFKivS2ClqBICCCCAAAIIIIAAAggggAACCCAgAXJcsB8ggAACCCCAAAIIIIAAAggggEBiBRhVJLGbhoohgAACCCCAAAIIIIAAAggggEA2xwUOCCCAAAIIIIAAAggggAACCCCAQAIFyHGRwI1ClRBAAAEEEEAAAQQQQAABBBBAICtAxAV7AgIIIIAAAggggAACCCCAAAIIJFaAiIvEbhoqhgACCCCAAAIIIIAAAggggAACmYYG5/z/FAQQQAABBBBAAAEEEEAAAQQQQCBxAhlX5/Q/BQEEEEAAAQQQQAABBBBAAAEEEEicQEY1IuIicduFCiGAAAIIIIAAAggggAACCCCAgBcgxwW7AQIIIIAAAggggAACCCCAAAIIJFbA57hoIOIisZuHiiGAAAIIIIAAAggggAACCCCQbgGf46KOHBfp3gdYewQQQAABBBBAAAEEEEAAAQQSK5BRuAU5LhK7fagYAggggAACCCCAAAIIIIAAAqkWYFSRVG9+Vh4BBBBAAAEEEEAAAQQQQACBZAv4iAtyXCR7E1E7BBBAAAEEEEAAAQQQQAABBNIrEHJcpHf1WXMEEEAAAQQQQAABBBBAAAEEEEiyQIi4SHIFqRsCCCCAAAIIIIAAAggggAACCKRXgFFF0rvtWXMEEEAAAQQQQAABBBBAAAEEEi+QzXHBsCKJ31BUEAEEEEAAAQQQQAABBBBAAIE0CmRzXNSlcdVZZwQQQAABBBBAAAEEEEAAAQQQSLpANscFERdJ307UDwEEEEAAAQQQQAABBBBAAIFUChBxkcrNzkojgAACCCCAAAIIIIAAAggg0DoEiLhoHduJWiKAAAIIIIAAAggggAACCCCQSgEiLlK52VlpBBBAAAEEEEAAAQQQQAABBFqHABEXrWM7UUsEEEAAAQQQQAABBBBAAAEEUilAxEUqNzsrjQACCCCAAAIIIIAAAggggEDrEMg0NPghRfSPggACCCCAAAIIIIAAAggggAACCCRMIFPn6pyr8/8oCCCAAAIIIIAAAggggAACCCCAQMIEMg1OERcJqxXVQQABBBBAAAEEEEAAAQQQQAABBLxApk7RFgRcsDMggAACCCCAAAIIIIAAAggggEACBchxkcCNQpUQQAABBBBAAAEEEEAAAQQQQCArQI4L9gQEEEAAAQQQQAABBBBAAAEEEEisQC7HBUkuEruFqBgCCCCAAAIIIIAAAggggAACKRYg4iLFG59VRwABBBBAAAEEEEAAAQQQQCDpAkRcJH0LUT8EEEAAAQQQQAABBBBAAAEEUiyQjbhgWJEU7wKsOgIIIIAAAggggAACCCCAAALJFchGXDhyXCR3E1EzBBBAAAEEEEAAAQQQQAABBNIrQI6L9G571hwBBBBAAAEEEEAAAQQQQACBxAuQ4yLxm4gKIoAAAggggAACCCCAAAIIIJBeAXJcpHfbs+YIIIAAAggggAACCCCAAAIIJF6AHBeJ30RUEAEEEEAAAQQQQAABBBBAAIH0CmSyq16XXgHWHAEEEEAAAQQQQAABBBBAAAEEEiuQa7hgVJHEbiEqhgACCCCAAAIIIIAAAggggECKBchxkeKNz6ojgAACCCCAAAIIIIAAAgggkHQBclwkfQtRPwQQQAABBBBAAAEEEEAAAQRSLECOixRvfFYdAQQQQAABBBBAAAEEEEAAgaQLkOMi6VuI+iGAAAIIIIAAAggggAACCCCQYoF65xhRJMXbn1VHAAEEEEAAAQQQQAABBBBAINECGdegEUUYVSTRW4nKIYAAAggggAACCCCAAAIIIJBSgUw24IKoi5Ruf1YbAQQQQAABBBBAAAEEEEAAgUQLkOMi0ZuHyiGAAAIIIIAAAggggAACCCCQbgFGFUn39mftEUAAAQQQQAABBBBAAAEEEEi0gM9xofqR4yLRW4nKIYAAAggggAACCCCAAAIIIJBSAXJcpHTDs9oIIIAAAggggAACCCCAAAIItAYBIi5aw1aijggggAACCCCAAAIIIIAAAgikVICIi5RueFYbAQQQQAABBBBAAAEEEEAAgdYgkI24aCDHRWvYWNQRAQQQQAABBBBAAAEEEEAAgbQJ1Lu6tK0y64sAAggggAACCCCAAAIIIIAAAq1FIJfjorVUl3oigAACCCCAAAIIIIAAAggggECaBMhxkaatzboigAACCCCAAAIIIIAAAggg0MoEMiG9BTkuWtlmo7oIIIAAAggggAACCCCAAAIIpEOgvo4cF+nY0qwlAggggAACCCCAAAIIIIAAAq1QIDeqSCusOVVGAAEEEEAAAQQQQAABBBBAAIHvvEBuVBHCLr7zW5oVRAABBBBAAAEEEEAAAQQQQKAVCpDjohVuNKqMAAIIIIAAAggggAACCCCAQFoEyHGRli3NeiKAAAIIIIAAAggggAACCCDQCgVyERetsOZUGQEEEEAAAQQQQAABBBBAAAEEvvMCRFx85zcxK4gAAggggAACCCCAAAIIIIBA6xWob2jwldc/CgIIIIAAAggggAACCCCAAAIIIJAwgfowngiDiiRss1AdBBBAAAEEEEAAAQQQQAABBBCQQH0ItiDigr0BAQQQQAABBBBAAAEEEEAAAQQSKECOiwRuFKqEAAIIIIAAAggggAACCCCAAAJZAXJcsCcggAACCCCAAAIIIIAAAggggEBiBchxkdhNQ8UQQAABBBBAAAEEEEAAAQQQQIAcF+wDCCCAAAIIIIAAAggggAACCCCQWAEiLhK7aagYAggggAACCCCAAAIIIIAAAgj4iAs/pAijirAnIIAAAggggAACCCCAAAIIIIBAAgUyztW5uroE1owqIYAAAggggAACCCCAAAIIIIBA6gV8w4UPuCDiIvU7AgAIIIAAAggggAACCCCAAAIIJFGAHBdJ3CrUCQEEEEAAAQQQQAABBBBAAAEEggA5LtgREEAAAQQQQAABBBBAAAEEEEAgsQLZHBeJrR4VQwABBBBAAAEEEEAAAQQQQACBNAv4hoswrkiaDVh3BBBAAAEEEEAAAQQQQAABBBBIqAARFwndMFQLAQQQQAABBBBAAAEEEEAAAQScI+KCvQABBBBAAAEEEEAAAQQQQAABBBIrECIuEls7KoYAAggggAACCCCAAAIIIIAAAqkWCBEXqRZg5RFAAAEEEEAAAQQQQAABBBBAILEC9c7V+f8aEltBKrZ4BBoa2CcWjzzvigACCCCAAAIIIIAAAnV1dSAgkBeod/4ElVPUvEeq71hjhd1+8803qfZg5RFAAAEEEEAAAQQQQKDlBTKZjD9NbXDWeGG3LV8T3jEpAvV+b/AjotJ0kZQNsjjqkW+o8PvBm+/NdXdO+tg9+/pcN/3DeYujOrwnAggggAACCCCAAAIIpFigW+clXb/ebd0umy/vVl+lrUaUCIUGjPTuFP8PSEivBpDrvi8AAAAASUVORK5CYII=;" parent="1" vertex="1">
          <mxGeometry width="928.16" height="275" as="geometry" />
        </mxCell>
        <mxCell id="RAb3Ar-sFwlH_cfJhrFY-4" value="&lt;span style=&quot;font-size: 13px;&quot;&gt;&lt;font style=&quot;&quot; face=&quot;Verdana&quot; color=&quot;#0000ff&quot;&gt;qbusinesness-webexperience-title-color&lt;/font&gt;&lt;/span&gt;" style="text;html=1;strokeColor=none;fillColor=none;align=left;verticalAlign=middle;whiteSpace=wrap;rounded=0;fontSize=13;container=0;" parent="1" vertex="1">
          <mxGeometry x="450" y="65" width="270" height="30" as="geometry" />
        </mxCell>
        <mxCell id="RAb3Ar-sFwlH_cfJhrFY-7" value="&lt;span style=&quot;font-size: 13px;&quot;&gt;&lt;font style=&quot;&quot; face=&quot;Verdana&quot; color=&quot;#00994d&quot;&gt;title&lt;/font&gt;&lt;/span&gt;" style="text;html=1;strokeColor=none;fillColor=none;align=left;verticalAlign=middle;whiteSpace=wrap;rounded=0;fontSize=13;fontColor=#000000;container=0;" parent="1" vertex="1">
          <mxGeometry x="450" y="32" width="54" height="30" as="geometry" />
        </mxCell>
        <mxCell id="RAb3Ar-sFwlH_cfJhrFY-10" value="" style="rounded=1;whiteSpace=wrap;html=1;strokeWidth=1;dashed=1;fillColor=none;container=0;" parent="1" vertex="1">
          <mxGeometry x="104" y="10" width="56" height="50" as="geometry" />
        </mxCell>
        <mxCell id="RAb3Ar-sFwlH_cfJhrFY-15" value="&lt;span style=&quot;border-color: rgb(218, 220, 224);&quot;&gt;&lt;font face=&quot;Verdana&quot; style=&quot;border-color: rgb(218, 220, 224);&quot; color=&quot;#0000ff&quot;&gt;qbusinesness-webexperience-logo-url&lt;/font&gt;&lt;/span&gt;" style="text;html=1;strokeColor=none;fillColor=none;align=left;verticalAlign=middle;whiteSpace=wrap;rounded=0;fontSize=13;fontColor=#000000;container=0;" parent="1" vertex="1">
          <mxGeometry x="450" width="254" height="30" as="geometry" />
        </mxCell>
        <mxCell id="RAb3Ar-sFwlH_cfJhrFY-46" style="edgeStyle=orthogonalEdgeStyle;rounded=0;orthogonalLoop=1;jettySize=auto;html=1;entryX=0;entryY=0.5;entryDx=0;entryDy=0;" parent="1" source="RAb3Ar-sFwlH_cfJhrFY-18" target="RAb3Ar-sFwlH_cfJhrFY-19" edge="1">
          <mxGeometry relative="1" as="geometry" />
        </mxCell>
        <mxCell id="RAb3Ar-sFwlH_cfJhrFY-18" value="" style="rounded=1;whiteSpace=wrap;html=1;strokeWidth=1;dashed=1;fillColor=none;container=0;" parent="1" vertex="1">
          <mxGeometry x="104" y="100" width="426" height="24" as="geometry" />
        </mxCell>
        <mxCell id="RAb3Ar-sFwlH_cfJhrFY-19" value="&lt;span style=&quot;font-size: 13px;&quot;&gt;&lt;font style=&quot;&quot; face=&quot;Verdana&quot; color=&quot;#00994d&quot;&gt;subtitle&lt;/font&gt;&lt;/span&gt;" style="text;html=1;strokeColor=none;fillColor=none;align=left;verticalAlign=middle;whiteSpace=wrap;rounded=0;fontSize=13;fontColor=#000000;container=0;" parent="1" vertex="1">
          <mxGeometry x="590" y="97" width="54" height="30" as="geometry" />
        </mxCell>
        <mxCell id="RAb3Ar-sFwlH_cfJhrFY-21" value="" style="rounded=1;whiteSpace=wrap;html=1;strokeWidth=1;dashed=1;fillColor=none;container=0;" parent="1" vertex="1">
          <mxGeometry x="100" y="140" width="720" height="50" as="geometry" />
        </mxCell>
        <mxCell id="RAb3Ar-sFwlH_cfJhrFY-22" value="&lt;font style=&quot;&quot; face=&quot;Verdana&quot; color=&quot;#00994d&quot;&gt;welcome-message&lt;/font&gt;" style="text;html=1;strokeColor=none;fillColor=none;align=center;verticalAlign=middle;whiteSpace=wrap;rounded=0;fontSize=13;fontColor=#000000;container=0;" parent="1" vertex="1">
          <mxGeometry x="384" y="237" width="152" height="30" as="geometry" />
        </mxCell>
        <mxCell id="RAb3Ar-sFwlH_cfJhrFY-60" style="edgeStyle=orthogonalEdgeStyle;rounded=0;orthogonalLoop=1;jettySize=auto;html=1;exitX=0.1;exitY=0.5;exitDx=0;exitDy=0;exitPerimeter=0;entryX=0.5;entryY=0;entryDx=0;entryDy=0;" parent="1" source="RAb3Ar-sFwlH_cfJhrFY-23" target="RAb3Ar-sFwlH_cfJhrFY-22" edge="1">
          <mxGeometry relative="1" as="geometry" />
        </mxCell>
        <mxCell id="RAb3Ar-sFwlH_cfJhrFY-23" value="" style="shape=curlyBracket;whiteSpace=wrap;html=1;rounded=1;labelPosition=left;verticalLabelPosition=middle;align=right;verticalAlign=middle;size=0.5;direction=north;container=0;" parent="1" vertex="1">
          <mxGeometry x="155" y="193" width="610" height="20" as="geometry" />
        </mxCell>
        <mxCell id="RAb3Ar-sFwlH_cfJhrFY-37" value="" style="endArrow=classic;startArrow=classic;html=1;rounded=0;entryX=0;entryY=0.5;entryDx=0;entryDy=0;exitX=1;exitY=0.5;exitDx=0;exitDy=0;" parent="1" source="RAb3Ar-sFwlH_cfJhrFY-10" target="RAb3Ar-sFwlH_cfJhrFY-15" edge="1">
          <mxGeometry width="50" height="50" relative="1" as="geometry">
            <mxPoint x="150" y="62" as="sourcePoint" />
            <mxPoint x="200" y="12" as="targetPoint" />
            <Array as="points">
              <mxPoint x="230" y="15" />
            </Array>
          </mxGeometry>
        </mxCell>
        <mxCell id="RAb3Ar-sFwlH_cfJhrFY-45" style="edgeStyle=orthogonalEdgeStyle;rounded=0;orthogonalLoop=1;jettySize=auto;html=1;entryX=0;entryY=0.5;entryDx=0;entryDy=0;exitX=0.5;exitY=0;exitDx=0;exitDy=0;" parent="1" source="RAb3Ar-sFwlH_cfJhrFY-3" target="RAb3Ar-sFwlH_cfJhrFY-7" edge="1">
          <mxGeometry relative="1" as="geometry">
            <Array as="points">
              <mxPoint x="231" y="47" />
            </Array>
          </mxGeometry>
        </mxCell>
        <mxCell id="RAb3Ar-sFwlH_cfJhrFY-75" style="edgeStyle=orthogonalEdgeStyle;rounded=0;orthogonalLoop=1;jettySize=auto;html=1;entryX=0;entryY=0.5;entryDx=0;entryDy=0;" parent="1" source="RAb3Ar-sFwlH_cfJhrFY-3" target="RAb3Ar-sFwlH_cfJhrFY-4" edge="1">
          <mxGeometry relative="1" as="geometry" />
        </mxCell>
        <mxCell id="RAb3Ar-sFwlH_cfJhrFY-3" value="" style="rounded=1;whiteSpace=wrap;html=1;strokeWidth=1;dashed=1;fillColor=none;container=0;" parent="1" vertex="1">
          <mxGeometry x="104" y="65" width="250" height="31" as="geometry" />
        </mxCell>
        <mxCell id="RAb3Ar-sFwlH_cfJhrFY-48" value="" style="shape=image;verticalLabelPosition=bottom;labelBackgroundColor=default;verticalAlign=top;aspect=fixed;imageAspect=0;image=data:image/png,iVBORw0KGgoAAAANSUhEUgAABC4AAAGGCAYAAAC0WMCCAAABYGlDQ1BJQ0MgUHJvZmlsZQAAKJF1kL9LQlEUx7+W9SAdChocGh7REljIS2lospdUYCBm9GN7Xp/PQJ+X54toKmhqjaj/INobbChyyDWCoKCpsYZoKN5S9jpXK7XoXr58P3w553LuATr8Gud5L4CCaVvJ6Ul5aXlFlh4hoRs+DGJCYyUeTSTiVIJvbz/ODTzCr0fEW9LTZXb7ee6jsvt6EKiep/7Wt52ejF5i5O+kMOOWDXhCxIl1mwveIu63aCjiPcFGg48Epxt8Wq9JJVXiK+JeltMyxPfEwXRLbrRwIb/GvmYQ0/t1c2GePEAawBRiiNOVoUJBmKRgBrF/esL1HhVFcGzAwioM5GBTd5QSjjx04lmYYBhFkFhBiBQRu/69w2ZWHAcixwSbzYwZwMkOfbfazIaoru8COHvgmqX9bNbjeEvZMaXBvjLQte+6L4uANAzUbl33rey6tUOg8w6oOJ9j3GY8gr4iNwAAAFZlWElmTU0AKgAAAAgAAYdpAAQAAAABAAAAGgAAAAAAA5KGAAcAAAASAAAARKACAAQAAAABAAAELqADAAQAAAABAAABhgAAAABBU0NJSQAAAFNjcmVlbnNob3S/zLysAAAB12lUWHRYTUw6Y29tLmFkb2JlLnhtcAAAAAAAPHg6eG1wbWV0YSB4bWxuczp4PSJhZG9iZTpuczptZXRhLyIgeDp4bXB0az0iWE1QIENvcmUgNi4wLjAiPgogICA8cmRmOlJERiB4bWxuczpyZGY9Imh0dHA6Ly93d3cudzMub3JnLzE5OTkvMDIvMjItcmRmLXN5bnRheC1ucyMiPgogICAgICA8cmRmOkRlc2NyaXB0aW9uIHJkZjphYm91dD0iIgogICAgICAgICAgICB4bWxuczpleGlmPSJodHRwOi8vbnMuYWRvYmUuY29tL2V4aWYvMS4wLyI+CiAgICAgICAgIDxleGlmOlBpeGVsWURpbWVuc2lvbj4zOTA8L2V4aWY6UGl4ZWxZRGltZW5zaW9uPgogICAgICAgICA8ZXhpZjpQaXhlbFhEaW1lbnNpb24+MTA3MDwvZXhpZjpQaXhlbFhEaW1lbnNpb24+CiAgICAgICAgIDxleGlmOlVzZXJDb21tZW50PlNjcmVlbnNob3Q8L2V4aWY6VXNlckNvbW1lbnQ+CiAgICAgIDwvcmRmOkRlc2NyaXB0aW9uPgogICA8L3JkZjpSREY+CjwveDp4bXBtZXRhPgqA+9h8AABAAElEQVR4AeydBYBVxffHzwYNgoCYWGB3dyt2t6KiYvEXO7C7E8XEQhAVLMTCxu782YkiDQLSsLv/+c5jLncf7+17b9l4u/s5utx7586d+Mzc++6ce+ZMwcgxE8uszGyp9m0MgQAEIAABCEAAAhCAAAQgAAEIQAAC+USgUEoLr7nIp1JRFghAAAIQgAAEIAABCEAAAhCAAAQg4AgUWkGB6T8EAhCAAAQgAAEIQAACEIAABCAAAQjkGwFnceHsLdwfAgEIQAACEIAABCAAAQhAAAIQgAAE8o1AsYwtsLjIt2ahPBCAAAQgAAEIQAACEIAABCAAAQiIQMLHBRYX9AYIQAACEIAABCAAAQhAAAIQgAAE8pCAs7jA3iIP24UiQQACEIAABCAAAQhAAAIQgAAEIOAIFAcfF7PnzrHSkhIrLS21kpJSty3z+6VlpR5U8IMRttCDAAQgAAEIQAACEIAABCAAAQhAAAKVJVDgDCkkYVtYUGiFhforsKKi+ftFRU5xkYjl/VwUuoAgBQWlLrKOi7zzThQWgQxbCEAAAhCAAAQgAAEIQAACEIAABKqKgBQXQXkhXUZCeeEUF05HoTkiCcWF83GhE7K28CdcTB1LpLBI/FVVkUgHAhCAAAQgAAEIQAACEIAABCAAAQgkCEhZUV554dQVTichpYV0E35VEb+uyHythldSFBV4JYaMNoKlRdgCFgIQgAAEIAABCEAAAhCAAAQgAAEIVBWBBdYWBVbmEpWyQkqLhDLD+7hwoc6qIhFRUfxpp91wFyg8YXgRKTCqqmCkAwEIQAACEIAABCAAAQhAAAIQgAAEguJCWovCpGkjOhf5uBCqBcoLfzT/OGF1ESUEUwhAAAIQgAAEIAABCEAAAhCAAAQgUIUEvM5B0z6caOpIYpvYiXxcKJK3sAgxvIFG+ciJI/6FAAQgAAEIQAACEIAABCAAAQhAAALVQyBuOKH9FBYX1ZMxqUIAAhCAAAQgAAEIQAACEIAABCAAgUwE4ooLxS2WV4vg4yLugDM5oqIhEIAABCAAAQhAAAIQgAAEIAABCECgpgh4iwu/ckjS/JG4AqOmCkM+EIAABCAAAQhAAAIQgAAEIAABCEBABOLGFPN9XJQHE49Q/gxHEIAABCAAAQhAAAIQgAAEIAABCECg5ggkFjuNHHLWXMbkBAEIQAACEIAABCAAAQhAAAIQgAAEMhEoDD4uMkXkPAQgAAEIQAACEIAABCAAAQhAAAIQqGkChfPdW9R0vuQHAQhAAAIQgAAEIAABCEAAAhCAAAQyEkhYXGSMRgQIQAACEIAABCAAAQhAAAIQgAAEIFDzBLC4qHnm5AgBCEAAAhCAAAQgAAEIQAACEIBAlgSwuMgSFNEgAAEIQAACEIAABCAAAQhAAAIQqHkCWFzUPHNyhAAEIAABCEAAAhCAAAQgAAEIQCBLAt7iwq8skuUFRIMABCAAAQhAAAIQgAAEIAABCEAAAjVFoJhVRWoKNflAAAIQgAAEIAABCEAAAhCAAAQgkCsBfFzkSoz4EIAABCAAAQhAAAIQgAAEIAABCNQYAXxc1BhqMoIABCAAAQhAAAIQgAAEIAABCEAgVwKFZc7BBT4ucsVGfAhAAAIQgAAEIAABCEAAAhCAAARqgkBhgXNygZ+LmkBNHhCAAAQgAAEIQAACEIAABCAAAQjkSoBVRXIlRnwIQAACEIAABCAAAQhAAAIQgAAEaowAq4rUGGoyggAEIAABCEAAAhCAAAQgAAEIQCBXAvi4yJUY8SEAAQhAAAIQgAAEIAABCEAAAhCoMQLFcnBRgHfOGgNeVzOaW1pmM+YV2uySApvrPLrOK8U3Sl1tS8oNAQhAAAIQgAAEIACB2iSg4WdxoVkj53CxSVGZNS8utUasd1mbTZL3eRdrSRH0FnnfTrVWwHmuc0yeU2Az5gYXroneEo5qrWBkDAEIQAACEIAABCAAAQjUSQIaS5S4D6ElbiQ6q8RsypxCp7woszZNnEKDgUadbNPqLnSxVhVBc1HdmOtm+tOcsmLibCwr6mbrUWoIQAACEIAABCAAAQjUHQIz5hXY9Hlm7ZzyomUjPq3XnZarmZI6Hxdl6C1qhnWdymWKs7KYhNKiTrUZhYUABCAAAQhAAAIQgEBdJqBv6hqDaCyCQCBOoNCcyQXdIo6EfVlaTJkDBwhAAAIQgAAEIAABCEAAAjVPQGMRjUkQCAQChTK3wBAn4GArnxaaHoJAAAIQgAAEIAABCEAAAhCoLQIak2hsgkBABJzFBT4M6AoLCExmesgCGOxBAAIQgAAEIAABCEAAArVCQPYWWiQAgYAIOIsL5+MCTRa9wRFILHnKw4HOAAEIQAACEIAABCAAAQjUPoEZcxNjlNovCSWobQLexwVOLmq7GfIj/xnz3GLKCAQgAAEIQAACEIAABCAAgTwhwBglTxqilovhfVzUchnIPk8IzC7B2iJPmoJiQAACEIAABCAAAQhAAAKOAGMUuoEI4OOCfhARmMucoYgFOxCAAAQgAAEIQAACEIBA7RNgjFL7bZAPJcDHRT60Qp6UYV5pnhSEYkAAAhCAAAQgAAEIQAACEHAEGKPQDUQAHxf0g4gAE0UiFOxAAAIQgAAEIAABCEAAAnlAgDFKHjRCHhTBW1wYq4rkQVNQBAhAAAIQgAAEIAABCEAAAhCAAASSCWBxkUyEYwhAAAIQgAAEIAABCEAAAhCAAATyhgAWF3nTFBQEAhCAAAQgAAEIQAACEIAABCAAgWQCWFwkE+EYAhCAAAQgAAEIQAACEIAABCAAgbwhgMVF3jQFBYEABCAAAQhAAAIQgAAEIAABCEAgmQAWF8lEOIYABCAAAQhAAAIQgAAEIAABCEAgbwgUlpW5JUX0h0AAAhCAAAQgAAEIQAACEIAABCAAgTwjUFhgbmXcAlbHzbN2oTgQgAAEIAABCEAAAhCAAAQgAAEIOAKFZSaLC1hAAAIQgAAEIAABCEAAAhCAAAQgAIH8IzDf4iL/CkaJIAABCEAAAhCAAAQgAAEIQAACEIDAfIsLTC7oChCAAAQgAAEIQAACEIAABCAAAQjkHwF8XORfm1AiCEAAAhCAAAQgAAEIQAACEIAABOYTwMcFXQECEIAABCAAAQhAAAIQgAAEIACBvCWAj4u8bRoKBgEIQAACEIAABCAAAQhAAAIQgECxVhUpK8PHBV0h/wk88+yr9tsff9vSSy1hXY/Yp0YK/OVXP9hLrwy3TTZex7rsvFWV5fnp59/a28M/8emd0fMYa9SouMrSrqmERo8ebwOfGGpt2ixmxx5zgBUWFi5S1lXdvj/+9Lu9/8EX9vkX31nLls3tpBMOs04rd6x0GW+/o5/NnTfPNt90Pdtm640rnU78wlDnZZdZ0o44bK/4qZz3J0+eahMnTbFWrZpb+3ZtXXuwzHXOELkAAhCAAAQgAAEIQCAvCRQXGC+3edky9bBQPXpeYV98+Z2v2euvPOIHkzq49/7H7dff/vLhl1/SMwo/5/wb7L33P/fhw98YYB989KU/XnutVRZZcfH3yNE2ZswE69Chna2w/DI+j1T/9H1wkC/z0BfetJ133CLnwXlJSYm7/nuf9IYbrGlFRUV+/zdX36efGeb3e/boWicVFy8Pe8cGP/2Kr8OWW2xga6zeySZP+c9++eVPa9asqamdcpGqbN/ffv/buh3fq1z2++y1Y4WKizPPuc4+dH1McsWlPW3XLtuUu/6JQS/649aLtawyxUWo8/rrrVFpxcWvv42wy6/qY7/+OiIq70orLmfXXXO2rbjCslEYOxCAAAQgAAEIQAACEKirBLyPC1ldIBCobgIbb7R2lMXvznIiyKCnXvEKCSkpfokNvsKAf911V7MmTRqH6FWyfXTAEOt5xlX2wktvVZjekYfvbWus0clOO/XonJUWSnjcuEk+H+U1Y+asCvOqayd32XlLU5vusft2tuoqK/rif/TRV76+N936QK1W5/Mv/hflf/edl9kbw/rZppusG4Ul78haISgtdO61Nz5IjpK3x/+MGhcpLZo3b+bL+cefI+3mWx/M2zJTMAhAAAIQgAAEIAABCORCAIuLXGgRd5EIyOIgyM/uq/y666xmY8ZOsBkzZoZg++nn322D9dewCRP+jcI322S96HzyTmlpWYUm8aWlpSkVDn//PTo5qZTHW225oekvlWiKVUFBxRZLo8eMS3VpyrBMddFF2cRJmXiawHR8kqOnyrfjcktbn96Xlov6z6ix5Y5THYSpaZnYpbo2OSxVuRRH/SfIhhusFXbTbt/7IGHZEyJIifbftOnWqmWLEJRxm4llNv0lUyap2HVYoq1d76wrtt1mE98/zr/wJj9F5rPPFyhvMqXLeQhAAAIQgAAEIAABCOQzgYSPCywu8rmN6k3Z1lyjc1SXn37+w+/HzdsV8P0Pv/nw335PTB3RQVzhoeNZs+fYoKdetmefe830ZXm7bTe17scdbKt0XkGn7Sk3BePNtz7y5/79d4qfDnLwgbvZ4Yfu5ZUhD/V72r76+gcfd9ir75mUKCuv1NFOd1YVyTJg4PMmfxQd2re1iy44xZ/W8SvD3rW33v7Y+3fYaMO1/NSV5Cknbw//2J4Y9FKU5PkX3GyNGhfbqad0jcK08+57n9ngZ16xb775yVt3HHPU/ra9q1MQDcLvuKu/ffrZt6b6yAJFZV1rzfRTMUaOHGMPPvKUfffdLz6ZzTdf345w9V/MTXN45NFn7eNPv7a//x7jecii5Kgj97Udt9/cx1W9nhv6ureiaNmiuQ0Z+qaNcgoJWSycf+4JJn8Mko8/+doGPvmC37/qstPt2SGv2YsvD/fHP/30h51+9jV+/9Ybe9mo0eNMVi5fO+5/zVca7bD9Zqa6rr7ayj5etv9Mcn4c+twzwFlIfOV5qPxq2+CDRNNXxD5IKMdZp3WzFdJMnQgWFrs4Pyavvf6+v1TphzRDWslbMXja+V6RP41x4yaaLB722nN7O7rrfs7PxOI+erb9RZGl/LjJWUqIl+Ss04/1irmK2GmKjv4kcjMihZJkmfnt5A/4BwIQgAAEIAABCEAAAnWYABYXdbjx6lrRGzduZJtttp59/PHX9sOPCQVFUGDI14QGfv+bP9CWMiFIXOGhMCk7br394XDahr/ziXcwe+N15/qwu+8dGFlrKEDp3nXPY25Q2dQ22nBte+LJhK+CcE7nZ8+a469N/keKEZV3+Y6JwaB8Y/Q8/aoomqxFNKiXVUay4uJNpwAIChJdEPx7HOMGtXG55PLe0eEPTnFz5dV32dYvbWTFxUU2bdoMO+rY8/wAPUSSguP4Ey+yl57va23btg7B0Vb+HY48+uzoWDtSFmyx2fp+MPvogOfKnVOeF158qw3od5N17rSCjR03wddZ9Y7LJ59+Y91PutieHdzHmjZt4q0aQpw5c+dav/7PleMezskqQk5O5SckLlKQfPX1j/b8M3c7Hx+N4qfS7ov3kcecU46Hyn+pYyilzqEH72GPu/ZVmwQJ5Zges+wJ57Sd4vxyhDh77LatjfxnjCnN1910kUyKC/n5eOfdT6PkVL5Bg192bCbbtVedabn0FyXycL9nvEJO+yccf4jvU887btmy+/6HX03xJV3cVB4EAhCAAAQgAAEIQAAC9YEAFhf1oRXrUB02c1/tNUiU8mG2s5zQQEuiFRW0aoMGnFOnTvNfsBWur/zJ/i30Vfv0nkebFBo33HS/V3Zo8DhvXokf7P/fKUfYMkt3sJWcFUWJCzvznGv9wP1rN+CXg8Z777rCTv6/y5S86Qv7gft3sRbOsiAbGf7OgkHqC0Pus8KCQhvx1z/RV+54Glppo+3irZ3VRUJRcouzPGjRoplzELm8t/IIcU/sfqht7RQfQ198yzu71OBXXDSVZvDTL/sB+eIunXv6XO5WjGhhXY8514e9+/5ntu/eO4Vkou3d9z4W7R/X7UDbcosNTT4c5LBRCodzzz7eWZgs7xw3LuMG1mPsxFMu8fG/++5Xr7iILnY7l11yqq226kp+MC1LBikHXnUWCeKYLLffcqFJaSRljb72X3pRDx9FDknlA+OSC3tYp07L21JuVZhX3IBf7a305KMhWyeS8oeiayTHH3uQZ6R0pGC6r++Ttufu29v1V59l/Zxy5o03P/Tx1N6SFZZP7agyOIBVHDnJ3Garjb3iQn1KiiOtSJJOZKWiKRqy2FHb9L7zUXv1tffso4+/8pfk0l9kvSFnsBJZoxx7zIF+P1t2UkiJv0T1kBIHgQAEIAABCEAAAhCAQH0g4BbMS/xXHypDHfKfwAbrrxkVUg469SVeoqkRGpxLZG3xw4+/+30tQ5osK6+0nB+wa2qIpokEmeeWqpQcuP+uttmm65tW9JCVxwbzfWv89990/2Vfg7rgxHCppdr7QV6YZhLSSrfVID7INdfda3+OGOmvb98+MS0gnNNWioKOHZeKgjTFQ3lrgBsXKW1WdelKiRJESh3JN9/+7Ley5vjTDc6//fanKE2tipIssm7QEqASWYFIKaLVPbbeaiOvMNDSpeKjsKmOx/Iu3TClYNr0GcnJ2Q7bbeYH5UoniFYNSSVStLRt28af0pKcqqv+tCynpoPsucf23nJFFg6bO+uPINNT5BvOJW+//uZHH6T2k0XCZm5p0sPnLyMqhc+fI/7xLJdZpkMUL5RDSqNU8vp8BYccjWo1lLgTz7jDzlTXSmkh5YXadNbM2a5eCX8sKosk2/4y4q9RdoGzepGo31x60f95bjrOlt0LTvElOcAp4uR7JNxPPpB/IAABCEAAAhCAAAQgUIcJYHFRhxuvLhZdX4816NTATl+6tdWxvsJLqfHmWx96Xw7B1D/Zv0VynRs1Kk4OspdeGe5WVHio3LSFhSJVMmD99Vb3q2i85Hw5aFCrPykIZE0gpcCiiJQsyfKPm7YgkRVDfNqJwlLVfdK/k3XKi3xvJIuUOb37POqnMySfq+hYA3MNhGXtMGHiAseXFV0TP6dlUi++9DZbVIeRgcd6664eJd9p5Y7Rvqa55LIMq6x7gnJCU4Zuue0hm+cYBZFSI65QCuFhq6lOUjiE/hrCwzbb/hKsSHTdaace5RUoIY1s2bV3flg0JUjKJk0zQiAAAQhAAAIQgAAEIFBfCPhRn2wuEAjUBAFNG5AVhfxSyBeBJCyTuvZanb3iQlMSgqy2am6OG3/77S/vI0LX77jDFn6FEiky5LOgKkS+GPQ1fNddtvaOKTXtRRYOAx4f6pxuHlkVWZRLo83ii/nBqAbjR7ilWeOyaucV44d+X840g+grfrIMef6NSGnR1TnkXMJZimiKRbAQSI4fjmUBEgbXyy67wIoknM+0vfHmB7zSQsoPTWGY63xiPPjwU5kuW+i8LDo0OA8KDEXQkrNBWi/WKuxmtX3/w4R1iiIrXf3FRf10+vSZfopPPFz7cqR5yqmXe3ZyENpl56297xZNFQmSbX8Jyjxdd5NTuvV78PrIMidbdpdfeqrNnDHLWdAkrE1CGdhCAAIQgAAEIAABCECgrhNwPujNrSlSVtfrQfnrEAH5uZCEwXJwvrnG6p3LhWt6Q65fjoNzTyV0yYWnmFYTiZvr+wxi//z112i/hGQsqMJdfaHXoFtTFHrfcpHttus2Pv5XX32f8rriogUWIaOcL4dcRdMGJL//MdLWXXs1Py1BUxO2cWzk0DRZ5MMihL/z7mf28/zVW+bOnefL/dX8qRYaaEvRcvCBu1doKTJx0mTv+PTNtz+KstJUnXQS2ksrloTpLoobfD7su/eO1u3o/W3vFD4yggWJGIdlP5PzWXm+dYUUDFrJY86cufZWbAWRjvOdqCZfl+5YDjglUqjIaib8HXjArtElH32S8FcRAmQBIVEZQh8++YTD3Mome/opOSGettn2F1kiBeeyst649Io7/FQnpZENO8Ub+PgLdm6vG+2TT7/VIQIBCEAAAhCAAAQgAIF6Q8CNqrC3qDetWUcqEnxOhOKusXrCqkKDt7jEfQ3EwyvaX3vtVaPTl115p1N8FHsrjihw/o7y0tQLfVHfebdu1rnz8nb/3QtWC0mOH47laPOhR572fgj0ZTvuTyLEiW+XW26BdcIxx53vp8Vcc+UZ8SgV7h9y0B4mKwkNkPfa7ySfr6Z7aNAsx5m777rtQtfLKegNN/X1FhJHuzzDFI9r3CoX8vcgiwBZoNxwc1+Tv4p00xyU8IGH9Iyu17H8YWyz9cbaTSlhZRWVd7uduvr6DnGrhmzhlmOVs0wtrSoLhuGxlThCQpr+oZVGVLeddu1mLz5/vzVzipi4yFrjGbf8qKTb8b3ip7wPjSVTKHPKRYodyOdJaL/ttt3EXx9OSzH1tFtWV/LGmx/ZTs56R4o0TW9S/qNHj7ebrj8vYnP3fQPtbdeXtERvXHLpL/KXIaWOlqvV9JV77nvcTu3RNSt2Y8aMj5zA9n9siJ++FC8H+xCAAAQgAAEIQAACEKjLBArdp00sLupyC9bBsmsFCQ2mgwSFhZwnBgsDnUv2b6FpJpLCIm8olNgvXLBfUFDgVuzo6J0T6qRWhdDX6rgDT3+R+0d+BDSIl2iQvXibBeXxgfP/KXRpxkWrYnR2TkG1ioUGvTLxl9PJww/dKx4t2lcdjuq6r48XAuUAMtRFYSq3JJ5XCFN9br4hoXxQHOWrgb3yTeUQVHG04sdppx4d5akpHorfdvE2tstOW0ZTczTIlhKhIp8Qcigapogo3g3XnmOtWiaci8bbQflKtELLTjtukThw/2pFjiLXRnJAqiVllZamAsnhpMoUl+2db4ZMyiopRnrfelG5/qM0ZMFx5mnd4sll3A+WDIq4xeYblIsvtrJKkcjvyqxZs+3QQ/Yo1z9lXdLj5CN8PX766Q+vtNhj9+3KpZOpv4R+UDi/H8vhaGAwYODzfknWbNgtsUTbyMlqKoe25QrFAQQgAAEIQAACEIAABOoYgYK/Rk3wM0WWWXLhVRHqWF0o7iIS+Gta+UH6IiZXq5drQD56zDi/BGaYgpCqQDL7b9G8qV9tJNX5dGFaJnO0+8qtaRNh8JkursI1VUOrZ1TWgaemTkyY8K9NcgP/1q1bed8UmfLVNRMnTrbSslJr53xDxOOPGz/R5sye6we7WvUjLrIS0BKjkrdf729z3Wotc+fMcyuGpFbuxK8N+1IGuewX8g2hVT+kzGjfLv3zRmylxArKm5BmfKu6jRs/yS9XuqyzfNEUmZqS5CVSZQEj3yry/ZFu5ZJc+0uqumRip3JMmjTFpMRAIAABCEAAAhCAQH0isHxLXBvUp/asTF284kKDgGWX5GW3MgDr0zX1SXFRn9qlpuuSrLioSaVATdeV/CAAAQhAAAIQgAAE8p8Aiov8b6PqLiE+LqqbMOlDAAIQgAAEIAABCEAAAhCAAAQgUGkCxfi4qDQ7LoRAvSSwg1u1pNPKy/u6NWnSuF7WkUpBAAIQgAAEIAABCEAAAnWHQLFbVMSth1p+jnvdKT4lhQAEqpqAVubIZXWOqs6f9CAAAQhAAAIQgAAEIAABCMQJuFVFdIizkzgU9iEAAQhAAAIQgAAEIAABCEAAAhDIDwKF3uIi8U9+lIhSQAACEIAABCAAAQhAAAIQgAAEIACB+QSwuKArQAACEIAABCAAAQhAAAIQgAAEIJC3BLC4yNumqfmCMWGo5pmTIwQgAAEIQAACEIAABCCQngBjlPRsGtIZLC4aUmtnqGtxYYYInIYABCAAAQhAAAIQgAAEIFCDBBij1CDsPM4Ki4s8bpyaLlqjAlaXqWnm5AcBCEAAAhCAAAQgAAEIpCfAGCU9m4Z0prBMtjf+n4ZUbeqaikCTIgyxUnEhDAIQgAAEIAABCEAAAhCoHQKMUWqHe77lWug/svOhPd/apVbK07y4tFbyJVMIQAACEIAABCAAAQhAAAKpCDBGSUWl4YUlfFzwob3htXyKGjcqLLDmjVKcIAgCEIAABCAAAQhAAAIQgEANE2heXGYaoyAQSPi4wLcBPWE+gTaNyww9Ft0BAhCAAAQgAAEIQAACEKhNAhqTtGlSmyUg73wigI+LfGqNPChLsVNotuMBkQctQREgAAEIQAACEIAABCDQcAloTKKxCQIBEcDHBf1gIQItG5VZ68YLBRMAAQhAAAIQgAAEIAABCECg2gloLKIxCQKBQGC+xUU4ZAuBBIHWbspIW6fl5HFBj4AABCAAAQhAAAIQgAAEaoKAxh4ag2gsgkAgTqBY7i3KDBucOBT2EwSk5WxabDZ5ttmMefQR+gUEIAABCEAAAhCAAAQgUD0EtEiA/O0xPaR6+Nb1VIvLnDKrTP8gEEhBQA+O9k3N5paWOuVFoc0uKbC5rr/McyunospIAYwgCEAAAhCAAAQgAAEIQKBCAhp9FheaNXJf0ZsUlZmWPGX1kAqRNfiTCYUWI9AG3xEyAdCDJGGyhZIrEyvOQwACEIAABCAAAQhAAALZEAhjCwak2dBqyHEKfVcJ/aUhk6DuEIAABCAAAQhAAAIQgAAEIAABCOQdAVYVybsmoUAQgAAEIAABCEAAAhCAAAQgAAEIBAJ+VRFcXAQcbCEAAQhAAAIQgAAEIAABCEAAAhDIJwL4uMin1qAsEIAABCAAAQhAAAIQgAAEIAABCJQj4H1cYHFRjgkHEIAABCAAAQhAAAIQgAAEIAABCOQJASwu8qQhKAYEIAABCEAAAhCAAAQgAAEIQAACCxPA4mJhJoRAAAIQgAAEIAABCEAAAhCAAAQgkCcEClUOVs3Nk9agGBCAAAQgAAEIQAACEIAABCAAAQiUI+AVF2XlgjiAAAQgAAEIQAACEIAABCAAAQhAAAL5QQAfF/nRDpQCAhCAAAQgAAEIQAACEIAABCAAgRQEnI8L9x8mFynQEAQBCEAAAhCAAAQgAAEIQAACEIBAbRNwU0UK8HFR261A/hCAAAQgAAEIQAACEIAABCAAAQikJICPi5RYCIQABCAAAQhAAAIQgAAEIAABCEAgHwiwqkg+tAJlgAAEIAABCEAAAhCAAAQgAAEIQCAlAae4kJcLBAIQgAAEIAABCEAAAhCAAAQgAAEI5B8B7+Mi/4pFiSAAAQhAAAIQgAAEIAABCEAAAhCAgJm3uAAEBCAAAQhAAAIQgAAEIAABCEAAAhDIRwLe4qIgH0tGmSAAAQhAAAIQgAAEIAABCEAAAhBo8ATwcdHguwAAIAABCEAAAhCAAAQgAAEIQAAC+UsAHxf52zaUDAIQgAAEIAABCEAAAhCAAAQg0OAJ4OOiwXcBAEAAAhCAAAQgAAEIQAACEIAABPKXABYX+ds2lAwCEIAABCAAAQhAAAIQgAAEINDgCRRaWVmDhwAACEAAAhCAAAQgAAEIQAACEIAABPKTQKEVsKZIfjYNpYIABCAAAQhAAAIQgAAEIAABCEAAiwv6AAQgAAEIQAACEIAABCAAAQhAAAJ5SwCLi7xtGgoGAQhAAAIQgAAEIAABCEAAAhCAQGGZ93GBnwu6AgQgAAEIQAACEIAABCAAAQhAAAL5R6CwwPu4wM9F/jUNJYIABCAAAQhAAAIQgAAEIAABCEAAHxf0AQhAAAIQgAAEIAABCEAAAhCAAATylkCxX1WEJVHztoHyrWCJqUX5VirKAwEIQAACEIAABCAAAQjURQKJGQB1seSUuSYJFPuBKIqLmmRe5/IKyoqwLS0tjeoQwqIAdiAAAQhAAAIQgAAEIAABCKQhEFdUFBZqAkCZ+5aecF0QtmkuJbgBEyhW58A1ZwPuARVUXQ8R/UlRMXPWHJsydbpNmzHT5syZa/NKFigvKkiCUxCAAAQgAAEIQAACEIAABBYiUFxUaI0bN7KWzZtZ68VaWLOmjU2KDI1PUWAshKvBByQsLlBdNPiOEAcQrCiksJgxc7aNHT/RbedYq+ZF1q5VsTVt3NyKi3DoGmfGPgQgAAEIQAACEIAABCCQPYF5JWU2a06JTZs53f74a6o1b9bYllyinds28QoMpYQCI3ue9T1mwYh/Jrhxapktt1Tb+l5X6pcFAfUF/UlpMX7iFBs9bpIt0aaJtW/dOIuriQIBCEAAAhCAAAQgAAEIQCB3AhOmzLHxk2fb0h3a2hLtWmN9kTvCen2Ft7jQQBWBQFBalJSU2Jhx/9rUadNspaWbOwuLIuBAAAIQgAAEIAABCEAAAhCoNgL6UNqyWZGNch9P580rsaU6LG5FRYlxCJYX1Ya9ziRcyByiOtNWNVLQYGkhpcXyHZqhtKgR6mQCAQhAAAIQgAAEIAABCOiDqcYgGovI+ltjEwQCIlDorS2wuGjwvSFMD5k+c5aNGf+vLdOuCX4sGnyvAAAEIAABCEAAAhCAAARqloB86WksojGJxiZSXjBDoGbbIB9z8xYXzutJPpaNMtUQgQVTREpt3PiETwumh9QQfLKBAAQgAAEIQAACEIAABMoR0FhEfvY0NilxqxmG8Uq5SBw0KALe4gINVoNq85SVlSZz5qyZfvUQHHGmREQgBCAAAQhAAAIQgAAEIFBDBDQm0cqGGqMwZaSGoOdxNoVulVyWmcnjBqqJoiU0mGaTp0y31i2KayJL8oAABCAAAQhAAAIQgAAEIFAhAY1NNEaRZwM+tleIqt6fLHSLX9IJ6n0zp69geACUlJY4jeZsa9EMxUV6WpyBAAQgAAEIQAACEIAABGqKgMYmGqNorCIJY5eayp988ocAq4rkT1vUWklkelXilhya6/7wbVFrzUDGEIAABCAAAQhAAAIQgECMgMYmGqNorMJ0kRiYBriLj4sG2OjJVQ6mV/Oc4xt58UUgAAEIQAACEIAABCAAAQjUNgGNTTRGCVPba7s85F97BNy8APm4qL0CkDMEIAABCEAAAhCAAAQgAAEIQAACEEhHoNDNFGKuUDo6hEMAAhCAAAQgAAEIQAACEIAABCBQqwSKtaqI/kcaNgEc3TTs9qf2EIAABCAAAQhAAAIQyFcCjFXytWVqrlysKlJzrMkJAhCAAAQgAAEIQAACEIAABCAAgRwJuKkizuACJxc5YiM6BCAAAQhAAAIQgAAEIAABCEAAAjVBwCsuML2pCdTkAQEIQAACEIAABCAAAQhAAAIQgECuBFhVJFdixIcABCAAAQhAAAIQgAAEIAABCECgxgiwqkiNoSYjCEAAAhCAAAQgAAEIQAACEIAABHIl4KeKsKxIrtiIDwEIQAACEIAABCAAAQhAAAIQgEBNEJivuCiribzIAwIQgAAEIAABCEAAAhCAAAQgAAEI5ETAKy5YVSQnZkSGAAQgAAEIQAACEIAABCAAAQhAoIYIeMUFq4rUEG2ygQAEIAABCEAAAhCAAAQgAAEIQCAnAvi4yAkXkSEAAQhAAAIQgAAEIAABCEAAAhCoSQL4uKhJ2uQFAQhAAAIQgAAEIAABCEAAAhCAQE4EsLjICReRIQABCEAAAhCAAAQgAAEIQAACEKhJAlhc1CRt8oIABCAAAQhAAAIQgAAEIAABCEAgJwJYXOSEi8gQgAAEIAABCEAAAhCAAAQgAAEI1CQBLC5qkjZ5QQACEIAABCAAAQhAAAIQgAAEIJATgaIzzjrvcrMCa92qWU4XErn+ECgtLbN58+bZpMnTbIk2TfKiYh998rk90v9Je+e9j2yLzTa2oqKivChXLoX47Iuv7d4HHrWZs2bZKp1XzuXSlHFvuKWPvf3O+1ZSUmorrbh8yji5BH73w0/29HMv2t33P2JvvP2uL2O7tovnkkS5uFVdPiUe0iwrM1txhY7l8luUg6pum0UpC9cuGoFsnxWL2uaLcn1JSYl98NFn9tiTT9v9D/a3Tz//yrbeYhMrLi5etMrXwtVz5sy1e/r288+M1VbpZC1aNK/WUixqfqNGj7Xed/X1vyUdOy5ni7dp7cv77PMv2+ODnrV27Ra3JTssUa11SE5cS9Bfc8PtvkzqAx2XWzY5So0eP/HUEHvO8fj19xG2wXpr12je+ZzZu+9/bP0HDrb3PvzUtt5yUysoKMjn4mZdtpro++G3u6reV7KuHBHrLYEJU+ZYuzat/O9mYWFhvbkf622DVVPFijUgMPP/VFMWJAuBBQR22uNgGzN23IKAFHtXX9bLpk2bZo8Pfs6fPeeMU6xRo0YpYuZ30F33PWyffPalVw7sussOVuQetP9OnmI//vSrNW/ezNZbZ82cKvCoe4GStHEv3jtst1VO1yZH/uW3P+yQrieWCz5w3z1tlU4rlQsLB7Oc8mXbLvvb9OkzfNCrQ5+0ZZdZKpz226osX0g4pNmuXVvbbpstQvAib1O1TWUS/ePPv2yvA4/yl1535UW2z55dKpMM16QgUNXPikVt80W5XgrCK669JarlF199a73OOdWaNm0aheXbjpQtn3z2lS/WphuvHymPv/72O6+40Illl17ajj7y4Got+qLm9+/kydFvyU47bGsrOQXorNmz7eIrrvflnjRpsvW57dqMdViUZ3eqxMPvWwenNNly801SRanysHR1eM8N0N9ySvH11lnLjjv6sCrPt64m+NMvv0Z95/yzT7WialZcjPhrpEnRttRSHXw/rQ5ulen7FZXjm/99794LZtpqq3aytou3iaKG3+6qeF+JEmUHAhBo8ASK9RxOKC8aPAsA1ACBuXPnZsxF1h/1QboddajNnDnTdu+yk1daqE7vffCJ9brkaltz9VVt8GN9a62an3z6ZZT3I/f3tjVWX6VC5dBHn3wRKS104ZvOQuOoI6p3wBIVsBp2UrXNomZTWlqyqElwfYxAVT8rFrXNF+X6dz/42NdMFk1P9r/PWjRvbi1btojVNv92x4wdb917nOUL9tHbL1qrVi39vga3e+y6k02d+p/tuP3W1V7w6sivaZMmdvr/neCfY0ccun9WdciXZ3dWhU0TqT7UIU3V6kXwg/0G+g8d3bsdYWf2PKla6lSZvl9RQc487zL/Meru3tfbdltX3ceFivLkHAQg0HAJFGNr0XAbvzZqfu+dN9rcuQnFxNPPveB/pFWOB++51Zo1S0xX0pf8l4e9sVDxSktLTeZh6UTmt1Vtylni8pSlRCZJVTb9iCf/kI/8Z1SmpCzbPDMm5CKkKpeuGzdhQnT5JhutH+2n2xn2+tvlTr34yus5Ky4y1asq2i9THqESqdomnKuKcoS0ct2ma6+QTqbzipctg5Bmvm6r+lmxqG1e0fVxhqnaaPz4xP22wXrr2NJLLRmPHu2nui46mcNOqnQq6tM6J0l+do4aPSZlro0bN7Kbrr005TkFpksv3QUVlU3XZJNfctnT5RUPP/G4rqa/VJKqTNk8u1NdF08/0/l43OT9TPd1NmlnU4eQb6p+FM5pm+l8PK72M5Uv1/SS08/l+kxxM51PzjscZ6pjiKdtqjz+HPF3PEq17VfU9+OZZqrP7DlzMlrQxtNLVedczsfjsg8BCDRMAsWaseeGew2z9tS6xgnI0iDIhx9/FnZtnbXX8F8ho4DYzlvDP7CBg54xmVevs9bq1v3YrrbzDttEMWSqeHufvvbxp1/4+dbbbLmZyayzwxLtozjJO3/9/Y83d9a1Es1fPebIQ61161Z2/0MD7AM3p3XE3yO9lYHyPO6YI6zLTtv5uK+9MdyeevYFW321zu6raUunfHnB/h45ypv7XnbhWbbcssv4eA89+oR97Hx1dOjQ3q669Hzr+/BjNuSFV/y573/82U469Vy/ry8VKrtMh7//4Wf/IqB54/vvs7t173akLdG+nY+X7T8TJ/1rt/a+1/SVV/sq/9FHHuK/kiqNgU8+Y6+/+U6UXChHr3N6WirfGTItff7FYT7+nrvtbFJafPvdj96kdZmlUw/CQuIffPRpxnrJR8HQl16z194c7k1NN914Azv26MNTmsqqPpdccYPz81Hiv1hfc8UF9sWX32TMI5QnbJPbRuG5lCOkk2r7klO6DRn6ihU4hde9d9zgo7w1/H17Yv7Up9tuvNJPFepz78P2ret/++29u02YNMmeHfKS/fTLb65vb2s9TuzmTW9D+uLff+BTpn6jr/b777uHj9OkcWObPmNGxj6bbZlCfvmwrepnxaK2earre5zey/fFU044xqTck7n9pH8n27577Ra1z30PPmq/uylFkg8/+czf9/G+8fKwN63fY0/6e0ptu9UWm5qmxwV/M+F5s66bWrabm3L2wCMDTSblAx+520L+x3Q9xF557S3nA+cDf88fuN+e/h56yH3BHf7uh35qxOGH7G8qp7646np93f3c3TthsKTnW/djj7S11ljNPx+CqbfKfdo5F1tjN13vrNNOtsUXb+3vQYWf4Ab+G2+4nnZ937ztzvtNUzskspQ4s+eJ3rpMx8rz2ht7e8uu0089we52U+ned8+HVu4ZeuhB+6ZVIoxzSh/d85KQn6w9Bj3zvC+nnkWbbbKh/0044tADfLxs/jnvoqtsypSpfgqartMgTXP/9Wwc/t6HvtybuGfRaaccZ/0ffzrts1v+lzL9Bv333zS7xtX9zeHv+aLJYiWTZHNf58Khot+fUBZNCXzsiWfsyaeH2G+//5nzsyikE7YVMQ3TpCp6timdadOnO78wA0zvC7q39Ptw0P572UYbrOuzyfb+WWftNd17xur2oLt/1O9TvUuo7e+450Ffd/lvydYqKlP7h/s03XOisLDA7nugvy+XKvXCy6/7KaWd3NTN887sEd3nvc49zd51fr9ef+sdO+zg/eyfUWPsM+cvR1Npe998VTSd6/Krb7bRY8ZauN6Div2T3Pcrc2/+8NMv1m/AoCjV3u4dbKDrO3vt0cX23mOXKFz374233uWfj/+5KcDh2Rh8zUj5cc/9/dzz603/HiVfVicdfzTTLiOC7EAAAnEC+LiI02A/Lwmcc+EVUbn0knrhZdfa9tsM9Q56vv72ezui2ynReflg0Av86DHj7LGH71roK6Iiyr/Dfod0i67Rjl7et95iM1tuuWXsAadgiIvyPPO8S+3ZJx6yVd3LjHx0vPfhJ/4vHk+D9CO69bBXhz7h567rxU/xglPJvg8PKDfdQuck+grx/IuvOrPlxEutwlSPAe5lefz4SXbrDZcrKCvRy+7+hx7rBy/hApX/3Auv9GFHHX6QaUAiRUuQUA69IKYSKVWCnNaju1dc6FiD8SMPq3igkKleemE6/pSEObrSVL1Vtm2dtYrmosdFygrVI5Tngbtv9YOwTHnE0wj7yW2TSzlCGum26kuBaYgz1r28hTDVQ/Kje/FTWAgPcfVSWlpWanfeco0PemTAk3bTbXeH074d1UcLCwqduXt3Gzd+YsY+m22Zokzq6E5Fz4pFbfPk64VIA1xJchtKObji8h1tl5229YoGH8n9o/4dj6tB4rU39Q6nfdtqIPe+6xcvPfeYtWzRotzzpt9jg8o9Q9LlL58a+ouL+oz86uy43dYmR6PJ5191ClkN6F5/cbCF/XC9fPVIpNho1qxpVIcD3QBS8j/3jDn06PKm7Xoe6u+JR+91g8Q1/AA01F0KniBiIueZ22y1ma2x2iohONrOmjV7ofxu7n1PufLrmTBh4iTLRXEhRaUUocsvv5zPS4PFS65MKEgUICWh/rofc7hTOqd/dv/v+58y/gb1OKOXV7yHSg1+ZmjYTbvN5r7OhUNFdQiFkOI03h9zfRaFdMK2IqZSXGR6tklpfuhRJ0XKNaWr+6PDEu284iLX+yeUS9vkd4kPP/7cTj/3kiiKWGQj2byDpLtPw3Nii802csrLBUoAvWPoT469JeH6Y7r39H1WYVJwyzr19j6J9wg5217XKWcmO2Xc4GcT/UtK0FSS3Pf125/rvfmd6/dDX3o1Sl689Ld+knPX5OdMqHN4dzjz3Euj+ikx/VZdcOk11t45za0p3y9RJdiBAATynkBhNfsaynsAFDD/CfQ85Xh7auAD0UupXnT1oiy5vc/9frvNVpvbu68PsQEP9fHH+uqnH8BUctsd90XB+gIy8JF77K7brrNOK69orRdrZZf0OtP69b3D3n3tOXvsobuiuN/874doP+zIIeOQQf2isulF+MVX3giny23vv/Om6CtRR6cgefSBO/2fvth12Xk705f4oU89asNffdZk2SB578OPy6WR6UAvciqD5JQTulnfu2729dLxne5L0n/Tpvt89OU2SChHKmsLxXn19eE+6obrr+OsSZb2X7wUIMuLTJKpXm/ElDVvD3vG3nHM5XNjXWeBkyxa/SQoLS4893S32sxGPkqmPJLTSXWcSzlSXb8oYbKuufKSc+2Zxx/yX6mVlpRY8vWi9gpKC/XVz94bZme7r94SrVAhybXP+otq+J8HhxXaqXcXRX8HXl1sp99bVOWlqOhZkZxZVba5vt7e4RRNepYEefvdD6xN69b+Htf9LtFX4nC/abDQ++6Enxs9e3SvytJGontY93KyyDpB964sKuIiiwMp8nTvBJHFg9KMl0mrNElkLXbN5b1s0ID77b03nrdezkJNonw1neCk44+yo2M+bGQVpnLrK3QqufXOxDNVfVnPRP2F1UZkhZEser4pPZUhiJQ12Yi+4ofBkJ5xn7z7sn8G67m9KBKeZ2Ipnx7Dnn/CWUzdaIu534SKnt2ZfoOk9JG1oESWFvq9UF/JJJnu61w5VFSHUJZFfRaFdMK2IqbZPNtkpRZ+x/d2X/I1pVR/O++4rVeE5Xr/VPR8uKfvI77YYnDrDVf457GUA5kkU/vHr0/3nJCVpu6HIOonOr7ovDNCkN/q/tTv8MH7720rrLCc7bDtAifdH7pViyRSSgaRU/BcJdt7c0fnIFyO1IPIukpl3mfPXUOQ36ars05qdaWglNE7mH7fAvPnnNUiAgEIQCCZQOH86a3J4RxDIG8IdHNm0PoSt6f7MQ8y032F05zf8CVQXx40ZWDixH+jF2aZSiaLrBvCD6XmrJ968nH+K+T2225pmvYgr9gywdSXySnOvHcF99U/DDpk5pgsXdwX1c6dVrSeLp0gP/78a9gtt9WXiPbt2vkwDUA0iNGf/HboK6hMtfWSPHPmLD91RRGlpMlFwguyXr5OPflY/8XiGDdNRKK0fv9jhGcpBYRE8UI59HU3WWTGqSkcEimH4lsphzKtEJOpXvEvrJdceaMvn0zPk6f5vPzqm35pWeWvQVv4WqPjTHkoTibJthyZ0qnM+c4rr+TqtJefGrJTzNmhFBdqryBaslGDuybO1F+i9lRfybXPhvRqaztibIGNnmTur6DKi5DuWZEqo6ps863d9DS1nZ4bW8//yqn2kX8G3V+63yW6/8P9prYN9/cxbmUOfV38v5OOjaaIfPn1/xYq9ovP9Ldbrr/cKbrOK3dOgxkp8uSvJkwxkcNdpakyBauvGTNm+us0HURTlBSuL7TxL7NSqEiRssJ8SwRdsKHzzaFy6/mULHoOB4Xi9tts6U28tbqO7kuJzilOXPbfZw+fngajQWRZkY3In4WUMpJHBw6yJwcPsfbt2/q6Z3N9ujhrr7maP6XyygJkrrv/ZAWi5UrTPbvlHSTTb9C3MYV3D9e++r3QoC+TZLqvc+WQrg5xv1GL+ixKrlNFTLN5tsWdSF916Xm2+aYb+T9Z8FTm/kn3fJAVnKyNJDttv43tuvP2/nmsqSUVSa7vIJmeE/o9luhdRPebVuqIi5TX/R/sY5dffI73nyXrp6DEDFZMH82fgqt7f0k3TTVXyfbebOumta21xqpR8lryXWVOXm0sXZ11oaxeJKq3fu/0+6bliSUj/xntt/wDAQhAIE6AVUXiNNjPawKN3CAgLhOdaXAQfZkJPgRCWKolVIM1guJsuskGIWq01QvMjbfd5adpRIFZ7OiFXgMGpT9hwsQsrigfRSbJZ51/WbkpHOVjZHf098h/fMQN1183umCVzitF+1I0aCCTrejFMQyu9HVkvKvbP7EXCk0X0dz5dJKpXnrR2c/5A3jO+f549/2P/J8USle7L7HxpdVkph/k7NMTFgfhOFMeIV5F22zLUVEaVXFOA924xBVDl19zc/yU3y8uLvI+FirTZxdKbBEDZFXx5W/llREbdCqz43ct9X9KvvdzhfbFrwXWzo1/O7RJOIVcxGxTXp78rEgVqbraPNVzJ1X+ms4WpHOnlcOuremUCroXwr0cnchxJ94SsuqKi5bFPLvX5ZHCIX4u1/34c3h1p2AOokHX0JcSR/E44by2yeWKn6toX193VX49b2+541671/kRkR8hDTgrK/Kb8J7zC6TBlPwN6e/E445yyqRuXnmRKt14vdL9Bo0ZNz66dIWOy0b7mXay+S2qDg6hXJV5FoVrw7Yiptk82+RnSqLfhOT7alHun+Tng3xnBNEAPFvJpv3TpZVcn3TxMoXLwkEWSOq3uq/fcn5uJHE/E5nSSHW+svdmqrRCWHKdw8clvWPEp+kofpMmjcNlbCEAAQhEBLyPC6wuIh7s1CEC8a9/+uogzX5c4i/RIbxVywVWBX/++XcIjraDndNN+ZaQHO8cci7h5tJqikUYvEcRk3Y0FzcoRToul/3LqZLRV5tuJ57u85BZ5R677mz/+/7HrKZiJBXDK09kWhsf9Iwdu+DFuU3rxZIvqfD41Tfejs6HOetRgNuR08d0iots6qWXYznY3HP3nb2jL82zlUXMI/2fdI4AT4qyWmrJDpF1x5XX3mo3X3eZ91+STR5RIhXsZFuO5CQ0rz5IsIQIx1WxjbeXpseoPwaR0kIvgk885aZIVaLPhnSqYiulhf427JxeGSGlxZPvFNqh25baL6Piw+qqKEHuaVS2zXPPKfUVwTmdzo6NDW7DvRtX3KVOofKhV113m1daSNna1fm9mTNnrnNW/EilEow/h8NARAnFB5aKI6VnVYksS4YM7ueV1Q/3f8I/O6X4/eCtoW7qVG7PuFAmPWMGuKmBQ14YZg89+rifonD/Q/2dtcVaC60OFa6J1z3db1Dccmb8hElZfwXP5reoOjiEuiVvs3kWJV9TEdNs0tM9oN+zVP4mqvL+iZfln1HZf+nPpv2TmVT1saytwu/jIPdbEBRC8WkkVZ1nVaUXb0NNz4mvDtQhR6fkVVUm0oEABPKbgPdxgZ+L/G4kSpeagLzj6wdbopdkmWhruoX+ttx8Y+fYLmF2Gb9aDsHCNfLwLs/Ykrlz5/qXd003kUiBoIHzkc7bfEUDCA1cNdc4+IHQtTIFTicabEr0JUnKDr/vXsyCYkTOL492ZuOaupJO9FUlnYSvRXrZk7OuxFSPd6LocfPvKDDNjgYzw15/25+VJ3fNRw9/mgcu0dSUseMm+P3wTyjfiCzqNWXqVM9dZq339bnJfSXq4pOJz9NVgL7cHdP1UH9OzlflIV+STR4+YoZ/si2HkpEpvaZoyBGqprAEWWbppfxu/OVLTj/15XRM7Ot6iJ/NNq4Emzxlip+OEPp4sKrJps9mWyZ5o9/n4GP8CivZlC/EkaWFlBZ9epSU+5O1hSSutDh9v/LTBkIaNb3Npc2ro2zxe1GrGeh5IOsh3buScC9XR97Bd46mKGlpxAP322OhbDRFIsjfFSzjrOdwmE4n5aaeifoLPit0TnGqSjTdT0oQDXpkOj94QN8oaTkMTJZGsXroHkonKrNWe5EC4nmnFAlTbr5xDqAlqZ7d2fwGreJWhggix5J6HmSjxMl0X+fKIV0dQtkybbN5FiWnURHTbNILfpc0GJfDWLFTvfX8rcr7Rwrg4L9F/VbTFJTXpEkLLDGS66bjbNo/1XWZwv4cMdLXM1M8nddUn4MP2NtH1YooEvnBadUqMT3NB1TTP/FnhFZqy1WWj1kgtWjePHp/28mtGrfKKtlbvuSaL/EhAIG6SyBhcVF3y0/JGziBk7sfbTKh1wvzJtvs5uc+6+ulXnSGPf94tDRpHJMcz11x7S3eQuKgI7pHUzyk8Zf5eFju88rrbvVLksVX4Iino/1d9zk8ul7Hekmv6EtHeBGTomKjLbv4uZ3D5xn9SAAAQABJREFUhjwepSFHdq+/9a496b6cJIvS1TxWmSRrGbSw1GY8nr6ehikzh3Q9MX7Kz2kPSptyJ9IcaO52UKjoxSi+hF9z95IR5rW/5RRA8guSXL4+t16TsV5a4vOevv38nPrlllk65n8k4U8jXrSznHn4/777wc9F1hz0VZ1Jr5axDVN0KmIXTyfVfi7l0IoAN9++wAmj0hPX4DNhg5hX9YO7nuCzCxxT5V1RmOY6i7ssW+ScVJ7n9YKtL5B6aZYz02z6bDZl+vW3PyNv9I8+NtjPJa+obNmeS6W00BSS2pZc2rw6yiqfJfIz8dzQl/0zJzgyDHkdFXOOGcKqaqslo6UA1FLOUsTFVzQKecQHFQcfeYJ/Vt1y3eXlBowhrpyKXnDptV7psl2X8lPH9IyuSpnj/O5sv+sBvjwbrLt2pATQPPm15vupiOe38kor+Li6B8+54Ao/HU/KmmQ57eyL/VKu+oKtgWywoNtis4191FTP7jfcCiyZfoPks0e/C/odkSPH5NU9kssRjjPd17lyULrp6hDyrGibzbMo+fqKmGaTnn7PgiNWreylNlY7avWYi847vUrvH/3GXX3D7b6ddt3nsCiv5DolH2dq/7A8evJ1qY5XX7VzYmWft96xzbff0z/r5dMik8ihpixDgyQ7yAzhVb2Nv09cf/OdvgxauUxOULMROVlVGnpfO6nnuf63XP1C014OcEt+a/oXAgEIQCBOIGFxEQ9hHwI1RCD+FTg5y3LzK+ebBMWdiGndc4l+3M7quWBKQXAYqRfF5s2aJSfrj/VF7bwz/8+/mChAL6h6IdIAePcuO1qwJpDyQC/1wRFcqsT0khtecBWv901XR186Qhnj1x160L7+a0gIk9O+xm4u5xmnnujLoC+uyld+H5Kl6+EHRiuEJJ8Lx1pCVCsJhK+FIVx17nVOz3CY1VYWKUE2n29hEY63cE7SguhLmCS5fPoak6le+qqsgbh8WGiKiNpBg7ljnEPWuKivKD0pl0Ld/u/MC7wCJ1Me8XTCfnLbZFsOXV+c5C9Afe22G6/wjhh1XgOVuINGKRg0Fz1ZQh8vKiqMThUWJixyfMD8fn9xrzM8E4XppV1WLtpq6TtJNn02mzJ17LhMxDbcAz6DRfgnldJCycX9XmSTfFU8KxalzVXG5Ovj5Y6Xr2D+synervG48X3dk7o346L+rXs4LAcc+omPk8Y8Mp5/PK2wn9xndX/JMaeeXVqecE3nZE/3Xlw0DaF7tyPKhTdv3iwlh7123yVamSSexvlnnRqtMhB/fsfjhP1055O5i0dQDmtqmZR4spC78epLUk4T0XPj9B4JxYvyKnJfqFOJnJtqEKX7S0pZ7eu+1b0jSfXsLnT3bqbfIH351ioia66+qk9H964szPTcqEgy3de5clBe6eoQ+li8z1bmWZRcn0xMMz3bpJzWyi6BldhJggPIyt4/8b4W+pemPCb39/jqW8l1C8eZ2j/E0zZ+n6Z6Tpx7Zg+viFZc1bXt4otrN5L49VGg2xEfKbokuo+Dss0HZPFPnEeq6OnO63lw/VUXl2ufZEuPeJmT66zfxvvcamvhHUvPo+Cwc6UVlk9VFMIgAIEGTqDgj7/HO0v3Mlt+mQVzpxs4kwZVfbX9vHklNsutF/7Ln6NtjRVa1cn6y6xTVggyIZVX6vbt2mash+ouk11tFT+8vOlCWW3Mnj3HL/+Z/KPdf+Bgu/6WxFeQz98f5qaZzLM5bqpJGFBnzNhF0DQD5RtfyUN1+PnX3/1LQDw8OT0tIxf31ZF8XsdKW3VQ3I5uBRFNkakpSS5fNvXSNaNc+2maTbwdsi1zNnlkk1a25dCSkRPcfHV5VtdLdKoy6ytSSUmp9xAff3nLphyp4uge/duZMEvbrFVXkl8QK+qzIb1MZZJndzmqS17VJVyfbqulTiWaKhIkldJCfjAkYQpJiFub22zbvDrLGNpW97UsMaqiv2RTXq3MoH60RAXzyTWNTowqmjIX8tJ9GFYD0MpFqe6LEHdRt5oyMMKZp7dwg6ds+qv6tv4yPQvHjZ/gB43BOiG5nKme3Yqjumf6DZrkBmZSpMR9IySnn3yc6b7OlYPST1eH5LzTHYf+mu5ZlHxdJqbZpDd16n829b///G91chuG66vi/lE7avqjVuTIpf9m0/7JXNIda7qlpk4kO0hNF1994Ihup/hBf7BGSRe3OsL1viGlw+LOJ0k6xWCmfDV1b9Tosb7eHRx7KTUQCMQJ/DDiP1tlxcT7rKbu1dTvZLwM7Nc+gYI/RyYUFx2XRnFR+81R8yXQD059UFzUJLlkxUXyS1RNloW8IJAPBJIVF7+PKbCuNxZ5R5xxnxbJ8fKh7JQBAhCAQF0kIGXO44OetS+/+c6vRKQ6vPDMgMhaqy7WiTJDIB0BFBfpyDSscFYVaVjtTW0hAAEIVDuBlZcqswHnlZi2CAQgAAEIVD2Bic46LjjkVOqnOd8SYYpZ1edGihCAAARqn0BxmimztV8ySgCBPCWwi1u1pHOnlX3pqmMJzDytNsWCQE4EUFrkhIvIEIAABHIisPRSHexO5wR7/PiJJp80ckSLQAACEKjPBJzFRZmbD1+fq0jdIFC1BOS0TX8IBCAAAQhAAAIQqA0C8gOx43Zb10bW5AkBCECgVggUO+8mVmBoLmqFPplCAAIQqAcEtLypHG8GHxbpqvTFrwV55ZgzXTkJhwAEIAABCEAAAhDILwLF0llgcZFfjUJpIAABCNQlAmGVkC9/SyxTnK7suS6Dmi4dwiEAAQhAAAIQgAAEGhYBZ3Hh1pZuWHWmthCAAAQgUMUEgvKiipMlOQhAAAIQgAAEIAABCFihzC2wuKAnQAACEIAABCAAAQhAAAIQgAAEIJCPBAplb8HKIvnYNJQJAhCAAAQgAAEIQAACEIAABCAAAae4wMcF3QACEIAABCAAAQhAAAIQgAAEIACB/CSAj4v8bBdKBQEIQAACEIAABCAAAQhAAAIQgIAj4FYVwccFPQECEIAABCBQWQIff/6dPfHsazZvXklOSRQXF9lh++9im220Vk7XERkCEIAABCAAAQg0NALFfk2RArcmKgIBCFQJgY8++dxef/Mdn9b5Z59qjRo1qpJ0K5vIs8+/bF9+/a0dtP9etu7aa1Y2mQqvGzV6rD3Ub6CPc+ThB9lKK3T0+zWRd4UFcye/++Ene+e9j+yTz760li1b2Gk9utsqnVbKdFmlzpeUlNiEif/atGnTbNlllrKmTZtWKh0uShCoyv6Tro9WBWspLa6+7FxbssMSOSU3dtx4u/iKm1Bc5ESNyBCAAAQgAAEINEQCTnHhlBboLRpi21PnaiLwy6+/2+ODn/Opn3PGKbWquJg1e7YbGF3vyzJp0mTrc9u11VLrfydPjuq80w7besVFZfL+d/IU+/GnX61582a23jqLrmT55bc/7JCuJ5ar84H77rmQ4uLq62/z5W/Rorl98s7L5eLveUBX+3PE37brzjvYrTdcXu5c/OAJ1+a33nmfTZ8+IwruuNwy9n8nHWd777FLFLYoO9/873uX/kxbbdVO1nbxNjklNeKvkabB+1JLdYgUSzklUMOR0/WfytYjVR+tqirJ0iJXpYXy1jW5WmlUVZlJBwIQgAAEIAABCNQlAn5VEbewCAIBCNRDAk2bNLHT/+8EW2et1e2IQ/ev0RpWJu/3PvjEuvc4y6RIqAr55NMvo2Qeub+3ffzOS7bF5htHYWGndP6a0HGlQzgnKwpJ2Ibw+HbY62/bVa7Mydf/PXKUjfxnVDzqIu2fed5lns+33/2QczoPOosYsX3u+ZdyvrY2LkjXf+paPcSulI8DtdGFyBMCEIAABCAAgXpEAIuLetSY9bEqpaWlVljoF7/JWL1UccvcgLQgw3q/qa7LmNn8CNlemyleNuUMZaoorVTpnHhcV9NfZaWi/DKlWVHeqcpa2UF+ujKOmzAhKuImG60f7Vf1zkuvvBEl2f/BPrb+umu5KSOT7PsffrbWrVtF53LZSeYze84cGzN2XMYkStw9U5TinpHVSCZJxzHTdenOqw6Syt6DqfpPNvVIxyBdORWezLuiuNmc+/e/Unt02Azr/+oMmzPX7Orui9k+WzF1KBt2xIEABCAAAQhAAALJBPBxkUyE4xoh8OHHn9tjTzxtP/z0iy2z9JK2+aYb+cG1/EFMnPSv3dr7Xnv3g4/9vqwFjj7yENtj152isvU4vZf/An5M10Psldfesrff+cDHPXC/Pe3Yow/3/haGv/uhydz88EP2t1NOOMb0Bfe1N4bbU8++YKuv1tn5O2hpTz/3gumr+Jabb2KXXXiWLbfsMj6PEG9dN11ht112sAceGWgyUR/4yN3+/PMvDrP+A5+y73/82dq1Xdz233cP63FiN2vSuHFURu28NfwDGzjoGfviq2+91UP3Y7vazjtsE8WR6f/tffrax59+YZqmsM2Wm5n8YnRYor2PE+qp8uur/lvvvG+T/p1s++61m89v8Tat/YBLvgDkV2P4ex/amquvaptsvIGddspx3sfCeRddZVOmTLXtttnCll12aRv4xDM+beWz8kor+P3+AwebrB3Ev/fNV1lRUZFlW8eoMil24nkfcegBFZa1/+NP25AXXvGpiOtJp57r9+/ufb0vT3LymfrJwCefiXyN6NqQXq9zetpKKy6fnNwiHU/6919/vfrCek5pIWWb2jC0Y7aJT536nw165nlf7m+/+9E222RD3182WH8d6zdgUJRMb9dn1I577dHFT0N5fNCz9qrr27/9/qe/D5ZasoMd4fq97o/pM2bYfQ/0t8+//MZf/8LLr/vpOJ2cn4/zzuzhw3Jtayk4Bj39vO+TynPtNVe3LjtvZ/vtvbu/T2QVofyCkqHLTttZ92OPtLXWWM3nF/r1Ae5+Vd999/2PTGXueviB1q3roZGiI95/9tx95wrrURGD4mL3U5dG5JNm6Euv2WtvDvfTbzZ1946eIcFPS5rLMgaf2WeKffGz01ggEIAABCAAAQhAAAKLTACLi0VGSAK5Enhu6Mt20eUJvwu6Vl+RNbCXcmLO3Lm2/6HH+sFXSFcDuHMvvNKHHeUcP0o0QJe89+Enfhv+efq5F50y4sVw6LcPPPyY95ew43Zb+7x0TfJ1H3z0qR3RrYe9OvQJP9hXmUK8fo8NKjcF4JEBT9pNtyUUGMpAA2jlUVhQ6KZldC+X9zkXXhEdqx4XXnatbb/NUNNA6utvv3d5nhKd1zQDKWFGjxlnjz18lx+8paunBuUrLt/RjjzsANNA9JIrb4jS0aBff92POdzXRQMzlXH55ZezbbfeIqr7Vk5RERQXj7n0pMCRkkZKi1zqGGWcYieet05XVNa+Dw8oxzm0kQbJKlNcNBjP1E8edcoY1SlISG/a9OkhqMq2W2y2se/D4nzUcad6RdmWbkpKcrkzZXhz73vK9V8ptGS50dgpxIa+9Gp0+U+//Gb6W3+9tX3YbX3uL8dO/Vf+NqQM00BcfTiIzulv5qxZPqgybX3JlTea7uMg6qfjJ0z0iovPvvi6XB0UR0oVKTJef3Gwq0ujlPevynTz7fd4BaOUjZJ4/5nonJ5WVI+KGBx28H4+veR/pIw8/pSzomDdg+ozuk8WVXHRtUtzO/vQQhv89kx77t0E6ygjdiAAAQhAAAIQgAAEciKAj4uccBF5UQnMnDnLrr3pDp+MvrBefP4Z9uSj99nN113mBiyNnRXGM5HS4pQTulnfu262Tiuv6OPfec+D9t+08oNOfZF+4O5bTf4Lgqy3zlr+uoGP3BOC/KoS0cH8neuuvMiGDOrnfD8c4EM06HwxZvIf4rdylhka0MuaQ/kHpYWsID57b5idfdrJPupjTz4dLom2PU853p4a+ECUhwZG/3MKDMntbrAp2Warze3d14fYgIf6+OOvv/0u+lLtA9w/sjq545ZrnMXHgjq9/e4H/vSLr7zut2Lx0dsv2rDnn7B777jRFlts4SkKyzmLi402WNfHf3++0kfTM8IAf589d825jj6xLP+pqKz333lTVDY5tXz0gTv9X6rBfzb95LYbr/TtFooW0qtqawul32Wn7b2SQPtqv5NPO8922O3AchYfOleRaKpCULqp73/y7su+f17S60zbcbut3KoVvaLLz+x5omej9pKc1fMk3+avvzjIXhnyuK04f1UXKQRlRaS6B5Hlko4vOu+MSrW1/GsEpcWGzhLk1huusMceustOdRY+ElkzXXN5Lxs04H57743nrZez7JHo/kqeCrT1Fpv6+//u26/3FheKd0/ffiZlVbJUVA/FrYhBclrh+I233wu79vawZ+yd157zz5J1114jCq/szs4bNbF1Vq7dFYUqW3augwAEIAABCEAAAvlGoLBMS4rMn4ecb4WjPPWPgMzKgwPDo444yE/jWNsNynfvsqOfpqCBlkRfik89+Vg/heMYZ4kh0XW//zHC74d/NHDaYrONTP4LZKYvWWP1Vfx1WpUiDOBmzJgZLom2XXba1jp3WtF6npwYcOnEjz//Gp0POy8+099uuf5yu/KS88rlrxUBNPhv4qagSFQ+KWbi0s2Z6q+x2iq2Z2yay8xZs01z8LU8p0TLZn7hvkbri7LqLRk9Zqzfhn+2dlNIdtp+a285osGeJHBce82E+b2+zve+q6/NnTfPKUM281Yd4fr4Vub8ElkgzHJf3XWdRHnLciDOOJs6+ouz/Keissp6oH27dj4lKYukYNFfKh8n2fQTcZeiRqK6hfRatmjhw6ryH/Wj5wf3s9A2SlsD9dPPvcT63PtwVlnJD4SUbpJHBw6yJwcPsfbt2/q+3db17bXWWDVKZ5XOK/v6qO9IZFGw1Rab+OlTss7YZMOEP4+p/03zFg6qe+hbmpqlY61MUpm2/uLLxD2qfM876//caivbe8uP7ZyVgkTTQdTHdO9NdlOUtprfX3Uu2dplHacg0P2vaUx77razonhuYpcsstRIVw/FrYhBclrhWH0kiKxIxGPjDdfLeYpPSIMtBCAAAQhAAAIQgED1ECgucEuKJNynVU8GpAqBOIFRsQG5BiHJ8vfIf3zQhusvOLdK55WiaDInz7RMZkEU27Iy1ZdlgpQeGixNcObuFYnyD3L5NTeH3WhbXFx+SkM40cgNuuIy0Zn/B9EymvqLi3xNpJPkcwftv5fzT/GxaSqKlmHV34nHHeWW4eyWUnkhHxthaslX33znfVsoLw02NTisbB3TlTcenmtZ49fG96uin8TTizuPTHbSOHfuvHjUtPuyILqvz03eb8ujjw32PkIUWUqIU044Oqu+KEuKs3td7vviLXfca/c++Khdden5XjmQNmN3Qj4qrr7h9kiZVVHc+LnKtPXIUaOjJORPJVm0pK3qEBRiyefTHUv5E+Rf58dlifYJJVYIy7StDAM9g/Zz/mKec75V5GdDf1LAXO0sRnJdbjZT+TgPAQhAAAIQgAAEIFB5AsXO3KLyV3MlBHIkoC/pQTS/fJ21yptkS4Egh35hYKq4Y8eOD5dYm9aLRftVtSMHnuELb8fllq0w2Xj+F557ui2xxILBlZQWyUqFdInFp3FoCoosKuKyeuxLcDw81b4GzAOcqf6QF4bZQ48+7vnd/1B/9xV8LT8IS75GeWvqi/xpvPP+x97/gOKEL95VVcfkfHWca1lTpaGwqu4ncSeaP//yu7dGUD5jx42PFDkdOiQcpiq8ItFX/OuuvNBkrRL8dvz86+/e8qai63ROlkNDnOWGFFkP93/CKyLOOv8y++CtoWkvVdoXXHqtP7/rzjs4i4F1vSJDiqxMUpm2br3Ygntw7LgJ3rluPJ+rrrvNKy3URl2dT5o5bkmNe/o+Eo+Scn/U6AVWRuonuUhlGUhRd80VF5gcf8r5qayQ5K/jkf5P2lmnnZRLEYgLAQhAAAIQgAAEIFCNBArdQnXVmDxJQ6A8geU7LlAMDH3xVTcwnOAjaCqHvnTLBF4i5cV3P/xkWgLyNbdaRpAVnIPJqhI5PVSer74+PEoy/tU3CoztxBUbk6dM8dM3tGKC/uJWIrFLUu5qhZMwOJMzTk0xCOnIqWPL+VNGUl6cFKh6FLhVLKQA0XQFDRgl3zjnn+lkb7cahaSfczQqkU+JMK+/MnVsFFu1QVzSSaayBouVEX+P9CvCpEunqvtJZ7fCRhCtiKFBtJxN3v/QgBBsq7upFRLV4biTz7Sju/eMpvR8+fW39ofrs+pPkv/cFA313yBSYqS6LpzXVn4dlKdWipH/lMED+kanv/v+p3LWM3/9nbBMUoR4O1992fnen0pFiq8/R4yMfEhUpq3j9+CTTz3nVy1ROeQwVfLehx/77YH77eVXCjpwvz38cap/tEJOSUmJTXLWTm+7FXMk6r9xxV6q6xQWr0c2DFL10SlTp3rFilYVkrVMuC/kYFRy+dU32z4HH+OdhPqASvzDL2wloHEJBCAAAQhAAAIQSCJQ7H1cYHWRhIXD6iKgOfnha7++bu64+4HRNI23Xnnaf6EN0yYO6XpiuWJoKkMY7Jc7UcmDXfc5PMpbSWjwvsO2W1WYmvwDyLnhS8PesLvvf8SvcrDaKp38Cg9SRsi5X7ZycvejTdNNtKLJJtvs5v0bhC/8w55/PFqaNVN6p519sXcIKX8fsvgI1iPyV5FONFCTz4PgJ0Nsw3SJytRRq5OE9M654Arv7PPE47oulH2msgbHmSrXRlt28Wm+4VaiaNVqgaWOEtWX/KrsJ9s7Hwua9qDVWORANDgRDRVQ3wgWKW86h45hGoSUXlpytP/Ap93SoG/56Bp4hzZQwGnOQaumHWj50OTrQvraznFKuu13PcDXeYN11/ZKDIWL61rOj0mj4gXTh66/+U6Ts1qtsrOb8w8T5PxLrvbxQllCuLarr9o5sbLHW+/Y5tvvaeq3/R/sk3N/3sX5hrm9TwdviaJlgvWnMmpqx4vPDPBL+sqaR0sNy6eFeKWTJ58a4laaeS3qh4rX46Rj00X34anqcemFZ0fXpGOQqo+KuZyBygHwcsssHa12st3Wm9uvv/1pg59NWLpo6o+WbK6MXHHcYqY/BAIQgAAEIAABCECg8gQK5ePCW13oQyF/DZtB5ftRTlde5gYZB++/d3SNBnlSSGjgryUItZJIsBoIkWRN0OucnuEw2obBdhSQtFOctIxm/LQG+mGAKaeIvW+6Ohogl1vJwjlNjMvFvc7w/iAUpgG2HEVqu+7aa/poqa6NO5gsdHed5IB99/ArIfgD949Wo5DPAQ2SmzdrFoL9Nl7PgvnXFxU5gyknck4qfiqHBsbal68EORlMJzKRl7IiiJyjxiVTHeNxta/lXU/vcYIfwOq4yFmApJJMZT30oH3LrQSiqUWF8+sZTy/XfhK/NtW+2qzPbdeWyzvEk8+D+/vc7JeWVZgcSgYJ/lZWXWXlEBT1KQUcediBXrGh/VTXKTyIyhAUZ1LqablTrSZz49WXmKZnNG/ezK6/6mLfP3SN+pwUOqs4a5Gw3KeUBLJ42HmHbUOy0fbcM3t455bh2raLJyxzcm1r3acP3HOrX2Y1JK6yhKV1pciRY07dW1q2d03nVFSKjVQSnOfqnOJ073aEHeb6QEWSqh7ZMEjVR2W5IwWOnAZriojKoPtCdejYcZnoOaQVexAIQAACEIAABGqRAOPUhj1Ode1f8Pvf47zRxfJLt6vFnkjWtUVApu3z5pX41SV+GTHa1lhh4SU0q6tsMhEf4/xXNG3axH+Rjg/OVS5ZH2j50Y5uZYimTZtWSTH6Dxxs19+SWHb08/eHmRwvzpk7Nxqg5JKJVuT4+5/RVugUG/KRkGwVkG1a4vDPqDF+RZJ27RZ3K2u0zfbScvHGjZ/gB7PBaqHcyUoe5FrHeW5FE/1laq9MZdW0A/WBTCuAVEc/Ud7/uHbVyi/6Cp+qXf2yvK588XOa1jTGTfuRY0mFL7P0UtasWfl+m+q65KbRlJERbipIC6eoiPveCPFUZykFFndWHHEFkawbRrl+pPavyNeKnGe2aN7cO2INaWqba1uHa8ZPmOR9z8RZ6JxW6FBYKieba220naL4KTGaFqMpY0s6HyLllH4+Rvp/UtUjGwap+qjaRew0VSxeBsXVdJZU7RAv2ZkX3+6Wqz3X+zWJh2fa1zPu4itustuuPiNTVM5DAAIQgAAEGiyBH0b8Z6uskBgPaFpxfMzQYKE0wIoX/PH3ePceXGYoLhpg67sqq+1rS3FRG8STFReZBti1UUbyhEB9JxBXXJwaW464rtb748+/syeefc0/S3Opg16+Dtt/F9tso8QyuLlcS1wIQAACEIBAQyGA4qKhtHTF9SzWwDXh56LiiJyFAAQgAAEIQGBhAlI8oHxYmAshEIAABCAAAQhAoKoIFHtTG80ZQiDQAAjs4lb/6Nwp4Y+giZurj0AAAjVP4JH7e3vrhOXcNDAEAhCAAAQgAAEIQAACmQiwqkgmQpyvVwTkuFJ/CAQgUHsENtlo/drLnJwhAAEIQAACEIAABOocgQWritS5olNgCEAAAhCAAAQgAAEIQAACEIAABOo7gUJ8XNT3JqZ+EIAABCAAAQhAAAIQgAAEIACBuksAHxd1t+0oOQQgAAEIQAACEIAABCAAAQhAoN4TKEysKYJ3znrf0lQQAhCAAAQgAAEIQAACEIAABCBQBwkUF1hBHSw2RYYABCAAAQhAAAIQgAAEIAABCECgIRDAx0VDaGXqCAEIQAACEIAABCAAAQhAAAIQqKMECmVwgdVFHW09ig0BCEAAAhCAAAQgAAEIQAACEKjnBArNubeQnwsEAhCAAAQgAAEIQAACEIAABCAAAQjkGwFWFcm3FqE8EIAABCAAAQhAAAIQgAAEIAABCEQEEj4uyrC4iIiwAwEIQAACEIAABCAAAQhAAAIQgEDeECjGx0XetAUFgQAEIAABCEAAAhCAAAQgAAEIQCCJAD4ukoBwCAEIQAACEIAABCAAAQhAAAIQgED+EHCrimhNEbe0CAIBCEAAAhCAAAQgAAEIQAACEIAABPKMgLO4cGuK4OMiz5qF4kAAAhCAAAQgAAEIQAACEIAABCAgAt7HhWFxQW+AAAQgAAEIQAACEIAABCAAAQhAIA8JeB8XsrpAIAABCEAAAhCAAAQgAAEIQAACEIBAvhFgVZF8axHKAwEIQAACEIAABCAAAQhAAAIQgEBEILGqCBYXERB2IAABCEAAAhCAAAQgAAEIQAACEMgfAvi4yJ+2oCQQgAAEIAABCEAAAhCAAAQgAAEIJBHAx0USEA4hAAEIQAACEIAABCAAAQhAAAIQyB8CWFzkT1tQEghAAAIQgAAEIAABCEAAAhCAAASSCGBxkQSEQwhAAAIQgAAEIAABCEAAAhCAAATyh0ChL0pB/hSIkkAAAhCAAAQgAAEIQAACEIAABCAAgUAgobgoC4dsIQABCEAAAhCAAAQgAAEIQAACEIBA/hCYb3GByUX+NAklgQAEIAABCEAAAhCAAAQgAAEIQCAQKPTGFmWYXAQgbCEAAQhAAAIQgAAEIAABCEAAAhDIHwKF3tYCg4v8aRFKAgEIQAACEIAABCAAAQhAAAIQgEBEAB8XEQp2IAABCEAAAhCAAAQgAAEIQAACEMg3Avi4yLcWoTwQgAAEIAABCEAAAhCAAAQgAAEIRATwcRGhYAcCEIAABCAAAQhAAAIQgAAEIACBfCOQ8HGRb6WiPBCAAAQgAAEIQAACEIAABCAAAQhAwBFIWFyAAgIQgAAEIAABCEAAAhCAAAQgAAEI5CGBYi0oUsaqInnYNA2nSGUsx5u3jV1QwMMhbxuHgkEAAhCAQJ0kUNfee6rrXQAOie4Lhzp5G1PoWiBQXOYyZdxYC+QbeJZ6SE+ZPtf+/W+uzZpT4jphAweSj9V3OoumjYts8VaNrHWLRlZdLy75WHXKBAEIQAACEKhKAnX2vaeK3wXgkOhVcKjKu4u0GgoBb3HRUCpLPfODwJy5JTZm0mwrKiqwJds2teZNivKjYJRiIQIzZpc45dIcmzp9ni3Vtok1bkRbLQSJAAhAAAIQgEAFBOr6e09VvQvAIdFJ4FDBzcIpCFRAAB8XFcDhVNUTkIZZSosWzYpt2fbNUFpUPeIqTVFKJbWT2kvtpvZDIAABCEAAAhDIjkB9eO+pincBOCT6Cxyyu2+IBYFUBFhVJBUVwqqFgB7Wk6fN9ZYW7RZrXC15kGj1EFB7yUJG7ad2RCAAAQhAAAIQqJhAfXvvqey7ABwS/QQOFd8vnIVAJgLe4oJhSCZMnK8KAnpgy6fF4q1QWlQFz5pOQ+2m9lM7IhCAAAQgAAEIVEygPr73VOZdAA6JfgKHiu8XzkIgEwFvccG6AZkwcX5RCehhrb/Zzr8FPi0WlWbtXK92U/uFtqydUpArBCAAAQhAIP8JhN/K+vbek+u7ABwSfRUO+X/PUsL8J4DFRf63Ub0pof9Qz8f6ut2erv0wuKjbTUjpIQABCECgZgjU2/eeHN8F4JDob3ComfuOXOovAVYVqb9tS80gAAEIQAACEIAABCAAAQhAAAJ1nkCxtH98BK/z7VhHKkBPqyMNlaGYtGMGQJyGAAQgAAEIOAL1+fcyl7rlEje3jvPltz9nvGDylGnWpnVLH2+DdVbNGD+3CLnULZe42ZUim/pXfZ1Tla3q65YqF8IaNoFicw4uCuhrDbsXUHsIQAACEIAABCAAgTpLoGevW+zLb36y447c2//V2YpkWXAN2B96bKivc5aX+GgbrLua51Mzg/lcSpZb3FzqX1/qnBshYtdHAsWqFHqL+ti01AkCEIAABCAAAQhAoL4TCAN4DVD9vhvU33n92fW62j3Pv9nXT4qaiuTDT7+1H37+M1LmiM9D7oK6zie0eab6i019qXNF7cy5hkEAHxcNo52pJQQgAAEIQAACEIBAPSSggalEg3E/SJUlglNe1HWrgnRNFaZHZGNdMnrsxHKKC6XpB/11mI/qn4t1TVBopeNJOATqCoFCvzxPXSkt5YRALROQT5jpM0truRRkDwEIQAACEIAABBKDcHEIX941SK3vokG7pCHUtSraUgqsum5hUhUcSKPuE3A+Lgqcjwsmi9T9pqQG1Ungu9/n2BOvTrN3vphlM2eXWbMmBbbaCo3snl5LWFFRdeZM2hCAAAQgAAEIQCA1gWBtERQXYVCfOnb9CA0WF/XVomRRWmnGjFk2dvykjEksuURba968acZ4RIBAPhEoloML1Bb51CSUJd8IjJlYYt2vGm8lztBiqXZFtubKxTZ1eqmNHDfP3Tu6e5yHWwQCEIAABCAAAQjUIIFkpYWybgiD+jBNogZR14msnntpuN3c57Gsy3rOqUfafntsl3V8IkKgtgmwqkhttwD5LzKBvs/9Z32fnWr3XtDeNly9Scr0vvhxtp183QQ7Yf/F7IT9WqWMky7wk//N8koLnR9wVQdbrEXhQlFLnf7iwSFTbcjwGTZxcoktvUSRHb/vYrbnVs193Nsfn2LvfTXL9tu+hXXdvaWNGD3Pzr59oj/31A1L2r//ldoJV4+35ZcqtsN3bWl3PjnF1lixsV1wbBv77IfZdscTU/w1y7p0D96lpe3v0pkyrdSue/hf++S72TZnXpmtt0oTu+Kkxa19myKvWLnv6ak2/MtZ9p9TsqzdqbGddWRr67Rco4XKTgAEIAABCEAAAvlPIPg2UEm/+/F3+/jz73yhg7WFDjSoT+XTQGH1wUIhKGt8xfknIiBLCyktVl9lBdty03Wj8HQ7H3zyjY/fZfvNsLxIB4nwvCPgLC4S34zzrmQUCAJZEtho9cbW18WVYiKV8iIoLZSc4uYqm62zwJRuj9NH2/H7LGb779DC2rRaoMCQouGxl6dFSY8cW2JX3P+vNSoqsC6bN7M/R821v8bM81YaijTN+cnQcZB5JWX+WGFScEhatyy0r36eYz2unxCi2a8j59mrH830igspOv50CpDG83URn34/2x4e+p+de1Qbu7n/ZHvlw5lW5IrYsnmh6ZzSRnERoWQHAhCAAAQgUGcIaMCeatB+5w3nLFQHKS8WmjLirs/GmeVCif1/e3cCGElV53H8n07nmmTu+2JujhnuW0C5BAFBYEEUEAVXUVhYPFAWBURXQYTVFRdBllVWAREVQWRFcBAQEIb7ZoZjGGBgmPue3Nn3e92vpxI6x+TqStf3aZJOdXXVq0/1hLx//u//YrohGqyJaRf7tVtheoiCFl21efmVRX5aybQpE/q1r5wMge4K+BoXCl7QEBioAsqyUMBCgYu2wYto0CJfUKMr1zx2hMtyOLjafjt3g9U3mF3tMhmudRkeX//MMB9AaGqyXNDihEOq7Yzjhti5P15pT7hMiWtuXeMDF105T9jnw3tW2e6zK2zy2LRddcsav3mCy7T4jy+NtCnj07ZuY4s9Nb/OBy1Ua+Oen463RhcDOeAL7/ighgIXLy50HXVNGSaf/dhgn5HRTE1Rb8InBBBAAAEEBpqAghYakIaClFoO9PAP7/O+LIoH/+/a3HSR6DWGwEdXB7XR18bpsa4jGMSpX/QFAQT6XsBnXPT9aTgDAn0rkC94oTMqkKHW3aCFf7H79LVPD7MDd6+yH9642mc9qN7Fpb9Y7ad2jBm+uTqnpoJUV6XsyP0G+cDFu8tcVGML25dPGmqjs8c878pMAOLo/atz2RLDB5fYXJd5oVbf0GKnfXtZ7gyaPrKxtsU+tEul3eAyQK5xQZa7H9lo535qmA+G5HbkAQIIIIAAAggMCIFQt0Kd7cp0j67sMyAuvINORk3Cbh1dd9v9O9o3HI+vCCAQLwFWFYnX/aA3PRBoG7wIh+pp0CIcR1kQN31vrM92OPvy5T774p5HN9nxB1WHXazGBS3UaqoyBTsV4FD9i+42rWCiNnLo5mkp+r62fvNB67KPVR+jPG1+xZOzPjHUBlWWuLob6+z1xY125mXL7XtnjrBD9qrSy2kIIIAAAgggkCCBYiloqYwRZV2cnV0Ste0tVMZJaApW/PmvD/tvlaES2kDPOgnXwVcEkiaQqXGxeQyUtOvneotMIBq80KX1RtBC9SfcosG5ZU933rrCF+hcvrrZFDSYMNpFC7LtmVfq3Mojg+wpV5tCTXUqUpFFR1au2bIMjLFuFZN3XNbGfU/U2sc+tDlAMnlMJstDS7HefMkYS7taGtGm7z53zBA76bDBdtE1K+0BV6Tzzgc3ELiIIvEYAQQQQACBBAhooF8sLUyXaVvDQ0GKtttCsGKv3ebYnG2ne4JiKFKqbBFdR7ivBGKK5d3NdXQmkKlxwYKonTnx/AASUPBi3v9O7LUeP/RMnX3txyts+sS0y3wotQVvNvgVPXQC1Y9QZsOec9w53eoeF169yte7ePmNzBQPrf6hpqKYDz9b5wMQytZQjYqutKNdsEI1NVSw8yNnv2vTJqT9NJLzTx3ui3Kq5sbh/7rE9nLnX+2miWh1khvdyienXrzUPV9iW08ps9ddYVC1aIClK+dmHwQQQAABBBAoHoFiGeD6gbsbvEfbfkec3qr2RXRQXyzXHb1eXdPP3Ya2U2Ci+/AYgWITSPnCnGRcFNt95Xp6UUCrh2jlDk250OocqiOh1Tq+dspQX0BTp7r49OE2e1pmeY8QtNC0jM9ll149ygUgwvSRR5+vswN2bT1lo3W+xObOf+qIGpdpkVlSddXaZnvy5XpTMVAFS648d5TP6FB/7nZTVhQ4CdNGtCTqc6/W2y33bDCtcDJnRpkvGrr5yDxCAAEEEEAAgSQIaBBfzAUtw+A9WrciGrgoxnusa/3J97/qP4rx+rgmBPIJkHGRT4VtCEQEdppVbg/890Q3ZaPRVq5p9sGCiW6qRnR6hgIF1188xgc1lq5ssolj0j64EA4z1a0GMvfqCS740eAzH7QayHfPDM+a6fX5skTK0iV2wT8Pt2+cNtyWrW7y9SuGVGfqXSiz5J6rxpvOp0yL0e4YI7K1MK5wK5CotsZCd77xo1r3ZfNZeYQAAggggAACxSyQb1BfrNcbgjPFHrQo1vvHdSHQmUBmVREyLjpz4vmEC6hOxSQXjJg0pmMI1bTQR75W4o6hKSPdaSl3SC3Lmq+Ncdv10bapz909X9tj8T0CCCCAAAIIDDyBUPchDOoH3hV0vce6VmUiELjouhl7IjCQBMi4GEh3i74igAACCCCAAAIIJErA13SIFGMMF//Gm+/kBulhW9uvYRAfnUbRdp+B/n3UJ2SYFGNdi47u09jRI/zTD897tqPdcs+F/cLrck/wAIEYC5BxEeObQ9cQQAABBBBAAAEEEAjFGEMgQiIvLXjDf3Sko0yLJAziVe9BNvpIyjVH7/ugQZV27lkn2xX/daO9/Mqi6FPtPtb+eh0NgYEiQMbFQLlT9BMBBBBAAAEEEEAgkQLKKtDgPGQUrF6z3oYNrenUopgzLdpevAI0SQjStL3u8P0xR+xvhx6wl723bGXY1O5XZVoQtGiXhydiKpBuaXEFLvRBQwABBBBAAAEEEEAAgdgKJCkQEdubEOOOKRgxbcqEGPeQriHQfQFXv89V8FPVQBoCCCCAAAIIIIAAAggggAACCCAQM4FUiynjIma9ojtFKqAgWZFeWlIuy98/bmJSbjfXiQACCCDQE4Ei/b1ni38XwCHzLsKhJ/+aeC0CqRJlW/gfQGAg0PcCFWWltrGuqe9PxBl6XUD3TfePhgACCCCAAAJdEyi233u6+7sADpn3Cw5d+3fDXgjkE0hR4yIfC9v6QkAxsmHVaVu1rr4vDs8x+1hA9033j5llfQzN4RFAAAEEikKgGH/v6c7vAjhk3s44FMU/ay6igALUuCggfpJOrcwefdQMSllTU4utWEvwYiDdf90v3Tfdv3AvB1L/6SsCCCCAAAL9KRD+W1lMv/d053cBHDLvOhz6818f5ypWgXSmxgVFLor1BsfpuvRDuzSVspFDSl3gotFq65ts+OByG1TB9IM43adoX5QSqr+uKGih+6b7p/tIQwABBBBAAIGOBYrl956e/i6AQ+Z9gkPH/154FoHOBNJaVaSFcUhnTjzfCwL6gZ1yA1/N7xs7rMTW1zbbkhW1Vtfgal4QO+sF4V4+hPu5oHs1tLrUaga7oEVpyt8/3UcaAggggAACCHQsUBS/9/TC7wI4ZN4nOHT874VnEehMgIyLzoR4vlcF9EO7tLTU/9V+yCA3daQyZS0taXcOIhe9Ct0rB8tM70m5CWUKOOlD94+GAAIIIIAAAl0TGPi/9/TO7wI4ZN4vOHTt3w17IZBPIJNxke8ZtiHQRwL6oR0GwS6G4QIXBC36iLrHh9W9UtPX8LjHB+UACCCAAAIIJEhgoP/eE/7739PfBXDIvOlxSNA/fi61VwUyGRf8tbtXUTlY5wLR//gRuOjcq1B76D7REEAAAQQQQKBnAgP5957e/F0Ah8z7CIee/Xvi1ckUoMZFMu97rK66N/+DGKsLozMIIIAAAggggEAbAX7vyYDggEObfxp8i0CHAilWFenQhycRQAABBBBAAAEEEEAAAQQQQKCAAq7snlLBSQcv4D3g1AgggAACCCCAAAIIIIAAAggg0I5AJuOCGhft8LAZAQQQQAABBBBAAAEEEEAAAQQKKZDKnJyMi0LeBM6NAAIIIIAAAggggAACCCCAAAL5BbKBC5ajzM/DVgQQQAABBBBAAAEEEEAAAQQQKKQANS4Kqc+5EUAAAQQQQAABBBBAAAEEEECgQwFqXHTIw5MIIIAAAggggAACCCCAAAIIIFBIgZJXF73nV0SdOnFUIfvBuRFAAAEEEEAAAQQQQAABBBBAAIH3CVDj4n0kbEAAAQQQQAABBBBAAAEEEEAAgbgIpM1YUSQuN4N+IIAAAggggAACCCCAAAIIIIBAa4GUtWhFEVYVac3CdwgggAACCCCAAAIIIIAAAgggEAeBVCbhgqyLONwM+oAAAggggAACCCCAAAIIIIAAAq0FqHHR2oPvEEAAAQQQQAABBBBAAAEEEEAgRgLZwAUZFzG6J3QFAQQQQAABBBBAAAEEEEAAAQSyAq7GhR5R44J3BAIIIIAAAggggAACCCCAAAIIxE+AGhfxuyf0CAEEEEAAAQQQQAABBBBAAAEEsgJkXPBWQAABBBBAAAEEEEAAAQQQQACB2AqQcRHbW0PHEEAAAQQQQAABBBBAAAEEEEAgk3HRQo0L3goIIIAAAggggAACCCCAAAIIIBA/gbSxoEj87go9QgABBBBAAAEEEEAAAQQQQAABL5CtcYEGAggggAACCCCAAAIIIIAAAgggED8BalzE757QIwQQQAABBBBAAAEEEEAAAQQQyAqkfHkLalzwhkAAAQQQQAABBBBAAAEEEEAAgRgKpEuocRHD20KXEEAAAQQQQAABBBBAAAEEEEBAAtlVRcBAAAEEEEAAAQQQQAABBBBAAAEE4ieQXVWEtIv43Rp6hAACCCCAAAIIIIAAAggggAAC1LjgPYAAAggggAACCCCAAAIIIIAAArEVoMZFbG8NHUMAAQQQQAABBBBAAAEEEEAAgWzGBRAIIIAAAggggAACCCCAAAIIIIBA/ATIuIjfPaFHCCCAAAIIIIAAAggggAACCCCQFUi3tLhH+qAhgAACCCCAAAIIIIAAAggggAACMRNI+/VEWFQkZreF7iCAAAIIIIAAAggggAACCCCAgATSPtmCjAveDQgggAACCCCAAAIIIIAAAgggEEMBalzE8KbQJQQQQAABBBBAAAEEEEAAAQQQyAhQ44J3AgIIIIAAAggggAACCCCAAAIIxFaAGhexvTV0DAEEEEAAAQQQQAABBBBAAAEEqHHBewABBBBAAAEEEEAAAQQQQAABBGIrQMZFbG8NHUMAAQQQQAABBBBAAAEEEEAAAZdx4ZYUYVUR3gkIIIAAAggggAACCCCAAAIIIBBDgZRZiZWUxLBndAkBBBBAAAEEEEAAAQQQQAABBBIv4AIXLuGCjIvEvxEAQAABBBBAAAEEEEAAAQQQQCCOAtS4iONdoU8IIIAAAggggAACCCCAAAIIIOAFqHHBGwEBBBBAAAEEEEAAAQQQQAABBGIrkKlxEdvu0TEEEEAAAQQQQAABBBBAAAEEEEiygAtc+HVFkmzAtSOAAAIIIIAAAggggAACCCCAQEwFyLiI6Y2hWwgggAACCCCAAAIIIIAAAgggYEbGBe8CBBBAAAEEEEAAAQQQQAABBBCIrYDPuIht7+gYAggggAACCCCAAAIIIIAAAggkWsBnXCRagItHAAEEEEAAAQQQQAABBBBAAIHYCqTNStz/WmLbQTpWGIGWFt4ThZHnrAgggAACCCCAAAIIIFBSUgICAjmBtLkBKkPUnEeiH4RgRfja3NycaA8uHgEEEEAAAQQQQAABBPpfIJVKuWFqi4XgRfja/z3hjHERSLt3g1sRldBFXG5IIfqRC1S490F9fYNt3FRn9Y2N1tRE4KIQ94NzIoAAAggggAACCCCQZIHS0pSVp9M2qKrCysvLtKKEbwQwkvuucFNFCFok9/YrZuUybtxHk8uuWLt+k9U3NNiQmkE2vLLGysrc24OGAAIIIIAAAggggAACCPSjQENDo22qrbfV6zZYeVmZG59UWanLwlAjeNGPNyJGp/I1LghexOiO9GNXckGLpib/Q0GBikmjRvVjDzgVAggggAACCCCAAAIIINBaQOMSfQwZPMhWrFprq9eut2GDq620tNTvSPCitVcSvtPkIXedZF0k4Wbnu0ZNB1mzfqP/wTBy+JB8u7ANAQQQQAABBBBAAAEEECiIgMYoCmJozMJU9oLcglicNOVrXLh1RWjJEvDTQ1zQoq6+3hoam4ygRbLuP1eLAAIIIIAAAggggMBAEdBYRWMWjV0UvNBYhpYsATdRiJuerFueuVr9W29pafZzx1TTgoYAAggggAACCCCAAAIIxFVAYxbVvdAYhrhFXO9S3/XLBS7Itug73ngeOROhbLFGF7VsdPUtqirL49lReoUAAggggAACCCCAAAIIOAGNWTR20RhGf3wn6yJZb4tUGMQm67K52ma3iohWEmlqbmH1EN4OCCCAAAIIIIAAAgggEGsB1bnQ2EVjGI1laMkSSPuKrMwWSdZdD1fr0qxoCCCAAAIIIIAAAgggkByB/spU6LOVPxjDJOfNGrnStN64JdS5iJAk46GvcZGMS+UqEUAAAQQQQAABBBBItIDGfJtq62z9hlpX5LKxz4sF6O/iZem01VRXuikeFW49iN4rT6BjU+MieW9nMi6Sd8+5YgQQQAABBBBAAAEEEEiIgGpCrFm3wQcPhg2tsXI35aI/Wn1DowuUbPIFNYcOrrZ0urQ/Tss5ilQgU+OCkFWR3t5OLospQp0A8TQCCCCAAAIIIIAAAgNXQJkWa9ZusIryMhsxbHC/BS0kpgCJzqlzK3DSa1NUGMMM3DdkD3qe8mk7vZi604O+8FIEEEAAAQQQQAABBBBAAIFeEAjTQ0pSJW7KRlUvHLF7h9C5NebUVJVeC150ryu8agALsKrIAL55dB0BBBBAAAEEEEAAAQQQaE9ANS0KGbQI/VIf1BcaAt0VyGRc9Hl5lu52j9chgAACCCCAAAIIIIAAAghsiYAyG/ShQpz9VdOio/6pD+pL6FdH+/IcAvkE/Koi7h2U7zm2IYAAAggggAACCCCAAAIIDFCB3lvLo+cAcepLz6+GI/S3QGZVkf4+K+dDAAEEEEAAAQQQQAABBBBAAAEEuiBAxkUXkNgFAQQQQAABBBBAAAEEEEAAAQQKI+BrXPiVRQpzfs6KAAIIIIAAAggggAACCCBQYIHFS+sL3ANOj0D7AmRctG/DMwUUUOGepqZm34N0urTfevL24netubnFJk0cZ6lUqkvnbWxs8vuVlqb8Uk/6Jt+2Lh2MnbotsGHjJqseVLilvrrdcV6IAAIIIIAAAggUWOCqX7/je7DnDoP91z22z3wtcLc4PQI5AWpc5Ch40NsCK1etNgUC1MaOHmVjx47u8in+dv/DdsPNf/D7X/rt87botV0+SXZHBUlu+f2f7KFHHrf16zf4rccdc4R99LCDOj3Ue+8ts/O/dZnf78QTjrZDDvqg5dvW6YHYodsCun8/+NE1Nn/Ba7b/B/e2z5x8fLePxQsRQAABBBBAAIGkCUQzLeY9t67V5RPAaMXBNwUUIOOigPjFfGoNJq/4z5/ZEjewV9t3793tn0/9ZJcv+bkX5/t9y8rK+jRooZPcevtd9pe/3u/PN6iq0qqrB9mc7Wb57zv79MJLC3K7bLfNTP8437bcTjzokcAd/3ePLV+xyj64z542c8ZUf6wVK1f5oEWPDsyLEUAAAQQQQACBhApMHFNu+lAA419OnGCPPb/OQgBDX5WFQQAjoW+OGF02GRcxuhnF1JX7HvhHLmih61L2xZa0+fNf87tvt82MLXnZFu/b1NRkd899wL9um61n2HlfOWOLjhENsEycMM6/Nt+2LTooO+cVWLpshf3hj3/xzx34oQ/k9hk5Yrid+PGjza1Wbvvvt1duOw8QQAABBBBAAAEEuiawxw5DbPHc5T54oSCFPkIAQ8ELAhhdc2SvvhMg46LvbBN75PUbNtrNv7vDX7/qPqhWRb7AxQa3n7ITXnYp/mNGj7RtZk23qVMm29Kly622rs6/fs7sbfzXdevX29PPvugfV5SX25677+wfRz9tqq2151+Y76enrFq9xtLptO260/a2/ZzMMaL76vHadevt0ceesoaGBv/UsKGD7e8Pz7OtJk20KVtN9Nt0vFdeW2ir16w1BSb23mMXGzJk85y/EGCZNXNqrr5Fvm06mOpezHv8KXvz7XessaHRpkyZ5DNRVEtDmSk6j9ours81Lutj7dp19szzL/lte+62k1VUVJgG7/NfyQR1tnc2i95cbLIZOniw7bjDdn7fl15+xZa7LISqykrbfdcd/fOyK/UYmNAAABWFSURBVEuXeYtH5z3p+zB2zGg/taKzuhBLly23p555wfdx65nTbfrUybbA9XVwTY3tvONsk/Xz2QyZHedsa0OHDjG9B5565nnfn+22nmmjRo3wjxvcdcv8zbcWW0Njo8ts2dr30T/pPjW6bfMXvG7Pvfiylbv7vI0736yZ01yWxUoXtLgr7OZe/4695aYh7bPXbs7tDausqjC9L2QUmvwee/JZW/zOEqt027fbdqbt4PoXmqYxLVz0lo0eOcK/7+Y98bS95Y47uKbaDjpgX6txX2kIIIAAAggggECSBB57zv3Oe/Aof8kEMJJ05+N/rWl1kVVF4n+jBlIPf/2b23wwYOyYUW6wOMuUfbFmTev5cvMef9quue6G913WdT/9gQ9mhCc0sF21ao39+/d/7IMHCoR85ezPh6dbfT3/wu/7YER0o879OTdFZR83VaVtu/Ty/7L3XJAktEcfe9oNqp+20z59gg0fNsR+9JPrbJEbYEfbbe4v/t+7+Os2fPhQX8siBFjCgFj1Ldpu0+tfdYPrK6/+Ra6GRjjmvX97yL71zS/bC27gf6NzU5vyzUk+cHHLrX+yhx95wm/T4F+D8l/e+Dt70QUmNBD/4WUX2VU/u94HhhTYCIGLq372v7ZxU61t7QJBClzMe/wZuzFbLyQEkvxB3acHXaDmEldDpL02928P5vqlfe7/+yO5XXfZaY4PXOgYIRPiiksv8M8/+fRzdv2vfusfX3T+OT5wseCV1+3Kn/7c9y0cRMc7+RPH2MEH7uc9L/jO5bmirNrnT+7j7DNOs584u2i7/obfmqYRacrItf9zo39vTHWBoBDQUo2Um265rdWx7rrnPjviIwfa8cd+1B/q97f/2Z5xAR1ZNjQ2tNp3wasL7dwvfSF6Sh4jgAACCCCAAAJFKxCdLtL2IglgtBXh+0IIpHRS1SOgIdAbAgvfeNP+4f6ir3bKSceZakaoaTAf3mfKGghBiw/suat99tOf8APKIw8/2K/kEZ1qoRVFLnSDWWU8aIB50flf8sEQf9DIp7q6ehsxYph9cN89TUUydazQdL58bacdZpsG8mo69gFu+oE+Zm+7tV32w6tzQQsFBcI0EF2HsjLUorUsFGBpb5vOf7mr96HCnxpsq4BkcFFg5LXXF/m6Gv4A7pP6tGLl6lzQQtub3b/Rd5cs9UELfX/yicfa4neX5Abbc7JZJar3oKCF2g7ZbJWQDaFtu+28gx1+6AG+H/pemR7KqMjXHnH3MQRTFIQ65qiP2DSXbRGaMj7Unnv+Zf9VGQojhg/zj5WpoqZrmbLVJH+Oy//zGt+3nVyWxudPO8lGZ7MwHn/qOb+vzJWdM2XyRP+eOPZjh/lAhM694/abMyWmT9vK36dPHHekD1TpvaEW+vOEO96vfn2rP5b6o/dEaKplElZ8CZkxClrotYcdsn/YLW+GUO5JHiCAAAIIIIAAAkUooOkiatFindHLVABDNTDCyiOaPqLVSDSlhIZAXwu4jIsSl3HR16fh+EkQUGDi2p/f5C915vQpLgAwy95wqfihKXVf0wii00ZKUiW2gxuU7rfPHmE3CwNKpexf/N0f+aDHkME1dqH7y73qGeRrFRXlPqgRntO0kT/9ea7/drSbhpKvHX/sEbn6FnvsvpN92gVa1O5zWQAKEqipoKgKi65xg+Mvn/cdv22dm2KiFg2whMBGvm2/dZkTYTrKJd/+ur+GWTOm2nXX3+yPoykrNdWbpyWkS0vttsi0CL+T+3T7HZn6DuPHjfF9UqHK0PIGTmZnginBc7YrOPrFz5/iX6JYpTIQ1DR9I1/TSitqw9w9U1aGMrPKy8ts4RuZezrHHb+5udlPt9B+s7PFSfX4xWzR0hnTM1NodCwFJRTcOOGfjvTHmjRxvC1bvtJPzdBrQgBCQRpN1Ym+J3Z1AZdnswGST33yWD+1Q6/RtJPQ1B+9B3/xy9/4TXrPXH7JN/25NDVHATX1QXVNVripJyEzRhkYH/lwJmhxz71/9/uMctNHaAgggAACCCCAQJIElHWhduf9K2zMiLIOL137rlyTmW6tAMZTL623U48ZZ+VlDCw7hOPJbgu4wIUraadRDA2BHgrce99DuakX+kv3nXfd22q1B9VCUOBinFsWVRkOGjhqKoQ+jjv6cPuoy5KITrUIAQ5lJ3zXTc9Q3Yf2mjINfnXT7/2UDGUc6PihbeumWeRrmr4RWhj463tNj1DTIFsZIWq1tZmaG3o8bNhQfckFWGZ1UN+izl2jMgDUdttlh1zgJXo8TUuJ/htcvXatX5pVmQYKFigrYqW7vnlPPOOPo6ksal3JdNBrwwA9TGfRazdlszL0eNTI9weDVCcjBBKOPvJQ3w/tGzIp5DvGLXH72sJFfqCv59rL+pDBk08/r1181sk3L/6Bfxw+hdVBJk+aYG+5+h/6+NZ3f+hqfcyxL37uFJcdks7V0AgZHOG10WySGdOmuoDJK7mMk2NcxkaYBrfRBbLU9HoFufJly8hKgQ217bNBH/8NnxBAAAEEEEAAAQTeJ5BOp9zvmZnfnaoqUi5z+n27sAGBXhNwgQtqXPSaZoIPpGkQN//ujzkBDbLDQDtsVK0KFd/UX/C/5zIPfnfrnblpJao3sPdeu7YaUGpahTIVFIhY6aZOtBe4UNDi3y681A86Nf1gVxcg8IU83YBZwYeRbgpJvhYd9KpwY2hL3stkW0x1UxxUOFPt/gcfDU/7Ao/RAEsICOTbFp2moiKToSmrQ03XqAG7poaEdtsdd/uHJxx3lClbQ+32OzPZFRrMz3RZDF3NdMg3QNdUiZCpoKkf0YKW/mTukwqIhjZt6lb+oYIroTBo8AqZFdohBH9andMFAKIGyqIYng38hOMro0Xtwn87x/7oskj+cs/9/r6rIOg/5j1hH9p3r/dlcITXvvDiAv9Q9S00reitxZv7rawWtY0bN7mAS2Y6yzazZvht+TJjov2enZ3643fmEwIIIIAAAgggkACBMOVjl+1qOlz+VFNJVMRz3YYmr6LsC00zSZeSbZGAt0nBLtEHLqJ/7S1YTzjxgBa48Td/yP21+qgjPpz7S7dWdAgZB8qg0F/fS0pSfvD6+c+eZLPdwPZ/slMmlMIfHVCeefop9uOrfu5d/vsXN9m/X3RuXiOtNqG/lCsLQIUzS91Ui2986zL/1/3o9IW2Lw6DXmWHaIUMNQUEwl/d12/Y4B43+Wkj99z7gH9eU0K2mjzB/v7QPP+9PoWMARV0DC1sW7t2fdhkq13GidrDjzzuVz7R4wP3/4DvbzQoM9+tsqJsCwUpbvn9Hdotl7lyspsmofbW2+/m+jnOTR1RUwZJR/UtRo8a6VftuPX2u3JZGEcdcYh/bdtPWvElNNXA0DW/NP/V3DlDPYkXX3417ObrW6jWyDxX4FQtZEc8lw0aaNu2bsnZaKHU+voGn1GhVUhk8E8uS+Lg/ffJTctpckEWrZoSrmvypPE6jG+aYhOyQkJ/okVgV69e6x1/4wzDPT3skAP8a8P0mWi2TAhkKZgUpv5kzsRnBBBAAAEEEEAgOQKqZZGvhYBFqIGhWhft7Zvv9WxDoCcCZFz0RI/XegEVl9RqHGqHHvwhU1HF0DTYjQYu/nz3ffZHlz2g+gMj3RSFtxcv8bvqr+6aehAGlNttM8NUPFOFGF9f+KZf0lLBgmihxXCOUI9CUyJUN0ID+DDNJCynGvYNX7XsZlgxRLURQlOGhYIGWm3kjUVv2xf/9fzcoFcD2nPO/KzftT67hKq++f4VV/mASb5tUyPFLO9ymQShhoJep8Hx8cdkVrioyhYx1XY11YFo2w53K2KE4pcpVxskNHn+1dVmCIN7bQ/XFDy17YxzvuGDCWEQL/Odskuo6vloGz9ubO7bn177S58ZEup06Ilw/NJITuBZX76gVR9CfQtlroSm+3OTWz1FS8ouW77CDj5gP7/yySVuhRcFnsaPH+PqT6zyuyt7Rvdb9yK0uW4VlgcenOd8PtpqudKQIaGVVFSAU+0/rry21fUe5AIiWho3X2aM9g9W0WCGttMQQAABBBBAAIEkCKhWRSi8Gb1eZWLoudAIWAQJvvangM+DJ+OiP8mL71zXXf9rf1Ea2B991KGtLrB6UFXue/0FXNkQGqDqr+Uq8qiB7z5772af+dTH/ZSCUI8hBBxOddtDu8Et6am/6LdtBx2wrx9Ya7uWWZ00cVxulzCgzW3IPlAwJLQwxSF8f7rLBAmrfoRBvgbE37ngK35ZT+03wwVUdB1qVVVVboWMkXm36fpPPWXzNYTjafWSb3z9LD+9QcdQLQZlKKhpwL7Lztv7x+GTzvWxSHbECFekVFNuQqusrPQFO/V9yHSI1rcIK3jo/DqWgiAqPBpqQITjhK9777mLnxITvtd9Cv3T6xVkUlMgIDQFTvb9wO65gEJY1URBik8ef1TYzQc31LeK8nLbfbcdTYVUFZDRvdd7YsPGjb6w61fP+YLzSZuKkW7jMjVCU19mzZyeW2FF2zV9Rk2BmGhwS9er9+WJHz/aQrbKSy6jJbRw7zWdJbz3wtSfsA9fEUAAAQQQQACBYhcI00TCdfrsChew0KohClpoOsgxB4/yq4qQZRGU+NqfAiULFi5x1TnNpk8e3Z/n5VwFFFCgSnUOat2Acc2GWpsyKTPVoD+7tNytJqGBolaW6I2m61n05tt+kDsoEizp7rFlpBUvVMRy3NhReetAaDWOuvr6VrU38m1TH9Q/1c5QoEDFSRXA6Y32pltOVQVPh7rgQNs21xVLvdEFe9S+c+FXfXBljVvZZUw7q6y0fb2+V1BBNSIUWDj9rPN89ommsJx9xmm53TWVQ0EpZWmozkR7TQZvuxoUslWB07a1LjRd5L2ly0wZGvl8tCpNqQtkRINh7Z1LxU/lnalxMrzdAE17r2c7AggggAACCCAwkAX0+5Y+lixdaRPGZf7g1NH13DZ3uV8GVcEJ1a8I00FC/Qp97Wl7Z8lyGzdmhP+9rL0/nnV2jkVvL7Wh1ZWmP9rp987uHqez8/B8/AT8VBGtLEJDoD8FRrmsgt5s+sE1wy3B2ltNPwQ7G+BrtQt9RFu+bXpe/eutIE30fFtNnhj9ttXjtjUbunJNrQ7gvqly/1HQh1b6CNkioZ5E2Ff1QUKNkLAt31cZqDhre001LmqmtX8PlbnR1VZZWdHhubp6HPZDAAEEEEAAAQSKXUBBihCoUABDrTcDFsXux/X1j0Bm1OUGaTQEECgugd6s2RBdcSPUtyguLa4GAQQQQAABBBBIpkA0m4KARTLfAwPhqjOBC5dGREMAgeIRUGqgVm1R09SUnjbVfRg7ZrRPxwv1LXp6TF6PAAIIIIAAAgggEA+Bfzlxgs+6iAYx4tEzeoFARiCb507GBW8IBIpJQNNCVIuit5pWQGGJ0N7S5DgIIIAAAggggED8BAhaxO+e0KPNApllDKhxsVmERwgggAACCCCAAAIIIIAAAgggEBuBbOCCjIvY3BE6ggACCCCAAAIIIIAAAggggAACOQEyLnIUPEAAAQQQQAABBBBAAAEEikcgTpUM49SX4rnDybmSbOAiORfMlSKAAAIIIIAAAggggAACSRAoS6etvqGx4JeqPqgvNAS6K0DgortyvA4BBBBAAAEEEEAAAQQQiLFA9aAKW79hU8F7qD6oLzQEuitAjYvuyvE6BBBAAAEEEEAAAQQQQCCGAlphTh+VFeXW0tJS0OCFghbqg/oS+hVDMroUc4F0ZkERZhzF/D7RPQQQQAABBBBAAAEEEEBgiwQUKBhcXWXr1m/yU0Zq3OPysv6ZsqHpISFooT6oLzQEuiuQNr1/iFt014/XIYAAAggggAACCCCAAAKxEwiBgnS61IYOGWS1dfW2es16a2hs9EPAvuywhpeqaTGoqtxnWqRSKbIt+hI8Acfun3BbAiC5RAQQQAABBBBAAAEEEEAgTgIheKHAQVVlhQ8ihP5p+kZftHBOHVuPox99cT6OmQwBAhfJuM9cJQIIIIAAAggggAACCCRQIAQS9LWvghXtsUbP3d4+bEegKwK+xkXfxNq6cnr2QQABBBBAAAEEEEAAAQQQ6EuBaAChv4IX4Zx9eV0cOzkCvsZFCZGL5NxxrhQBBBBAAAEEEEAAAQQSK0BAIbG3fkBfeIrCnAP6/tF5BBBAAAEEEEAAAQQQQAABBIpawJV3Lerr4+IQQAABBBBAAAEEEEAAAQQQQGAAC/iMC2aKDOA72JOuE7TqiR6vRQABBBBAAAEEEEAAgf4WYAzT3+KxOJ/PuODex+Je0AkEEEAAAQQQQAABBBBAAAEEEGgjQMZFG5CkfOtWQ/KzhFKpEmtoaEzKZXOdCCCAAAIIIIAAAgggMAAFNGbR2EV/dNdYhpYsATIuknW/W19tScpSbkmZTbX1rbfzHQIIIIAAAggggAACCCAQIwGNWTR2MTeGoSVPwGVctOj/tIQJpFIpK3Ufafexdt2GhF09l4sAAggggAACCCCAAAIDSUBjFo1dNIbRWIaWLAGXceHSbUi1SdRdz6zdXGLpdKmVl5e7a2+xFSvXJsqAi0UAAQQQQAABBBBAAIGBIZAZq7T4sYvGMJr0nhnTDIz+08ueC2RqXJBx0XPJAXYEX+PCpVmVpdNWWZZ200VqCV4MsHtIdxFAAAEEEEAAAQQQKHYBBS00VtGYRWOXEjeG4Q/vxX7X33997s5nijS+/ym2FLOAIpSlpZoplLbyinJrbmm2jZs22aZ36mzI4Gqrqiy3MvfDgYYAAggggAACCCCAAAII9KeACnGqpoWmh7S4cUpFmcsUd2OWtAtcaAxDtkV/3o14nCtNjYt43IhC9UL/8F2IIrPCSEm91dU32Jq169xHiQtmFKpXnBcBBBBAAAEEEEAAAQSSKuAWD3GtxVTJorK8zCpc0KKsrMwHLZJqkvTrVq6NG7QyQk3iGyFEKktL3TwxvQ9SpZZ2WRaNjY3W1NRsLc3ug8qtSXxrcM0IIIAAAggggAACCBREQGOUEhXhdH9gVYZFOl3ma/OpKKd/zj1PS56Ay7hwsSziFsm789krDsGLtAteqDpv2v2AaHbRzCYXtNAbQ19oCCCAAAIIIIAAAggggEB/CPgFQ1xwIqwektI4JRusCGOX/ugH54iXADUu4nU/CtKb8ANAqVgpF9VUlkWZe9xM1KIg94OTIoAAAggggAACCCCQZIGw3GkYp4SvSTZJ+rVT4yLp74DI9YcfCPqq4IWfQhJ5nocIIIAAAggggAACCCCAQH8IhLFJf5yLc8RfwC0boWVFmCsS/1vVvz3kB0X/enM2BBBAAAEEEEAAAQQQQACB/AJudoCKXOR/kq0IIIAAAggggAACCCCAAAIIIIBAIQX+H3tJsbsN3U3jAAAAAElFTkSuQmCC;" parent="1" vertex="1">
          <mxGeometry y="271" width="928.16" height="338.3" as="geometry" />
        </mxCell>
        <mxCell id="RAb3Ar-sFwlH_cfJhrFY-51" value="&lt;span style=&quot;border-color: rgb(218, 220, 224);&quot;&gt;&lt;font face=&quot;Verdana&quot; style=&quot;border-color: rgb(218, 220, 224);&quot; color=&quot;#0000ff&quot;&gt;qbusiness-webexperience-chat-user-background-color&lt;/font&gt;&lt;/span&gt;" style="text;html=1;strokeColor=none;fillColor=none;align=left;verticalAlign=middle;whiteSpace=wrap;rounded=0;fontSize=13;fontColor=#000000;container=0;" parent="1" vertex="1">
          <mxGeometry x="450" y="296" width="363" height="30" as="geometry" />
        </mxCell>
        <mxCell id="RAb3Ar-sFwlH_cfJhrFY-52" value="&lt;span style=&quot;border-color: rgb(218, 220, 224);&quot;&gt;&lt;font face=&quot;Verdana&quot; style=&quot;border-color: rgb(218, 220, 224);&quot; color=&quot;#0000ff&quot;&gt;qbusiness-webexperience-chat-user-text-color&lt;/font&gt;&lt;/span&gt;" style="text;html=1;strokeColor=none;fillColor=none;align=left;verticalAlign=middle;whiteSpace=wrap;rounded=0;fontSize=13;fontColor=#000000;container=0;" parent="1" vertex="1">
          <mxGeometry x="450" y="326" width="309.5" height="30" as="geometry" />
        </mxCell>
        <mxCell id="RAb3Ar-sFwlH_cfJhrFY-56" style="edgeStyle=orthogonalEdgeStyle;rounded=0;orthogonalLoop=1;jettySize=auto;html=1;" parent="1" source="RAb3Ar-sFwlH_cfJhrFY-55" target="RAb3Ar-sFwlH_cfJhrFY-52" edge="1">
          <mxGeometry relative="1" as="geometry" />
        </mxCell>
        <mxCell id="RAb3Ar-sFwlH_cfJhrFY-55" value="" style="rounded=1;whiteSpace=wrap;html=1;strokeWidth=1;dashed=1;fillColor=none;container=0;" parent="1" vertex="1">
          <mxGeometry x="127" y="318" width="206" height="24" as="geometry" />
        </mxCell>
        <mxCell id="RAb3Ar-sFwlH_cfJhrFY-57" value="&lt;span style=&quot;border-color: rgb(218, 220, 224);&quot;&gt;&lt;font face=&quot;Verdana&quot; style=&quot;border-color: rgb(218, 220, 224);&quot; color=&quot;#0000ff&quot;&gt;qbusiness-webexperience-chat-agent-background-color&lt;/font&gt;&lt;/span&gt;" style="text;html=1;strokeColor=none;fillColor=none;align=left;verticalAlign=middle;whiteSpace=wrap;rounded=0;fontSize=13;fontColor=#000000;container=0;" parent="1" vertex="1">
          <mxGeometry x="447" y="376" width="370" height="30" as="geometry" />
        </mxCell>
        <mxCell id="RAb3Ar-sFwlH_cfJhrFY-64" style="edgeStyle=orthogonalEdgeStyle;rounded=0;orthogonalLoop=1;jettySize=auto;html=1;entryX=0.5;entryY=0;entryDx=0;entryDy=0;" parent="1" source="RAb3Ar-sFwlH_cfJhrFY-58" target="RAb3Ar-sFwlH_cfJhrFY-63" edge="1">
          <mxGeometry relative="1" as="geometry" />
        </mxCell>
        <mxCell id="RAb3Ar-sFwlH_cfJhrFY-58" value="" style="rounded=1;whiteSpace=wrap;html=1;strokeWidth=1;dashed=1;fillColor=none;container=0;" parent="1" vertex="1">
          <mxGeometry x="127" y="401" width="583" height="49" as="geometry" />
        </mxCell>
        <mxCell id="RAb3Ar-sFwlH_cfJhrFY-63" value="&lt;span style=&quot;border-color: rgb(218, 220, 224);&quot;&gt;&lt;font face=&quot;Verdana&quot; style=&quot;border-color: rgb(218, 220, 224);&quot; color=&quot;#0000ff&quot;&gt;qbusiness-webexperience-chat-agent-text-color&lt;/font&gt;&lt;/span&gt;" style="text;html=1;strokeColor=none;fillColor=none;align=left;verticalAlign=middle;whiteSpace=wrap;rounded=0;fontSize=13;fontColor=#000000;container=0;" parent="1" vertex="1">
          <mxGeometry x="259" y="482" width="320" height="30" as="geometry" />
        </mxCell>
        <mxCell id="RAb3Ar-sFwlH_cfJhrFY-67" style="edgeStyle=orthogonalEdgeStyle;rounded=0;orthogonalLoop=1;jettySize=auto;html=1;entryX=0;entryY=0.5;entryDx=0;entryDy=0;" parent="1" source="RAb3Ar-sFwlH_cfJhrFY-66" target="RAb3Ar-sFwlH_cfJhrFY-21" edge="1">
          <mxGeometry relative="1" as="geometry" />
        </mxCell>
        <mxCell id="RAb3Ar-sFwlH_cfJhrFY-68" style="edgeStyle=orthogonalEdgeStyle;rounded=0;orthogonalLoop=1;jettySize=auto;html=1;entryX=0;entryY=0.5;entryDx=0;entryDy=0;" parent="1" source="RAb3Ar-sFwlH_cfJhrFY-66" target="RAb3Ar-sFwlH_cfJhrFY-18" edge="1">
          <mxGeometry relative="1" as="geometry" />
        </mxCell>
        <mxCell id="RAb3Ar-sFwlH_cfJhrFY-69" style="edgeStyle=orthogonalEdgeStyle;rounded=0;orthogonalLoop=1;jettySize=auto;html=1;entryX=0;entryY=0.5;entryDx=0;entryDy=0;" parent="1" source="RAb3Ar-sFwlH_cfJhrFY-66" target="RAb3Ar-sFwlH_cfJhrFY-3" edge="1">
          <mxGeometry relative="1" as="geometry" />
        </mxCell>
        <mxCell id="RAb3Ar-sFwlH_cfJhrFY-66" value="&lt;font face=&quot;Verdana&quot; color=&quot;#0000ff&quot;&gt;qbusiness-webexperience-font-typeface&lt;/font&gt;" style="text;html=1;strokeColor=none;fillColor=none;align=center;verticalAlign=middle;whiteSpace=wrap;rounded=0;fontSize=13;container=0;" parent="1" vertex="1">
          <mxGeometry x="7" y="212" width="120" height="59" as="geometry" />
        </mxCell>
        <mxCell id="RAb3Ar-sFwlH_cfJhrFY-25" value="&lt;span style=&quot;border-color: rgb(218, 220, 224);&quot;&gt;&lt;font face=&quot;Verdana&quot; style=&quot;border-color: rgb(218, 220, 224);&quot; color=&quot;#0000ff&quot;&gt;background&lt;/font&gt;&lt;/span&gt;" style="text;html=1;strokeColor=none;fillColor=none;align=center;verticalAlign=middle;whiteSpace=wrap;rounded=0;fontSize=13;fontColor=#000000;container=0;" parent="1" vertex="1">
          <mxGeometry x="804" y="68" width="105" height="30" as="geometry" />
        </mxCell>
        <mxCell id="RAb3Ar-sFwlH_cfJhrFY-27" value="" style="rounded=1;whiteSpace=wrap;html=1;strokeWidth=2;fillWeight=4;hachureGap=8;hachureAngle=45;fillColor=#1ba1e2;sketch=1;container=0;" parent="1" vertex="1">
          <mxGeometry x="796.5" y="6" width="120" height="60" as="geometry" />
        </mxCell>
        <mxCell id="mUxvejZHNIjnbuFFz3lB-8" value="" style="shape=image;verticalLabelPosition=bottom;labelBackgroundColor=default;verticalAlign=top;aspect=fixed;imageAspect=0;image=data:image/png,iVBORw0KGgoAAAANSUhEUgAAADAAAAAwCAYAAABXAvmHAAAAAXNSR0IArs4c6QAAB4FJREFUaEPNmn9wFOUZx593f93t5seSkCNIqfzwUGkdB0qrCHQImgDqEAW1ToeBBmFqbYEKWOzEGRmcMdNSARUsbQc1wjAdawsaRoUkVpgCohVhnLbYkvLDpki4kLBJbvduf72ddy/vsdkuub27kPD+ldzs87zfz/s+z/u++7yLYOAbyuASD2SXmToL0pfbB/mbSRlVeGwP0P9tAHBD5AWUKwC16xVMxHYjiCrMtu7KCSMxinLAj+QBFRDVBuC4CcaFCwi3PFHUfApaZBugCAM4UG6grGFyASA2CKCCAWhlnyq/S67EJQtYm7tXADQDECrtd9ow7tABH7IY8/1m1Ln7hbaPFIDRFsABCpIVRDYAV4RHW9nXlVkTR0LhcgnYHwAAFyTWfJ4xE2C9cR6SW5fIjSehJXuQoAC94qP8pGGjxTp+0nMFwK3IUbSvWRzMLbXGiWdPXG7VAFqM3jzJOBtBAFJxHo1yb12urCpDBZsYQBMGUvyV7Man2nF89SPDmpugpcX05Idvl5kAUuLHjuXf1R54otDmN10L4V6fPYyx+n7xnW1w9iyZCe+q1efx/gDS4vep89eKmF0/GOJpHxqy1s2V9mzIBHE1gLT4veoDK4oxv2EwxdO+upCxdp70zpb+IPwAUgkbjfJ/UGbPKwfpraEQT/tsA/WR78mNe6HFP7H9ABiAKL9q+K1l1eiWowxCo4cSwMa4tQH/c+rmS1+0965OJCfSzQtANigWIhfD+6Bqiwh8zVCKT+cDGPVzoWkFxEYkAA5Y7qOI9xzjhE5998wZ4+yS5utBPNVwhumsrCk6eMgbSh6ACjYSuRjehebsCGF2fj4A8rTxjrk87Sb48oWmfFw5tklk7VmI9y+OeWbBDeDE/oavzZh4p152PJ8eb/vT40ABqJ//bGzOG+RjoX3y2v8eOunOBfepkoVRU4QGY3qtDMIzuQLc+FQVfH1NJShHTkPXR6cdN+R/0vKFUEB/vpo/XAfnj+kA4OSCC2AKV1qqiG8y1R8IiPl2rgDTv/qlY3r4hqf7uKCz4v09m350bH/6qN1wT0eHrAEcI0eNNAA56/A/VCeXLzTGnMvGqftZEjZEqN9IU4C/PfRbZ3Zybbv4c2N+Jx1v601mu/eUCU74bE9Omj2BKdmTq3MKQAQSoe5GQytfgFN25/xloRONNIzSAJHIN8Jb7Yofj2SkVAzk2GgIuYVSML/QyrabC7b69HLmwK9jsX8kSB7QlxS2rOwrcTszZ30JFlZl69RvpMlvNFToipRvEhOfnUjfvMzev669/QaNbGp9AF5HczYVg7AsHwBiS8Kl+K7x6aWUrkgDsR90gb59Cd6/+moALxaD8Fi+ANfSvgv015bg/U/6AryKZtcNg9DyfAR4NzCvr3xWIOLrMiS3LsWNtb4Av4HKVREk5vTiQleZIPD55EIMa+t+BM2bfQE24JkLbmKK64OIcD9D1/ggo0tnyG+pDdLvv+2umrXo4G4PALBkGV1s3zqxmhn/SRBH9Bk68tmMaj6bWoN9+o4dzBcnPctoaiMrty4X7rIfPMoDGhcUIpcNqr8Nr79+DcBnFjJvT21jh/W4NzJi4xwlZF2UdmqzfiWDsDQoQK5nHLLhZRtGCuivLhI//JkiaKr7KEG0IoDUYa6O/+6sifbwt69HgJPMpQdrjb986HeYIxtaOox22NXvh4H9VhAIEkKkZbtJZWuXAOuzxUzDve7wcZ9GU2EEUV6+UZReTkz9/lgsvxIEYLCeOYuUn6wMH/298qWm+r3Q9IZR6pUSIa1gJ67eHQZ+2mAJ7K+fBBhHFqGGBRiL8f5eKdP1IJLM69XJ0yejEXuvB4Dj+OK8ddLxw67kJUVfp/B71bJKOZOUtsLcn46wxdqhhLjIaHXLYd9LbXZIzVRWoTqdXCgthRDLClI9VL1YCPyjQwHRA8abNdD0pGXpakcHJIMUtuisOPWhElsOs12qtBPN3i4Bf99gQqhgvLcINy6ziiW1k1ES2ZQWKYRTVi9hhocIRD2qerkIhIcHA6Ib9D/W4KaVjnj7UjLb4i7VmK5QU4htzN1rRmBxzbWEaEfaxsftP28MIt4vib3a+kBw3Zr4LNw582Yk14Yxd/tAgiSQ+fm/sFL3HHx80CwStUwj7x7lTDrSV0ylHRDieRw2uAJhiz59cTmIS3lgUjXEHJsB9ukLoL62UjjyBm/GdcNAiY5SSA7UFZMbFJHVCSICL4ssH0r0CCZXIDxvfue+MVi+XwLuHgQgBeHAAKoK5gfnkPLuM9xf3+PMuJ4MF+qKZhkQ042BvuTzQFQwEG1lI4rA6yLLh5Mqb1kcZws8+3Nz0h2joOCbBZgbJwAfYQE7F90WoLgORiyOzDPnIf73X3AnPmF0w2JZ00yEJEPQLCMm68a1vGZ1D2yfi24YJbOlCYWzCkWWwpCHMU5X/RxbhJCzc1LRbI9mdYRlE84r1mBddHshriy3MMX5zABUmY0YGoOxU675v4YQi2O8aIOkWKnPDY4RqEH/1MBvpXLBkD+9H3pQE98PPjJeZveXV5nuiYPkpN/MZLLLS7Tb+f8AoVmHaOLPW30AAAAASUVORK5CYII=;" vertex="1" parent="1">
          <mxGeometry x="50" y="302" width="48" height="48" as="geometry" />
        </mxCell>
        <mxCell id="mUxvejZHNIjnbuFFz3lB-17" style="edgeStyle=orthogonalEdgeStyle;rounded=0;orthogonalLoop=1;jettySize=auto;html=1;exitX=0.65;exitY=-0.037;exitDx=0;exitDy=0;exitPerimeter=0;" edge="1" parent="1" source="mUxvejZHNIjnbuFFz3lB-14" target="mUxvejZHNIjnbuFFz3lB-13">
          <mxGeometry relative="1" as="geometry" />
        </mxCell>
        <mxCell id="mUxvejZHNIjnbuFFz3lB-13" value="" style="shape=image;verticalLabelPosition=bottom;labelBackgroundColor=default;verticalAlign=top;aspect=fixed;imageAspect=0;image=data:image/png,iVBORw0KGgoAAAANSUhEUgAABAAAAAQACAYAAAB/HSuDAAAACXBIWXMAAAsTAAALEwEAmpwYAAAgAElEQVR4nOzdCdR+U/3+8cs8j5lChgwRZS6kCWWIyNBMVAgZS4bIUEQRJYqvMiWlNBCZlZAk/E2ZCZnneX7+a7OT/L7Dc+77nLOvvff7tda1aq1i3efz2c897LPP3hIAAAAAAAAAAAAAAAAAAAAAAAAAAAAAAAAAAAAAAAAAAAAAAAAAAAAAAAAAAAAAAAAAAAAAAAAAAAAAAAAAAAAAAAAAAAAAAAAAAAAAAAAAAAAAAAAAAAAAAAAAAAAAAAAAAAAAAAAAAAAAAAAAAAAAAAAAAAAAAAAAAAAAAAAAAAAAAAAAAAAAAAAAAAAAAAAAAAAAAAAAAAAAAAAAAAAAAAAAAAAAAAAAAAAAAAAAAAAAAAAAAAAAAAAAAAAAAAAAAAAAAAAAAAAAAAAAAAAAAAAAAAAAAAAAAAAAAAAAAAAAAAAAAAAAAAAAAAAAAAAAAAAAAAAAAAAAAAAAAAAAAAAAAAAAAAAAAAAAAAAAAAAAAAAAAAAAAAAAAAAAAAAAAAAAAAAAAAAAAAAAAAAAAAAAAAAAAAAAAAAAAAAAAAAAAAAAAAAAAAAAAAAAAAAAAAAAAAAAAAAAAAAAAAAAAAAAAAAAAAAAAAAAAAAAAAAAAAAAAAAAAAAAAAAAAAAAAAAAAAAAAAAAAAAAAAAAAAAAAAAAAAAAAAAAAAAAAAAAAAAAAAAAAAAAAAAAAAAAAAAAAAAAAAAAAAAAAAAAAAAAAAAAAAAAAAAAAAAAAAAAAAAAAAAAAAAAAAAAAAAAAAAAAAAAAAAAAAAAAAAAAAAAAAAAAAAAAAAAAAAAAAAAAAAAAAAAAAAAAAAAAAAAAAAAAAAAAAAAAAAAAAAAAAAAAAAAAAAAAAAAAAAAAAAAAAAAAAAAAAAAAAAAAAAAAAAAAAAAAAAAAAAAAAAAAAAAAAAAAAAAAAAAAAAAAAAAAAAAAAAAAAAAAAAAAAAAAAAAAAAAAAAAAAAAAAAAAAAAAAAAAAAAAAAAAAAAAAAAAAAAAAAAAAAAAAAAAAAAAAAAAAAAAAAAAAAAAAAAAAAAAAAAAAAAAAAAAAAAAAAAAAAAAAAAAAAAAAAAAAAAAAAAAAAAAAAAAAAAAAAAAAAAAAAAAAAAAAAAAAAAAAAAAAAAAAAAAAAAAAAAAAAAAAAAAAAAAAAAAAAAAAAAAAAAAAAAAAAAAAAAAAAAAAAAAAAAAAAAAAAAAAAAAAAAAAAAAAAAAAAAAAAAAAAAAAAAAAAAAAAAAAAAAAAAAAAAAAAAAAAAAAAAAAAAAAAAAAAAAAAAAAAAAAAAAAAAAAAAAAAAAAAAAAAAAAAAAAAAAAAAAAAAAAAAAAAAAAAAAAAAAAAAAAAAAAAAAAAAAAAAAAAAAAAAAAAAAAAAAAAAAAAAAAAAAAAAAAAAAAAAAAAAAAAAAAAAAAAAAAAAAAAAAAAAAAAAAAAAAAAAAAAAAAAAAAAAAAAAAAAAAAAAAAAAAAAAAAAAAAAAAAAAAAAAAAAAAAAAAAAAAAAAAAAAAAAAAAAAAAAAAAAAAAAAAAAAAAAAAAAAAAAAAAAAAAAAAAAAAAAAAAAAAAAAAAAAAAAAAAAAAAAAAAAAAAAAAAAAAAAAAAAAAAAAAAAAAAAAAAAAAAAAAAAAAAAAAAAAAAAAAAAAAAAAAAAAAAAAAAAAAAAAAAAAAAAAAAAAAAAAAAAAAAAAAAAAAAAAAAAAAAAAAAAAAAAAAAAAAAAAAAAAAAAAAAAAAAAAAAAAAAAAAAAAAAAAAAAAAAAAAAAAAAAAAAAAAAAAAAAAAAAAAAAAAAAAAAAAAAAAAAAAAAAAAAAAAAAAAAAAAAAAAAAAAAAAAAAAAAAAAAAAAAAAAAAAAAAAAAAAAAAAAAAAAAAAAAAAAAAAAAAAAAAAAAAAAAAAAAAAAAAAAAAAAAAAAAAAAAAAAAAAAAAAAAAAAAAAAAAAAAAAAAAAAAAAAAAAAAAAAAAAAAAAAAAAAAAAAAAAAAAAAAAAAAAAAAAAAAAAAAAAAAAAAAAAAAAAAAAAAAAAAAAAAAAAAAAAAAAAAAAAAAAAAAAAAAAAAAAAAAAAAAAAAAAAAAAAAAAAAAAAAAAAAAAAAAAAAAAAAAAAAAAAAAAAAAAAAAAAAAAAAAAAAAAAAAAAAAAAAAAAAAAAAACA3EwpaSZJ80haQNIyklaQtOobspqkDV+Xj47l/7N8/OeXkvRWSbNLmiH1BQIAAKA6M0t6p6TVJX1W0naS9pF0uKRfSjpD0p8lXSbpJkl3SXr4dXle0sgb8swb/j+3x382/DsuknS2pJMlHSlpP0lflbRp/N68nKQ5UhcFQHmmiD++V5L0SUk7SDpQ0k8l/U7SBZKulXSPpOfG8sbWVZ6U9KCkGyX9VdKpko6RdJCkXSV9UdLakpaQNEvqIgIAAMDa5JIWkbSOpJ0kjZF0pqTrJD3V43fcpnk2ThqcH78Lh+/B60laLF4TAPyPSSTNJ2kVSZtLOkDSryVdIel+gze1tvK0pOslnSPpaElfjysPwgTBVKmbAAAAgN7MJekjknaP33tvlvSCwffVtvNinBwIN8q+K2kzSe+VNGvqBgDo54f+wpLWl7RHXKp0bc937V3zsqR/xWVW349Lq5aUNFnqpgEAAGDox1PDStadJZ0i6T6D754OeUjSn1733XfpuPIXQIYmi8/Of0nSUZIuj88YpX6jyS1hcuQfsYZbxee+Jk7dXAAAAIz3e/D7Je0bn6N/1uA7ZS4J+xRcJen4uN9A2JOLR2kBQ+EZ/c9JOkzSpbzRdZpHJJ0Wn696b5xVBgAAQDrhcdYtJf1W0uMG3xdLy52SfhZXCsybutlArT/4w/P6x0m6zeBNoeY8HR8d2DmuugAAAEA/34fDTvwXxsc5U38nrCm3xN8h4ffI3KkHAlDis/vLStpR0u/j8zqp/+jJuBM2Wjk0LpkKvQMAAEA7FolL+280+M5HXs3L8bGBQyStJWnq1IMEyM1EcWf6neJS88cM/rDJYAmnKPxY0spMBtg9GziPpKXiqg2HLBhn0GdinwkMaIa40WuqMbxUvBs3R3wtwDAmj+NpGaMsJGn61IWpVHgG/cuS/mbw3Y6MbnXsH+JeZKwOAMbzxvbJeDzd3QZ/uKT93Cvph/FLMtJMrK0Tz/N1Pss35KV4HNHvJO0n6WOSpktdQNgJuzV/U9If4ykmI4abqIY7Qr+IJ8+sxp4pGI/Z4vPbv4gnFL1gfKfz2vjePGfqolXgA5JO4sSq7BM2I99H0nLc5EDtFo53+S+MX/hT/3GS/nKZpC24k9Cb6eNqmpGM82zcfGfx1MVEUnPGHx43G4zJQfKEpDGSFk1dSFgIPwQ+JemseFZ5juM53LxBu6aLJy9da9Bj0n7uiadrrSFp0tSDDejjDuS7Je0v6Z8Gf4AkfZ6Mb4L8qOv2C+aZBr1uKy/EZx+ZQa/LrJIOissqSxnH4VlRVgTUa+24QmQk87wUV5dheG+W9B128K/uUdmwOnbF+DsJKMaSkr4t6VaDPzTiu6Qw3KH+YOrBWqBNDPrbRX4jaarUxUUvNox3GkcKzN8lzZ66wOhVeN861WDstZkHJU2burAZWyDul8QR1nXnpniiFp8JyPrNbC/u9JMBvxCHL/zc4W3H5QY97Sqns7lk8dat4BGxa9g0sBoTxcnLkQKzberiZmj+eIxcjo9/kO7yXNz34f2pBygw2ueMvyDpAs4iJS3kCklrph7UBSybLv1vce/URUanX45LvfP/xoQfhSjfNgZjrauEVXwYnTniccls7EcmlHDqw/rcFIPrDqXHZ7CzOMkzYULpPakHeaY+bNC/rvM8e0gU6wyD8dVn2Eyt/Oe7HzUYZ13lvtQFzsA08eSSJw36RfJKWFG9XuoBDMwYl3tdZ/BHQerIbyXNm3rgZ+bTBn3rI9x5Ks+qBuOq79zOpoBFO8FgjHWZsIydu5Tj9nFJdxr0ieSdiyStkHowo85zl8Ou7dztJykSxt2ukiZP/YeQiY0NetZXwtm6KMc5BmMqRb6UuvDobDPkkQrCBNb/tZikcw16Q8rJy3FCce7Ugxtlmzge8XK+waAnJOR6Sauk/sPIwPsNetVXjk1dbLRmwQr2rhjf3icoz3EGY6vrPJa6yGYmj3vUPG/QG1JmwqMkO3B8INoWjnT5cjyWIvUgJ+SNCT8QfhSfqcPYvcWgT33l2bjpIfK3v8F4Spl3pW4AWjVXJZu93Zi60EaWkXSVQU9IHfmDpFlSD3rkb2ZJe0p6yGBQEzKaLx3Lp/6jMV69U9O5wuHxEORtMkn3GoyllPlJ6iagVd82GFN95I+pC21y138/SS8Y9IPUlbC/xBKp/wCQ77Ek35H0uMFAJqRJwoftPpImTf1HZOgfBv3pKzekLjaGtrLBOEqdhyVNkroRaG0S9t8GY6qPHKi6LSDpUoM+kHrzCKdmoYm543mkTxsMXkKGSdinYrbUf1Bmxhj0pc8slbrgGMqBBmPIIWxqWYaa9mHZVHWfuPOYQQ8IeSqeogOM97m0wypbIkzKzx18ef4fWxn0pM+E5bbI17UGY8ghu6RuBFpxuMFY6itvV32mlvRTg9oT8vo8Jukdqf844CfsFrkFs5Wk4Dwj6fOp/9CMNiMaqSg3py44Bjavwfhxydmpm4GhhUfS7jMYS33koQp3Ig+nlVxpUHtCxpbb46PdwCtmr/h8ZVJfvl3hl5I3miQ+FzZSUXgMIE9bGIwdl4RH8qZI3RAMpab9LE5VXdaV9KhB3QkZX85K/YcCD++IM0KpByQhfeZoNgfU7wz60Gd2Sl1wDORnBmPHKWzmlLdadv+v6ZGVcENh33gMceqaEzKarJH6jwZpfYDd/UnFOU3SNKrXthX2G/n5l8HYcUotP6pKdYnBGOorS6t8YUXOiQa1JqRJro6nkaBCy/LjnxBdJGla1Wk+g/r3mfB+V/uqj9zMYzBu3FLbsuqSzFDRWfC3qHxvkvQXg1oTMkhWTv0HhDTnkj5gMPgIcTkmcCrV6R8G9e8zy6cuOBofo5V6zLjlYe7cZGttg/HTVw5Q+ZuT3mBQZ0IGzU9S/xGhf2cYDDxCnHJGpZtr7W5Q+z6za+qCo5GajktrEo5yytPBBmOnr7xL5Xore2eRAvKopMlS/zGhP0sYDDpCHPPbCpeIL25Q9z5zZuqCo5GrDMaMY7ZM3RgM5P8ZjJ0+8q+CT9pZWNKdBjUmpI0snvoPCv3Zy2DAEeKacMexNrcY1L2vPClp8tQFx6jMJOklgzHjmBNSNweNzVrRLvE/UJneLukeg/oS0lY+m/qPCv25yGDAEeKc7VSXQwxq3mdWSl1wjMpaBmPF+Q4r8rKhwbjpK6uozGf+7zKoLSFtZt/Uf1jox9QV7UBLyKB5UdJHVI9VDGreZ/ZIXXCMSk3npQ+ScEIC8vEjgzHT1yaVpT1XPBsb/pFCc0jqPy70t3wp9WAjJJcj4xZTHcKXtUcMat5Xzk1dcIwKx2uNP59J3SA0UssPyONVluklXWZQV0K6yOGp/8DQj48YDDZCcsl1kqZRHU40qHdfeUbSlKkLjvEK/XnWYKw4hy9u+ZjbYLz0lfVVjrAp8FkGNSWkq4xJ/UeGfmxlMNgIySlHqw6fMqh1n/lA6oJjvN5rMEbcE05IQB42NhgvfU2uTqty/MCgpoR0mTGp/8jQj90MBhshuSV8eSvdDJKeN6h1XwmnocAXn1UTTthRfubUjcKoHGMwXvrIKSrHpgb1JKTrjEn9h4Z+7GMw2AjJLU/Es39Ld65BrfvKBamLjfE6zWCM5JBwUgL83WEwVvrIF1WG91c2IU7qzZjUf2zox3cNBhshOeZiSROrbNsb1LmvPBdPRYGf8Hf2kMEYySHhpAR4W8hgnPSRlyTNoTJ2/L/boJ6E9JExqf/g0A+eZyJk8HxZZXurQY37zKqpC46xeqfB2MglF6ZuFiZoc4Nxwlgc/eQjm/6RmjIm9R8d+nGowWAjJNc8GX8kl+wagzr3lW+lLjbGamuDsZFLwkkJnGjh7RcG46SPfFX5Y+8RUlvGpP6jQz+YACBkuJypsu1nUOM+H+uAn58bjI2cEk5MgKeJJN1nMEb6SHjUIWcrSHrBoI6E9Jkxqf/w0A8mAAgZPhuoXCsY1LevhC9706UuOKrdMK2t7Jq6YVDtj7NcrbyFVTTXGtSRkL4zJvUfH/rBBAAhw+fWgpfdhmcg7zGocV9ZLXXB8T/mMxgTuSWcmABPtWys+k3l7XsGNSQkRcak/uNDP5gAIKSd7Kxy/cSgvn3lgNTFxv/4rMGYyC2PVnBCSa5+bzA++shyytd74gkGqWtYch6UdKWkUyUdFieMviLp85LWk7SypKXiHkshs0qaKWbqcTxaM9NYMl/894R/3/qSvhD3pthX0uGSTpJ0Cac86PVhAqASTAC0n6ck3Sbpr5JOiT+ejog/LPaXtGf8sbhT3A04ZKPX/fdt4/++c9yUbP/4z4Z/x3GSTpd0WVwW+7TB9ZJX85ik2VWmdQzq21cuTV1s/I8fGYyJHLNE6sbh/5hE0iMGY6Pr3BV/kOVoCkk3GNSwlE2S/xZ/UIaVLx+WtKjxcbtTxH0rVpG0qaS9JB0TvxM8ZVDPvjImdSPQDyYAmuUZSVdJOjn+MN9M0kfjc9JhlnKaBD2cVtL8kpaXtJakrSQdKOk3kq6o7I0rdcJMdommqWiy6UVJM6QuOF5ztcGYyDHh5AR4Wc5gXPSRnD8HdzWoX67754QfygdJ+pikBQpbhRSuZcG4OuEbkn4l6fr4fWGksIxJXWz0gwmAseeO+BzlwZK2jOeDz5vpG9rE8c14nXikTZi8uNOgxqUewTW3ynSqQX37SphIQ3ozS3rZYDzkmBNTNw//x84G46KPhDu9OXpLvGudun655LK4SnW1ijfPnUrSSpK+Flf8PmDQl2EzJnVR0Q8mAF79MXxS/HAOH1yzqA5zSlpX0vfjXTa+aLeTH6pMmxvUtq+EuxhIb22DsZDz5xq8nGkwLvrYf2Jy5emXBvVzzkvxqNyvxGfr8X9NFB9zCHsNHB1XCYxkljGpi4h+1DYB8HLceCRc96clzZO6AUZmi3sRhKVNjxv0KufHROZSmRNGtUwSXZ662HjFAQZjIefwJd3H5JU8jvdz5en9BrVzze3xBlmJ32v6MHe8gfJbSU8Y9HNCGZO6YOhHDRMAN8SNpDas6O5+G5uhrCnphEq+tLSdH6hMlxrUtq87HWH5OdK6yGAs5JwwoQsP7zMYD33kE8rThQa1c0qY7D8nrhINm1eivYnAVeMqw38a9HlkLAkbjqMChxa69PFYSRsX/Dx2n6aLR7P83aC3ueSpQn9A7mFQ274Svvgg7bOVzxqMg5zz49RNxGv2MhgPXSf8vU6v/KxhUDunhA2kF0vdlEqEzcN3NLu58r3URUE/SpgAeE7SWZK2k7Rw6oIWboW4uVSJO5+2nbApTGmWMKhrXwl7YyCdWu6YdplrUzcRr/mzwXjoOn9Uns9sX2ZQO4eEFVcrpm5IxRaKN1muSzwO9k5dCPQj1wmAeyQdFY/kqHX30ZTCRMtxTARM8Lm5EpfO3W5Q2z4SjvtEOrsZjIESlvG+KXUj8cq5588ZjIeus4Xys65B3VLnrvhdGl43W/ZP9H3rC6kvHv04NKMvMmGJzJ6Slo2ztkhv0Tjrn3p8uCach1uaXN4z2njPmTV1sSt2usEYKCEfTd1IvHK60EgF+6a8WfmpYWXGhDZtnCl1EzBO4bfOynFz7ud7GhPvSn3R6Meh5l/Aw5EjO8TzWeErbBh4s8GYcct5Kk8NX2b/kw1SF7tSE8fjxFL3v4R8J3Uz8cqdvJHC81flZ0mDuqXKw5I+mboBaOTN8RGBOzocF49LmjL1haIfhxi8Eb3xR394Dokf/fmZRtIPKzoqbrTjeUGVt4vtYwa17SOHpS52pWr+Yt52wiQ60nLa4Kur7KL8/NSgbikSdp/niNB8hUdL15F0Rlx50+bYOCH1xaE/+xr96N+eH/1FCEec3GcwrlwSdn8uzUkGde0jYTMe9O/LBr0vJc/FExWQxoyV7JWziPISjoR+xqBuKVZqcBx2ORaQdHhLJ+a8zPL/uuya8I3o9rjbZDgGA2WZK955Sv1h55BbCtyz4rMGde0j4QNxjtTFrtCJBr0vKR9I3dCKfdSg/13neuVnO4O69Z3T4kpNlGfOeHzfI0OMj5+kvgj061MJzkc/XtIq8TlPlCssFf+ZwYeeQ96rssws6QWDuvYRnpPs310GfS8pu6duaMXcHrPsImGPg9xcYlC3PnN+/E6Gsk0Zv7Oc3vA72umMj/os1dObT1jiv5mk6VNfMHoV7nwfZPDhlzpHqjx/MqhrHzkidaErM79Bz0tLjuezl+Iqg/53nRWUlwUr26vohjhpj7pMH1cg/UDSleM4ivQWSVtzQ7ZOk0p6qKM3nQckfVfS21JfJJKrYRfk8eXB+LdWkq8Y1LWP3Ji60JXZyKDnpeWxuHEU+jVbBT80787wx8M3DOrW53ePhVIXHBbCd9CF46TAmvEYb1TumJbfcP4i6TOSpkh9YbBaCXCEwYdhypT2HO5CBjXtK3OnLnZFan+f6CphtR/69QmDvnedHFdIXWNQt76yRupiA/D19hZ2qX0oHgG3eOqLga1J4nNGI5XmYJXnnwZ17SNh00P041qDfpeYbVI3tkI1TGbl9gNzHoOa9ZWfpy42AH97DvDm8nA8R3V1SZOlvgBkcyTSjQYfjClyq8pzgEFd+wi74/bjTRUsmU6VX6ZuboVuMuh7l3k8w5WemxnUrY+E7+ezpy42gDyWaO8h6fkJvKncL+lYSR9hx0gMaPFKz98NeafKspJBTftIiZM3jmo4Mi1V/p26uZWp4U5zjpNKvzaoWx/ZPHWhAeTlrZJ2jW+S58X/DEuXt4w/3Eo7zxxpbG/wAZkiu6m8xzoeMKhrH5kvdbEr8B2DPpecBVI3uCKfM+h31/m08tsEbZhz0nPa9Z9NPwEAdsKuwecafFD2nXNUnrY3EXXNJqkLXYGLDfpccsKPUvTjWIN+d5nn4yN9OVnGoG78nQMAqhbO4n3W4MOyz4RHH6ZUWdY3qGsfCV/o0Z2pxnFOMWkvR6ZuckXuNOh3lzlT+dnaoG5d54EM92UAAFRmX4MPzL7zQZVl2komcu5IXejCfcCgx6UnnNqB7i1s0OuuE35M56aG1WphY14AAKxNHTenGqko+6g8tRzvGFatoBu7G/S39IQTFmZN3egKfKmCcTS38nOdQe26zrtSFxkAgNHYyuBDs89cqPJsaVDXPvLF1IUu2B8N+ltD1k3d6AqcZNDnLvN35WcGSS8Z1K7L3Bv3VwIAwF44TvI2gw/PvvJsgc/ozV3J+e0npC50ocKO1Y8Z9LfpGegjGebA1M0u3ETxuOSRgvN15Wd5g7p1naNTFxkAgCZquYP8nyyn8vzDoK5dh7PUu7GUQW8HedZ2JMNckrrZhXunQY+7TjgSOjcbGdSt62yYusgAADTdC+Ahgw/QvpLjBkoTspdBXfvIIqkLXaBtDPraNEtIut3gdQxyfFt4v0U3tjfocZe5SXnax6B2XWeO1EUGAKCpmk4ECLsRl2Zpg7r2kbDBF9r1S4O+NsnD8Vnb4w1eyyAp7SQSJ6cY9LfLfEd5+oVB7bp+TwIAIDvzVLBJz38SdiMu8dnX0s++Hok/VtGu3E4C+UN83ZsZvJZB8o3E/S7VpJIeNehvl1lJebrMoHZdpsTNhQEAlTjL4IO0j4SJjulVnsMNatt17ouTHWjHWw162jQ7x9e+iMFrGSThfRbte7dBb7t+7wsbduboHoP6dZkxqQsMAMCgPmXwQdpXVlB51jCoax/JcRMsV58z6GfTrBhf+0TxR9FIhicYhLvVaNeuBr3tMkcpT+FxnRcM6tdldkxdZAAABjWVpCcMPkz7yBdUnikq6V/YtA7tONKgn03ydDy69D9+bfCaBskyCXteqtJXsK2tPM1iULuuE045AAAgW7ltCDZoDlKZcv1B1CQnpy5yQf5p0M8mOa+QXd+3S9TvUoVJoacM+tpVwsTulMrTYgb16zrrpi4yAADD+ITBh2kfOUNlynFJd9M8GJeVYjizSnrZoJ9NEo4Te72lDF7TIPlVop6X6v0GPe0yOU96lt6bkFVTFxkAgGFMK+lZgw/UrhN2zC/1R92LBvXtOkumLnQB1jXo47BftCfJdOf3sCka2rO3QU+7TM5LzNc2qF/XCRtQAgCQtfMMPlC7zsuFngQQ/MWgvl1nh9RFLsB3DfrYJC/ECco3Ot3gtQ2ShRL0vFQlv+eFcT+z8rW+QQ27TnjMAQCArO1m8IHaR0q9i/w1g9p2nd+nLnIBLjHoY5P8rbDd3zfpud+lmlrScwb97CrnKG+fMahh13ln6iIDADCs5Qw+UPtIqRv35Ho+epM8mvGZ2A5y/NF04DiuZSWD11bTsW5uVjfoZZfJ/dSTTQ1q2NfRpAAAZCv8sHrM4EO165S8E/cNBvXtOhylNriVDfrXNOuM5/jLZwxeX9Nc33PPS3WAQS+7zHzK25cMath1PpS6yAAAtOFcgw/VrnOwynWgQX27zk6pi5yxPQz613TPjnCe+Lj8yeA1DnJNs/XY81L93aCXXeVy5W9Lgzp2nXB6EgAA2fuWwYdq1/mNylXD0UunpS5yxs406F+TXDOB6/mmwWscJOv11O9SzVj4qSffUP42Nqhj1wn7kAAAkL2PGHyodp0S7q6My6SSHjKocZd5PF4nmj/i87hB/5rkRxO4pg8ZvMZB8r2eel6qHI+ybJIllL/1DOrYdX6ausgAALRhLoMP1a5zn8p2vEGNu87yqYucoaUN+tY0n57ANU0bj0sbySyX9tTzUv3AoIdd5VaVYTWDWnadcAwlAABFeMDgg7XLvFj4TvIfN6hx19kldZEztJ1B35pmnlFc16UGr7NpXoiTF96oTg4AACAASURBVBjMNQY97CqlrA7J9ZSOJnlK0uSpCw0AQBvOM/hg7Tolb8IVflg8a1DjLhOeZUczvzLoW5PcNsrrOsjgtQ6SVTrud6lmixspjhSasI9LCZY0qGUf4ShAAEARSl5e+Z8srrLlttlb0zzJnZfG7jboW5McN8rrWsfgtQ6SvTrud6k+adC7rvJgQfubLGhQzz7CRoAAgCJsY/Ch2nXCeegl+7JBjbvOe1IXOSM5fhnfbJTXNrOklwxeb9Oc3XHPS3WkQe+6yk8LW4k2UkEuSV1oAADasIbBh2rXCXeRSjZP4ctkQ3ZPXeSMbGLQr6ZZpPBnwsMqlsk67HmpbjboXVcJq1lKUvp+Qv/J21IXGgCAYS1k8IHadcId8tJdaVDnLhP2qsDoHGXQr6YndUzU4PoON3jNg2S5DnteonkNetblhnJTqyx/M6hrH9k7daEBABjWZHGn/JGCs5vKt49BnbvMM5KmTF3kTFxv0K8mObnh9X3K4DUPkh076nepNjXoWVf5ncrzC4O69pG7JE2RutgAAAzrPoMP1S6zn8q3nEGdu04pO2Z3adYMHwfZvuE1zmXwmvuY6Kjd8QY96yrhMZ3SfNugrn3lS6mLDQDAsK4y+EDtMoeqfBPFOxMjBYed1CdsPYM+Nc3SA1znrQavu2nub/ioQ+1KfT8LK+5mUXk2N6htX/kXJ9MAAHJ3jsEHapc5RnU4wqDWXeaC1AXOwEEGfWqSxyVNMsB1HmPw2gcJG4iNztsMetVV/qwyrWxQ2z7DIz0AgKydYPBh2mV+rTqsZVDrLvNcgRtnte1Sgz41yRkDXucXDV77IPl8y/0u1VYGveoqO6hMM2R6ROcwGznOn7roAAAM6mCDD9Muc6bqMFU8bmyk4KyausjGppH0vEGPmuTrA17rwgavfZAc3XLPS/Urg151lbeqXP80qG+fOSV1wQEAGNQuBh+kXeYvqsfvDOrdZfZNXWBjqxj0p2neN8T13mPw+pvmphb7XaqJCz5T/v+pbMca1LjvbJO66AAADOLzBh+iXeZi1aP0Xl6UusDG9jToT5M8O+TRjrneJX5ziz0v0ZIGPeoqpZ8hv7VBjftOWHX13tSFBwCgqY8YfIh2mb+rHrMX/hxm+LI1beoimzrLoD99rszZxuAaBskGLfW7VDsa9MjpxIucLGtQ4xT5t6R5UhcfAIAm3mPwAdplrlBdLjaoeZdZPXWBDU0q6QmD3jTJfpXeKT6kpZ6X6lSDHnV1dFzpx0CGo/GeMah1itzI6h4AQE5Kn7W/WnXZ1aDmXWb/1AU2tGyFEznhWfFHDK6jaS5rqeelTmQ9ZtCjLvJ91eFsg1qnyvVxFR4AAPYWN/jg7DJhZ+KaLGZQ8y7zt9QFNrSDQV+a5MV4bNiwTjO4lkGufboWrr1EKxj0p6usrDpsa1Dr1Bt9hlNKAACwtlAFH8i1ucmg7l3+gJoxdYHN/NqgL01yeeUnmHyopesvzdcNetNFwkqVyVSH+Q3qnToPsjEgAMDdPAYfmF3mVtXnYIO6d5m1UhfYzL0GPUmxHDrXO8b7tHT9pTnHoDdd5HjV5RqDmqdO2Athk9SNAABgXGY3+LDsMjVOAKxsUPcuc2DqAhtZ2KAfTbN+i5uOPWVwPU1zbkvXX5IpJD1t0Bvn8Z6LbxvU3CXhuNKZUjcEAIA3mtHgQ7LL1DgBMFmmG6T1vYS8BJsa9KNJXm55o6zzDK6paZ6qaEn4aH3QoC9d3Qmu7ejS0k8WGuQ7SFitBACAjakq+PCt0c8Nat9VXpI0c+oCm/iJQT+a5IaWr39vg2saJO9uuQ6528egJ13kD6rPJJL+bVB7t8+sH7a0+SkAAEOb2ODDscvUOgHwKYPad5l1UxfYxI0GvWiSMS1f/6oG1zRIvtJyHXJ3kUFPusgXVKd9DWrvmHskbZy6OQAABC8YfDB2lVsrfrTjeYP6d5VaztUen9njkvqRjPK5lmswTabj/Lct1yFn02baw9Hc9a31XPgFMnxv6jNhw8ulUzcJAFC3Er981T4BUPKu2iFXpS6ugfUN+tA04Ziwtl1icF1N84CkiTqoRY7WNOhHF/mL6nauQQ+cEyZITpK0YOpGAQDqxARAmbYr/MvTrKrb9wz60CR3dVSH7xpc2yBZtKN65CbX/k0oO6lunzToQQ55TtIPJM2ZumEAgLowAVCmeQ3q32U2UN3+btCDJgkbU3bhowbXNkg266geufmHQS+6SDiis2aTx5UuqfuQ00TAcZLelrpxAIA6MAFQrqsNetBVDlPdz03ntnfHVh3VYub4vPVIZjm2o3rkJNfeTSjXpi6siYMMepFbXpR0gqR3pG4eAKBsTACUq+TdmK9TvXLc/X7xDutxlcH1Nc0tHdYjF+sZ9KGLfCt1YU28WdLTBv3INRdK2lDSpKkbCQAoDxMA5VreoAdd7gMwh+q0l0H9m+SheORoVw4zuMZBMrfqdqhBD7rIcqkLayTXv02n/Du+59e+7w0AoEVMAJQr/Oi616APXSVsNFWj3E54OKXjenzC4BoHSXjdNbvWoAddbHbJCQ//NU98vj11X0rIM3GfgA92PKEKAKgAEwBlO8qgD13lCNUnLAd9wqD2TfLVHpYaj2SYsPt3rWYv9Kz4mvcmGZcxBn0pLXdK2l/SAqmbCwDIExMAZVvHoA9d5UbVZzmDujdNeBSlazcbXGfTXKF6fdqg/l3kw6kLa+itGW5amkvCJNp5kjaRNGPqRgMA8sEEQNmmLnwjptqeo97RoOZN8qSkyXqoy08NrnWQHb9nUJ1KXJn0aDz+DnX02y3PxsetPiNputQNBwB4YwKgfKca9KKrfFZ1Odmg5k1ybk912dTgWgfJ6qrTLQa1bzs/T11UY7NJesSgR7Xk6fhZ8fF4bCwAAP+DCYDybWbQi67yE9UjbC52n0HNm2TPnmqzoMG1DpJvqj7zGtS9i4QfWxi3bQ16VOvmgWdL2q7ik3MAAG/ABEAdG269ZNAPejyctxnUu2lW7rE+/za43qb5k+rzBYO6d7H8evrUhTU3iaQrDXpVc8L3gAsl7SxpodQDAgCQDhMAdfibQT+6ynyqQ24/nMJ7yzQ91ueXBtc8yFLd2p4b/5lB3dvO6amLmomVCj39IdeEozj3krRM6oEBoG6zSlpU0vskrS9pK0m7xONOfijpaEm/isuZLpZ02etyZXyu8D+54nX/25/jP3N2fB76pLhp1MFxier28RnS9eIdq2Xij4qwgVrpmACow+4G/egqYQfkGuS20d1fe67P1gbXPEhWVF1yXKkxoXwpdVEzUuIEUAm5SdJ3JK0gaeLUgwRAWedXhyVHa8QPy2/HTXMuil8IXjR4AxxbHpd0vaQLJP1C0vcl7Rp/dIQNnN4uaSrliwmAOrzToB9d5VjV4SaDWjdJ+DLZp1zH+NdUj0UN6t3Fsuo5Uxc2s0fSctvLpLbcLenHklarcIUSgAFNHD/kPylpn3i3/WpJzxm8qXWZ++Iy63C93413o9aStJj5BAETAPW4zaAnXeQOlW8Ogzo3zdoJPnseNrjupvm96pHrKo3x5ZLURc1Q+G7EowD5HG95gqQNOFEAwOstEH/sHxg3NHrc4A3LLS/HH19nSvpBfLRhVUnzpG4eEwBV+YFBT7pK2AW+ZBsY1LjpXdGZE9TpFINrb5qH4gkPNfi1Qb3bTnhMEc0dZtA70vxEgfAY7eclzZJ6AAHo1yKStogzgiU+y9d3npR0eXwcYuf4WEGfywmZAKjHhwx60lXCUYclO8Sgxk1yVaI67WRw7YMkrBQrXVih8aBBrdtOWPGI5qaKm9Cl7h8ZLC/Gm37bxaM9ARRmRkmfkHS8pHsM3nRqyf1x08KwsmIjSUtImqyD/jIBUI/J43K+kQITJiRLdplBjZsk3N1LYXmDax8kYVK9dEsZ1LnthP2BMLgl4hGKqftIhs8/JO0hafHUgwrA4BaW9FVJ50t6weCNhbya5+Kb7I/jkWBLxM0Vh8EEQF1yPCpttJsWlWq6DN+Hw2NhKUwWV1WNZJYwwV66rxjUue0ckLqoBdjeoI+kmxMFwgknnCgAmHtLXMpzocGbBxl9no/L6I6QtHFcStrkDZcJgLp81qAvXeVtKtOHDWrbNOHzJJVzDa6/acIeMaU7zaDObSesOMFwJorHO6fuJekmD0g6Lm4KO0XqwQbgVTNJ2kbSxezIWlTCMu+zJO0dj10c32ZcTADUZeYM7yaPNluqTHsb1LZJbklcrz0NajBI5la5Jitwg+DwSCR3N9sxvaQbDHpKuv9uGva72pATBYA0VopnZz9t8IZAuk+Y3PmnpKMlbS7pHZImiWOBCYD6nG/Qmy4SHm8oUW53tI9JXK8PGtRgkHxK5VrRoL5tJ6y6Q3sWL3CSiEz4RIHwOOusqQcfULJpJH2ZXVdJTPigPSce1zVSaJgAGLsdDXrTRe4r8Di1HJ9pD1/oUpo67pcykll+qHJ93aC+bWfN1EUt0BoFr1AjEz5RIOwHMV/qQQiUYjZJexV6/A4h4wsTAGO3gEFvukppx6m926CmTbNQ6qJJ+qtBHZrmSpXrPIP6tpknJE2ZuqiF+qJBf0nahBuV+8fVygAaCl/CxnDECqk4TACM23UG/ekiYU+TkuS2c/q9JqswDjCoRdO8FI/dLc2UcbnvSEE5KXVRC7evQY+JR26INzEXST0oAXdvic+msYyK1B4mAMZtf4P+dJGTVZbfGtS0ScJu3g7WMqjFIClxWfkqBnVtO59OXdQKHGjQZ+K3MmCvuIoRQPTm+Axhjs8+EtJFmAAYt/cY9KeLPFjQztzhTvr9BjVtkm3lYcZM9zfZT+X5lkFd28zzha7UcHz/+4lBv4nnxtZ/kbQVGwiiZlPHGbGnDP4oCXEKEwDjNkmGPy5HmyVVhkUMatk0S8nHlQb1aJoLVJ6LDeraZsIRu+hHmMz9sUHPiW/CauffSVq9oMl/YILWlnSbwR8gIY5hAmD8jjboURcJOwmXYDODWjbJY687XtTBoQY1aZpnC9tcbroCj5oNdx3R70oAHgcgo8md8YYoqwJQrHdK+rPBHxshzmECYPzWM+hRF/m9ynCMQS2b5HR52dCgJoOkpJ2v1zSoZ9tLj+dOXdRKfSPWP/UYIHlMpP4sPuoIFGFySXsXOKNOSBdhAmD8pi1wd+6QR8zuRA/qZoNaNsmu8jKHQU0GyS4qR2l3bv+euqCV+xz7XJGGuSoeLRl+PwFZepekqw3+mAjJJUwATNjpBn3qIssq/01dRzKL453rGw3q0jR/UDkuN6hnm9k9dUGhleMkb+qxQPJ7PCBsUjtV6gEMjNbk8UzjFw3+gAjJKUwATNiXDPrURXZS3j5uUMMmCStJppCfHHcRf7iQzazelOlJDOPL4qmLilcsLOkag/FA8su9kr4W9ycBbM1X4A66hPQVJgAmbM5Cn6s8TXn7gUENmyTsSeNoE4Pa1PpDcwODOraZ8EgOvB5hO8lgXJA8Ezat3V/SzKkHMvBGG0t63OCPhJBcwwTA6Fxm0Ku2E947J1W+/mFQwyYJZ707eqtBbQbJlsrfYQZ1bDNhPwP4nRCwI/sCkCG/K+xW2OkryNTUko4z+KMgJPcwATA6exr0qossrzxNn+EjX6vJ110G9WmaE5S/6wzq2Gbem7qgGKelJd1gMEZIvrk9PnoXJpWA3s2T4Z0fQlzDBMDoLGXQqxp2pR+t1Qxq1yQvmj9P+XODGjXNv5T/o0UjBeW+Qk4WKf2RgKMKfaSN9JcLJS2XejCjLu+Jm1OkHvyElBImAEbvdoN+tZ0zladvGtSuScIjJM62MqjRIAk3BHL1WYP6tZkxqQuKRhOo/zIYMyTfvBz3l5g39WBG+baQ9LzBoCekpDABUO/zuiFPZnr27/kGtWuSg+VtcYMaDZLPKF85nr4wvqyduqBo/BjVkawGIEPmCUlb81gAuhAG1V4Gg5yQEsMEwOitbtCvLhJWVuVkMklPGdStST4m/8/ZBw3q1DSHK1+3GdSvzYlEzg7P07KS/m4whkj+jwUsmHowoxzhi94xBgObkFLDBMDoTVHoqSN7KC/LG9SsScIdttnk73cGtWqaq5WnXE9eGFdOTl1QDCWcBrNDPPYt9Vgi+SZ8P9qc1QAY1jTxnOrUA5qQksMEQDO/NuhZ2zlXednJoGZNEnZ6z8FXDWo1yORKjmdUf9Ggdm1mo9QFRSveJOn7kl4wGFMk35wl6S2pBzPyfTbpYoNBTEjpYQKgmY0NetZ2nsnsfN/c7lSH52xz8C6DWg2StZSfEwzq1lZeyHQSBuP2dm7AkSHzqKRPpB7IyO/H/18NBi8hNYQJgOZ3SEq8O/J+5SEsLbzfoF5NEnZ7z2UZcI6PuHxbeQlj+B6DutW6ggijt6KkU9kokAyRIzLdaBg9484/If2GCYDmLjDoW9vZW3lY1KBWTTOf8nGWQb0G2Xwqt7urIwVl29QFRefCme+nMBFABky4qTtn6kEMX9Py45+Q3sMEQPnPoI8mYVIjB5sb1KpJ7lBe9jCoWdM8m9kO9F82qFmb4RzweiwZ98F5yWDckbxyl6SlUw9geO72f4bBACWktjAB0NzbDPrWxY+oqeXvWINaNUl41jsnHzCo2SB5n/LxG4N6tZXLUxcTSSwu6eeSnjcYgySv40Ldj8RFz8/DHW0wMAmpMUwADOYGg961nVXk71aDOjXJFsrLVHEyaCSz7KY8TCzpIYN6tZVvpC4okppD0s6SbjcYiySPhMdItk89cOHhAIMBSUitYQJgMN816F3b+Za8zWlQo6YJz3vn5iKDujVN2LE8B8sY1KrNLJG6oLCZ2FpV0kmSXjQYl8Q/+6cetEjrSwaDkJCawwTAYN5n0Lu2E/ZgcfYJgxo1yQNxhVtuvm1Qu0GOnAo/Qtx91aBWbeW21MWEpQUlHSjpQYMxSryzf+rBijTeI+k5gwFISM1hAmAwkxT4Bef5uBmrq0MNatQkv1Oe1jSoXal3o083qFNbOTh1MWFtSkmfjO+DOT5WRPrJvqkHKvpfynm3wcAjpPYwATC44wz613ZWl68rDOrTJF9RnmbIdBlv2F3ffbPjJwzq1FbChpHAaN9TNpH0R0kvGIxd4pW9Ug9Q9GNyjvuzXKp6i6QbJV0WE85WPjvmN/HZrpPiOdFnvy6Xvu6fCf+OeyU9bnBNZHRhAmBwGxr0r+2EPVkc5fijNJydnavLDerXNCfKf9XjSCEJq58mTV1QZGmW+PjvnzhOkOi/2TL1wET3DjYYaLXkYUl/k/SzOMO2taSPx5n7xSTNHpcyd/ml/c3xmbBl493Fz0raTtI3Jf1I0smS/izp2sLujuQSJgAGN12BjzGFCT1HqxvUpkmeyPwH0vcNatg0d8rbHgY1aivHpC4mijCXpG0kncPKgOrzoqR1Ug9IdGe1eARE6oFWWh6TdKak/eIyqxXjLGuOZoiTE+E51M0k7R2PiTwnbjrEjHG7YQJgOGca9LDtD+HwN+jmWwa1aZKwOipn6xvUcJDML1/nG9SnrXCWN9o2U7xB9CtuBlWbpyUtnXogon2z8tx/a7k+zsCHM6bfkcnux22ZQtIiktaWtIOkw+KPsPBDlsml5mECYDhbG/Sw7awlP38yqEuThLu9OZs90/fTjeRpKknPGNSnrS/pU6cuKIrfQPAjko6Mj5WmHvOkv9ye8Q1MjMPvDQZWrgnLjM+IP/jDknqMXdjB/F2SviDpe3G/gn8b9M85TAAMZ55MfyiNLwfJb9+Ypw3qUtsGadcb1LFpjpCnVQxq01bCdzmgLxPHVa1hf5obDMY/6T7ndvx4Mnq0kcGAyi1hI71fxmNUHJfk5mTm+IU87Mr98/jFlkcJXg0TAPXtTj+hhA3gnKxoUJOmE7bhjm/uxhjUsmnCXjKO9jWoTVvZNHUxUbVFJe0i6ZICJ9+JXstuqQca2vnxdb/BYMolF8cP2GlSN65w00t6v6QdJZ0g6SaD3qcIEwDD28egj23mpfi+7eJrBjVpkotUhhwn7sMPgjfJz18NatPWHiHhcU7A5UjxLeLxgs8a/H2Q9vI8+wHk7yiDgeSeF+KP0KVSN6tys8fNjQ6KEzGl7fA+tjABMLxlDfrYdtaVj9weH9tfZZjPoJaD5KPym2wuZYfzcGIP4Gj6eMpVWOX5qMHfCmlnRddUqQcWBvM+luhMcIYrbHIyb+pGYZwb0awk6YcGY6WrMAEwvIkK3GsiHAPnUtsHDerRJGHzqlLcYVDPpvmOvKxlUJO2ElbMAe7CvjEfiptE32nwd0MGzyGpBxMG27jj/xkMHseESZETJS2YukkYlQ8ajJmuwgRAO35s0Ms2c5U8LGZQi6aPT8yocpxgUNOmCau3nHzPoCZt5a2piwkMMIm8bDxK9mqDvyHS/PfSKqkHEZrZxGDguH6xDisjkA8mADAhHzHoZdsfug7P+m5hUIsmuVJlya3+I/HRLadj6krZJNRlUhAYxgJxQ+gL4p4Wqf+uiEb1PTWsyEUGwjMbLLv5v19Kdpc0aermoDEmADAh4cPpSYN+tpkNUhdV0vEGdWiSQ1WWtxvUNOdjGGcp6MSZsNkpUJIwyf35uM9MbkfN1pbdUw8WjM6uBoPFKddIWiJ1UzAwJgAwGr816GebCc9PpnabQR2aJGxCVdry2QcM6prrl8UNDGrRVpZJXUygQ1PHTaCPyXDfmRrypKS5Uw8SjF84s54dOP+bcAeLI/3yxgQARmNTg362mesS13Nugxo0TTiWqjS/Mahr05whD4cb1KKN3BEng4AaTBJXER2S4SR0yflZ6oGB8ePu/6sJzxZtk7oZaAUTABiN2Qpa7vuffQDmSFjPTxrUoEluUpl2MKht0zwWv8Sndr1BLdpIaY+2AE2EFbx7Srrc4G+x5rwsacXUgwHjfvb/XoNBkjpPFHYUVO2YAMBoXWTQ0zYTfoSnktvxmz9VmZY1qO0gWSpx3eYyqEFbYRdu4FXh2O5tJZ0r6QWDv83acimrkTxtbTA4UudhSculbgRaxQQARmsXg562mSMS1vJKg+tvkvAISInCxrWPG9S3acKX9JQ2MqhBW99pJktcS8DRzPHv/GQ2Eew1a6RuPP5XWG5X+7MyYeOQpVM3Aq1jAgCl75o+rtyYqI4zZvg4xYIq1xkG9W2aXyau2U8NatDWPkYAxm86SZ+VdGo89Sv1323J+XPqZuN/rW0wKFIv++fOf5mYAEATNxv0tc2k2Hl3TYPrbpK7VbavG9S4af6duGa3G9SglONAgZzMFI8XPDvDiexc8p7UTcZ/nWYwIFIlzPZ9KHUD0BkmANDE9wz62mbCXY2+7Wtw3Tndbe7a+wxqPEgWSFSvBQyuvY08I2naRDUESjCPpD0KvDGQOqembixeNV/ls1xbpG4AOsUEAGoeLz9JUMMLDK67Sb6ssk0p6VmDOjfN5xLVazODa28jf0hUP6A0YeO690s6RtJTBn/bJZwI8I7UTYW0n8FgSJUjUxcfnSvtB93rwwRAN5umPWzQ21zHyBTxzuNIRgnHRJUut0mZkDGJanWiwbW3kTCRAaD9RwS+wqoADZtST97JxsSS7jIYCClyVbwzgrIxAYCmTjDobZsJq7z68h6D622SR+LnYOlyeywj5J+J7vSVcBxyWNU5e4L6AbWYOB4Zfka8o536bz7HvdemTd3Emr3fYBCkyLOV3PWBtJrBeOsqTAB045MGvW0zm/RYu9yOUqxlmfTqBrVumvClerae67S4wXW3kQt7rhtQs8UkHSfpBYO//ZzyudSNq9nhBgMgRcKuyKjDRw3GW1dhAqAbMxR2FNCxPdbuVIPrbZKdVYfpJb1oUO+mWbfnOm1rcM1tZKee6wbg1dV238/wMbhUOS91w2o1iaT7DAZAimWFk6cuPnqzocGY6ypMAHTnHIP+tpU7elwS+ZDB9TbJiqrHZQb1bpoDe67Rbw2uuY0s3HPdAPzX3PEZ9xwnXfte5TV/6mbVaBWD5qfIh1MXHr3ayGDMdRUmALpTyp3A/2TBHmqW2/LppyubDD7YoOZNc0nPN0VK2AD02h5rBmDcwk73pxu8Jzhnz9RNqlFp512PJmenLjp6V8qRTmMLEwDdmd+gv7ntCL6lwXU2yfmqy8cMat40z0uapqf6LGtwvW0knOwEwOuG6/UG7w2OuS51c2p0rUHj+85yqYuO3m1jMO66ChMA3brKoMdtJZxs0LWfGVxnk+yjusya6W7VK/dUn68ZXGsbeVdP9QIweuHUsW/FSc3U7xFumTd1c2oyj0HD+054phf12clg7HUVJgC6lePRaePK3T3U63aD62ySD6k+1xnUvWm+0VNtzjC41mFzVzzKEIDvYwF/N3ivcMoWqZtSk80NGt53wjFIqM/uBmOvqzAB0K13G/S4zSzSYa1ym1R+odIziI8wqH3TnNVDXcJeEE8aXOuwCSc7AfA2haRDDd4vXPLb1A2pya8MGt5nbmJWvFoHGIy/rsIEQPe72t9j0Oe2Ep7R78qnDa6vSS5VnT5jUPumeVzSpB3XZSWD62wjq3VcJwDt+bikxwzeN1LnMUmTpW5GLe4yaHif2SV1wZHMsQbjr6swAdC9MQZ9biu/7LBOhxtcn/Pxci7eYlD7QbJMx3XZ0+Aah82jlZ1qAZRgMUn/Nnj/SJ33pW5EDXJbqjlsXpI0Z+qiI5k/GozBrsIEQPc+atDntnJfhyuhctswcV3VK7e9GkK277gmfzK4xmFzYsc1AtCNhSTdZvAekjJ7pW5CDT5h0Og+c0HqgiOpKwzGYFdhAqB7U8fz4kcKyeId1GimONE6kknCTvizqF7HG/SgacJji13+jT9rcI3DJny3A5CnuSufBDgldQNq8H2DRveZbVMXHEmV9Az3G8MEQD9OMeh1W/lyB/VZy+C6muQa1S3HTYDv7bAeHzK4vmETJjCm77BGALq3qKSHDd5PUuSu1MWvwYUGje4zTUJtzAAAIABJREFUC6YuOJJu4vaCwRjsKkwA9OOLBr1uKyd3UJ9vG1xXk/xYdVvEoAeDJCyT7UJu43dsCY+6AcjfKpKeN3hPSZHZUhe/dI8YNLmvhGcdUa/ZDMZgl2ECoB+zZ7bEfXx5KE6M1TypHE4sqNlEcT+IkcyyaUf1+JvBtQ0bztEGyvF1g/eUFFk9deFLf8ZkpKIclbrgSOodBmOwyzAB0J9LDPrdVpZs+Tzj3J6fDhvh1u5kgz40zU86qMMMBawSC3tasNExUI5JJP3F4L2l7+yWuvAlW82gwX0mLN1FvdY2GINdhgmA/pQ0I79DxeensyrsVdsZ9KJpbuigDiV8RoTJSQBlmV/SkwbvL33mF6mLXrKvGDS4z7wzdcGR1FcNxmCXYQKgPyWtJvl9i3XZ1eB6muS4Fq89Z0sb9GKQzNFyHQ42uKZhs0vLNQHgYU+D95c+c0nqgpfsxwYN7ithWeqkqQuOpMYYjMMuwwRAv0o5oueRuMSwDX8wuJ4mCTvg49X+P2bQj6ZZv+U6/D+Daxo2YedwAOWZJu6OP1JJ7kpd8JKdbtDgnJcLIi9/NhiHXYYJgH6VdITqsi3UY+IMjyzix1Le3we+1+L1zxqfnx/JOHzPAcpW0ilEIxPIi5ImS13wUl1r0OC+wrE4yHGn6yZhAqBfqxr0vK2Ex2OG9U6D62iS++MO+HjVbgY9aZpLW7z+jxtcz7DZv8V6APATNtq9x+C9pq/Mm7rgpXrcoLl95bDUxUZSMxqMwa7DBEC/JivoGNXTWqjHVgbX0SRh53vku4HjSNyxf7qWrr+ERyJXaKkWAHx9w+C9pq+slLrYJZrJoLG53eFCvt5tMAa7DhMA/fuFQd/byOMt7JHyc4PraJLtWxoDJd1ZesagL00TVuK04QaDaxkm98THcACUbbYCjisdGWU+lbrYJVrcoLF9Zr3UBUdSmxuMwa7DBED/PmPQ97ay/JC1uMPgGppkmZbGQEn+ZNCXptmrheue2+A6hs2RLdQBQB7ONnjP6SNbpS50id5n0Ng+E+4Ao15HGYzBrsMEQJqVVKXMxIcj/AY1r8Hr73vFQ4m+adCbpjmnheve2OA6hs2aLdQBQB62MHjP6SNfSV3oEq1j0Ng+E1Y8oF5XG4zBrsMEQBrnG/S+jZxV0UqIM1vsf0k+bNCbpnmyhcmcYwyuY9gJrfAIB4A6zFHAqSUjo8juqQtdos8bNLbPzJ+64EhmunicyEjhYQIgjR0Met9GnpI0+YA1+JHB62+Sr7c8BkoxbaYrWpYb8rpvN7iGYfLLlvoPIB83Grz3dJ19Uxe5RDsaNLbPzJ664Ejmgwbjr6+7QOEoK/RrQYPep95xN7cVNuEROIzdpQb9aZrwfWZQCxm8/mETVuAAqMuxBu89Xefg1EUu0T4Gje0zbR0VhPzsYjD++grHXaZxrUHv28geA1z7zJJeMnjto82zkqbsYAyU4iCDHjXNbyreIPb5eMwtgLrkdvTuyAA5InWRS3SAQWP7zCSpC45kTjEYf30lbHaI/u1v0Ps2ct4A1762wetukr900P+SrGvQo6a5T9JElR7lGXYDB1CfDxm8/3Sdo1MXuUQHGzS2zxly1GnKuEnUSCU5PnXBK7WiQe/byDMD3B3PbfJjv47GQClmyXRzqbcNcK0TxcmDkYyzdQdjAIC/hQ3ef7rOkamLXKIfGjS2z0ycuuBIYg2DsddnTkpd8EpNXMAPif/kAw2v/UKD19wk4T0B43eNQZ+a5gsDXOc7DF73MAkTNW/poP8A/E2Z6WTtSIMcmrrIJTrSoLF9ZurUBUcSue1OPmx+n7rgFfupQf/byN4Nrnmq+Ez9SCYJp4HM0OEYKMWPKlkqup3B6x4ml3XQewD5eNrgfWikwxyYusAlOtqgsX0mbFSFuoQjzR40GHt95ozURa/Yxwz630YuaHDN7zN4vU1yeYf9L8mnDHrVNDcNcJ2/N3jdw4QzsoG6PWrwPjTSYTgGsAOl3K0abeZMXXD07qMG467vnJ+66BWbJj5DP5J5nm2wYmo3g9fbJN/veAyUYm6DXg2SNze4xrAx8CMGr3mYLN7hGADg736D96GRDvON1AUu0REGje0zC6QuOHp3ssG46zsXpy565U4zGANtZNVRXu/pBq+1STbouP8ludWgX02zYYPrW87g9Q6TmzvsPYA83GPwXjTSYbZNXeAS1bYJ4JKpC45ehY2RXjAYd33nytSFr9wWBmOgr2V3E2e4/HCOHsZAKY416FfTHNLg+nY2eL3D5KAOew8gD6VsPjwyjnw6dYFLVNMxgCFrpi44erWfwZhLkbtTF75ycxWyK+9oVpIsYfA6m+SGHvpfki8Y9Kxp/tHg+s40eL3D5L0d9h5AHkrf5+pDqQtcou8YNLbPbJa64OjNtBW8KY4rYdUDR16m9XeDcTBsno9/R+OztcHrbJKjeup/KXI8Yzqc8jDdKDeIfcrg9Q6a++MeBgDqNVEFK12XSl3kEu1l0Ng+E64Xdch9aeewmTV1Ayr3DYMx0EZWn8B1/sLgNTbJ53rqf0nuNuhb03y4wNMr3hgmswDMZPBe1HXmSl3kEm1v0Ng+MyZ1wdHbTuylPxM1obwjdRMqt6TBGGgjB0zgOu80eI1N8tae+l+SXxn0rWn2qeAGSDjhBkDd3m7wXtT1iq7JUxe5RJsaNLfP/DF1wdGL3Q3GWi47uKO7ZXn/MhgHw+bS8VzjfAavr0nu6rH/JdnGoHdNc94oruvPBq9z0Dwpaaoeeg/AW+lHXd+ausCl+phBc/tMuFuFss0p6QmDsZY6n0ndCBRxykqYfZ9hHNe3kcHra5ITe+5/KXJczfLUBO4aTS3pOYPXOWh+02P/Afj6qsH7UZc5J3WBS7WyQXP7ziypi45OHWMwxhyyY+pGQKsZjIM2stY4ru/HBq+tSbbquf+lCBuKPmLQv6ZZfjzX9GGD1zdMNu6x/wB8nWjwftRljkhd4FItZtDcvsNxEmVPaJVw/FobOTB1M6ApJD1uMBa6Omv8WoPX1iTsizG4Pxj0r2nCnbFx2d/g9Q2asOP3m3rsPQBftxi8J3WZr6UucKlmNGgugwltCEs6bzYYXy4JX9iRXo4bqL0xl4/lut6U2WTbQxyNWd2pKr8bz/VcavD6utzfAED55jV4P+o666QucslyPgd3kPAcaJkOMRhbTrktdUPwio0NxsKweUnSzJlvPHRKov6XYkWDHjbNA3EzzrHd+HjR4PUNmu0S9B+Any0M3o+6zjypi1yymwwa3Gfu5U5QcdbK7G5kH3k5HoeItN6U+Y+N/2TdN1zXdwxeU5PslKj/pQgb6j1t0MemWXQs17KOwesaJuH0DQA4zeD9qMs8mLrApTvfoMl9Z7nURUdr5op3elKPKccsm7o5eMUFBmNh2Hz/Ddd0scFramtDOIzOeQZ9bJrNClstdkWCvgPwvLnwvMF7Upc5K3WRSzfGoMl9Z6/URUcrppR0icF4cg07RXso4Zieq153PVNldoRaeMxtsoT9L8XeBr1smmPHch1XGbyuQcN3FwCKp9qMFJ4DUhe5dDsZNLnv/C110dGK4wzGknN48/TwNoOx0MYjJbPG63m/wetpknMT978Uqxr0smnCDtmvN1vmj4stmaj3AHyEvU2uMXg/6jobpC506XJ/Hm7QTa3C0nHkaw+DceQeTgLwcb3BeGjrw3h3g9fSJNw1bcc0mS45ff1n/ScMXs+gYWNXALlOxo4M8DttltSFLt2iBo1OkW+kLjwGVsPSpzbC0Wc+cts0b2w5LF7LGQavpUlWTtz7kvzNoJ9N8/HXvf4jDF7PoDk4Yd8B+PiTwftR17kidZFr2d03p+c528qdkiZJXXw0tlGcGUw9fnLJ21M3DK94r8FYGDbXxffMRw1ey2gT7lhzGkZ7vmvQ06Y5tJBTjz6QsO8APKxs8F7UR76XutC1+IdBs1MkPP6AfISjyF4wGDc5ZfPUTcMrJingtIrw7PQaBq+jScImoWjPRw16OuidpHkMXsswx2FNmrj3ANJ/j7jC4P2oj6yVuti1ONKg2Snyx9SFx6h9vNKVKsPm5NSNw2uONRgPw+Yig9fQJOGONdozc4YrsF6UNIOkzxm8ljZPMwBQl60N3ov6yLOSpktd7FpsadDwVFkpdfExqmX/3PkfLI/Fx3yQ3gYG46G2rJ266QW62qCvTbN65hNwYfUbgHrNF7/PjVSQU1IXuybvMmh4yjta4UgNeNoh82ObHLJK6ibiFdPFme3U46GWvBTvWKNdhxn0tmn2jfv+jGSYp9nHAqha2Mz5fIP3or7y+dQFr0m4Q/ikQdNTZb3UDcBY3/AOMBgbJeTo1M3Ea3LbQT/nhDvVaN8nDXrbNLcbvIZB8/vUDcdYv5+sIGnneDrDIZK+HvfceZ+kKVK/QBRlb4P3oT4f2ZoldcFrc7ZB41PlBt6wrUwv6VSDcVFKnpA0beqm4hUcYdlfDk/d7ELNadDbmsLdMC9hRd31o1i1cV5cwThr6heMrK2d4b4rI0Mk/N2gZ183aHzKHJS6AXjFApKuMRgPpWXT1I3FK97CIy295VOpm12wmw36W8vdMH5Aem1G/GLDHobNi38dT1AJKweA0Vo23sAZqShfSF30Gq1k0PiUCV/KP5y6CZVbMx53lHoslJg/p24uXnO5wXioIXOnbnTBjjbobw25IHWj8Zr5JT3TwqMou0qaPfXFwN7bJN1n8B7UZ55gtWq6fQAeNxgAKXM3s+1JTBGfoePOaHcJtV0wdaNR3fN8qXJr6iYXblODHteQHVM3Gq85scW+Phf/fWG/AOCN3i7pHoP3n75zVOrC1+xXBgMgdc7i2LReLSrpSoO+15CwEzbSW8ZgLJQezk3v1oIGPa4h4ZE4eOxLNOzd/3ElPPL4ZUkzpL5IWAibS95v8N6TIiukLn7NPmcwABzyC57V6tyk8e7GUwb9riX3MrllIRw7epfBeCg5X0zd5ArcbdDnknNV6gbjNev30O9wEteRkpZKfbFI5hMdTjS55+rUxa/dmwbY4KTU/Ch1MwoWPuAuNehxjfl06ubjFT8yGAslZ+HUDa7ALw36XHLCo0LwsE/Pvb8sHik4TeoLR283xPav/DHYTVI3Aa9uOpN6ILjk26mbUeAyuh8wyZQ0F6UeBHhtw8vUY6HklS5hlQW6tbVBr0tOeFQIdU92PSTp4LgbPMr0zjjhM1Jx7mJ1qoctDQaDU37I4wBDC3/Y21b8XJNblkw9IKApKzzep6+EI7fQzxfX1L0uNXcwiWXlDIMxcUNcFbJI6mKgFVPFfj5nMLZSZ6fUzcB/HwN43mBAOOUESZOlbkyGJopncd9i0EPy34TnDJHebwzGQokJk43oXpgYf9ig3yXm0NTNxf+4yGBMvD7hKNmvSnpL6sJgoO/F4Vn/fxmMI4c8xgaYXk4xGBRuOV3STKkbk9HzTOGH/xUGfSNj32xo5tSDBK8885Z6LJQYNtHqz6kG/S4xq6ZuLP6H655FL8XHdsPK3blTFwkTFB7r+cv/Z+8+oCUryrWPP+QkUYIEAUkGQEkqCApXEZGgXhXuRRExYRYUFRFhMFwcRdSB4XRVnzOMDMYDioiCOoqCGEEEFRSQJIjknIfhvav2KXAG5syc0N1v7d3/31rP+u63WMLpqtrdu/auekv+46akfMq7UzC/fQsYFCUmPbHj3NbRrZDfvl1TQF+RhYcvXX9rUg+j47lL0hLeHdtHPlZAnzctaVUFKw7LUuoDgCfn4ly76qX5RQzKmfh/Kz+w8R4jpe39X967c/DUPds3FTA4SsyjuSIsX67/8TxJX8oFa7z7h4wtN+c9aPB1fgFjoWkrtdA72xfQ503L1707FbV9APDkB0npSOsD8sNm9H6p/16SflHAWCg1B3p3EhbscwUMjpKT9mC9Qv1d0f9dkn5bQF+QieU93oMIOqyAcdCkHO7doX0mvam+v4B+b1L28e5UNOIBwLyZmz/DZyXtnu/f0B3pYcsHJF1WQL+XnD9RYL1cqbjInAIGSen5kaQt1B9Wl/Q2Sd+X9EABbU8mlytZLl3E6hnvcdCk7OTdoX3o5wX0e1PyoKQVvTsUjXsAsKCVrBfnYpOpXhP1AyZnpbzS4mzmTRpLHpO0s3enYeG+W8BAqcuXaVq2t4OaJz3cOFTSL9mv3Mi80XuAoXoQ4z0OmjJ5Wsa7M/vQlAL6vkkvFFCepj0AGK3GVbqPfV/es84WwYVbX9Lb87GzDxbQf3XKSd6dh0V7cQEDpY5bA96VC+LV0dqS/jdfoDcU0J6ku0k3NvD15QLGQRNyrndH9qmXF9D3TUm6d0B5+uEBwJOTXvhcLunU/JDv9ZI26eNl26vmNhjI7eLdP3XNrfm4edTA7AIGTB1zT34ymJ4QPkNlWiIvQU5/48w+fRPJk1tpT++B2Od2KWAMNCGpbg16L1VxfriA/rcG7NMu9V6h3/XjA4DRkmp+XCBpRl4dmibF2zTsaOE1JO2Wa/Sk6v1/p4J/x3KAd+di7Lg57cx+l/SFOTUX+Nk4VwjtpVXyio60h//4XH38vgLaxvshzXaSrijgb/HMhQ7jEf+RThThBI3J51XeHdnHflNA/9c9v/buRIyKBwBjP4b14lwn6quSDpb0GklbSVpX0rIqq1jfi/Kx52mi35L0Y1a+djU/5V6zfn5VwMBp4hflObkIS/ry2V/Sy/ISq/F+Sa4saUNJW+e3ue/O1V5Pznv3by7g85aWRyS9MrffAQX8Pd55XRe+NzB2Xy9gDNR9uSqVrf18oYAxUPd83LsTMSoeAHQu9+V6A2m77E8kfSO/lJqSq+cflF9U7ZPzakm75lO3ts15wTz/9w75n6fsnf83qbDh+yUdlR9EzJL0w/ygMr3N7/eXXx65PT8EQs28JL/F9h5A/Za781mu10i6StKf8/+bcmP+ZyxLGn/SWH7Lk7ZC9PsqgEv6eG9fCf6ngDFQ91Us8LNXAWOg7tnMuxMxKh4AEDK5vNH7IsbEcSIAaUrSiosne2sBf5d3OH/aT3p7zT7qiecr3h3Y51KBLB5GTzyXencgFooHAIRMPDO9L2BMzmZ52bT3QCJkMklbLkbbh93vqwAuy6sh4IOCqxNPKkQFXxcXMA7qmmO8Ow8LxQMAQiaWK9ie1wxfLWAwETLRfGcRy9ypBUCFVk8fLKD/67qlJxV0gq8TChgLdU0q0Ity8QCAkPHnPklbeF+86IwVJV1fwKAiZLw5XdJSixjf6e13v5/vmq7v5Xr0fYL5bVBA/9cxf/PuOFT2LWAs1DH/ojJ28XgAQMj4c4D3hYvOekMBg4qQ8eRMSUuPcXxTC2DkFAn4uKSA/q9b2t6dhsraBYyFOiYdP4ay8QCAkPHlK94XLbrjhwUMLkLGkrMlLTOOsZ1qAVxZwN/tmd928bsDC/e5Avq/bpn3RA/46vc6KhPJq7w7DYvEAwBCxp7ZY1hxi5paLx9B5z3ICFlYfipp2QmMb1YBjFzj6L0XFdD3dcuG3p2GJ8woYDzU7ajfsa5Og5/fFjBWCKlD/ixpZe8LFt31vwUMNEJGyzmSlp/g2E61AP5awGfwDEcC+khFKm8soP/rkn96dxjmc2ABY6JO+ZZ3h2FMflLAWCGkDjWk1vO+WNEb3yhgwBHy5JzRgUJ2exTwOTxzdIe+IzB+7QL6vy5Jv0Eox0YFjIk6Jb1IQfmGCxgrhJScuyRt6X2hondWkXRNAQOPkMfztbyPvxN+VsDn8cr0DrUhxm/vAvq/LnmPd2fhKW4oYFzUIQ+zVLY2vlDAeCGk5OP+dvK+SNF720p6sIABSMhxHT5OaStJcwv4XB45sYPtiPFJq1fuL2AM1CGbe3cWnuJbBYyLOuTH3h2FMWNrCyELzgOS/sv7AoWfdxQwCEn/5jFJh3dpbH+tgM/nkW61J8bmjALGQOm5jfPTi/S+AsZGHfJe747CmD2/gPFCSGl5SNJu3hcn/A0WMBhJ/2WOpHd1cVyvl59wWp/lZV1sUywaD1UXne97dxIWaIsCxkYdHlqv491RGLP0oPGmAsYNIaUk3Rfv6X1hogzpKJtfFDAoSf/kzh49fey3s9mvydXo4ecZfbz9ZKw51LuTMOpk6bYCxkfJ+b13J2HcTi5g3BBSSsE/XhJhPivlMyC9Bydpfq6U9NwejeunSfp3AZ+5VzmoR+2KhePs6YXnhd4dhFGxhWXh+YR3B2HcXlnAuCHEO2klzNbeFyPKtGGfTZZI7/NTSav2eFy/t4DP3Yv8oYOnKGByPlnAeCg19zJOi3ZoAWOk5DzPu4MwbmlVHKdekX7O1ZI29b4QUbat8/Js78FKmpcTnG7803/zsgI+fzdzB1/uRdmygDFRamZ7dw4W6kUFjJFSc7l352DC3l3A+CHEI7+StIb3BYh62F7SPQUMWtKcgiOpMJqnlzV4X3Zq352d2xdPdXUBY6PEHOXdMVjkA9N7CxgnJeaL3p2DSY1rtmaRfstJuc4bMK4JE+dZk8nm0lxZugTTC2iPTicV7HqJd8NigaYVMD5KDOcOl292AeOkxPBdW/9trjcUMI4I6XYepdguJuPlrAQgk8gMScurHE9r2D7A9Fme492oGNUuBYyR0nKfpGW8OwaL9KkCxkppSfWROGGl/lIB4lsKGE+EdLPY3yu8LzTUX6rWzLFAZDxJD43epDLtms9xtprnbElrezcmFipNFq4vYKyUlFRhHuXbqYCxUlqO9+4UdMw2PAQgDc0vJa3jfYGhOVLVW25kyVjPSC69GN30mp/h+o58XjfK98UCxkxJeY93h2BM0p5RtgDOnx29OwUdtb6kCwoYV4R0IunF1jGcsINufVleUsAgJ+UWovuYpCVUvmVrOpbTW//1vBsP4/KCAsZNSUm/I6iHnxUwXkrJdTx0baRl81ZF7/FFyGRybd6yDXR1D/X3CxjspKycL2kz1W9Vy/01euv/du8Gw4T9pYAxVELSQzfUxxEFjJlSQvX/ZnsDxQFJTd/6tyWt6H0BoX/2tX6+gIFPyijo9aEaF0Z6VwFtuKicxVv/2juogHFUQj7s3REYl00bUi9lskltsLl3Z6DrVsontzxawJgjZFFJ27J3975o0J9eL+nOAi4C4pMfStpI9XdKAW25oPDWv1nLTG8uYEx55iFJq3t3BMbtnALGTgm/degf2+ZCat7jjpAF5RFJx/LWH97Wz8u/vS8I0rtcIWkvNWty9ocC2nXe/FjSM70bBh3V78eqfdu7AzAh+xUwdryzs3cnwO3EoD8WMP4IeTy/kLSF94UBPG4pSV9g2VTjk95IfyT3dxMfZJVwJFBaUfM278ZAVzw9X0PWp0nHyqF+linku9HzVBv0r7S9cV8eBBDnXJ3HIVCk7SVdVsCFQjqbR3ORkTXVbLvkpVVe7fwj9vo33nsLuJ498j3vhsekfLiAMeSRuZJe5t34KGpFwOwCxiXpn9wk6QP5WFag+OXUqUDgnAIuHDL5m59vSnqO+odHUUDe+vfX26TfFHBt9zIP52JyqPcqgL8XMJZ6nRO9Gx7FHu3aknRPAWOUNDN3Szoyn7wG1Mrz814V74uITGzi/50+rnr8mR6/9V/X+wOjpzbPp2dYnyRdT6i/Hfvswf51FNnCIqTx8R5JFxcwXkkzckuuF7Sq9+AGJmsfSdcWcFGRsR11dJqkLdXfFpM0swdv/Q/0/qBws3d+M24NTzrCcgnvxkbHHFLAmOrV27etvBsbtVsVcJykGwsYv6R+uSYv9V/eeyADnbScpI9Luq2Ai4w8Nffl5WzP9R4oBUmFDs/uUnvz1h/JKyTdXsD1362cnr/70SxHFzC2upl/SdrOu5FRW0vks9lP6fOir2RsOT+ftLKk98AFur1c6sj89tP7oiMjKzM+xlKjhe57bXewvXnrjyfbIJ8xbg2bQL09r6RBM+3bwJMB0lv/o9hziw7fQ+wp6aSGP+wl43/p1s6rRoC+kiach7NUym2Zf6rN8AaW5o7ZezqwXPsM3vpjIV4i6et5EmI1zIN5xcz+uRAsmm8lSUfkvfJW41wl6bOSVvduUDR+VeErJR2fx5z3uCe9zx/yMv9VvAcj4C0da/FWSZcUcGE2PVfmtxvP8u70mkonIfx4gme3vtb7j0et3hhtn0+jmCbpJ5IulHS5pOsl3eGU6/PfcGF+gJgeaH0hr2h5IfsW1e8nW6Qx8Im87Dmdl35/Ab95oyW9iT1H0rH5WmOlCjw8L2+NPbfPimv2W/4p6Ri22AKj2ykXXuun6tjdzh15b396u4jO2Cvv4V/YD/Yjkn6WV1mwrwtAPz4UWDU/cE4TnW3zGeoeeWn+76ewCgulbo9N9xZfzi/EHivg/pFMPDfmI0T/K38XAhjjssKDJP0qH0fnfSHXcf9tzD8m6W0iumOtvM/5q3np9gm5nkLa78ceUgAAMBFrSPqffC/3jwLuK8nYamp9OR+XyqQfmKS0J+8ASWeyRGqhuVTS1LyKguWMAAAAzbB2PlI75iXl3vecRHo0b4k7Oq8u4t4b6OIb17fkt603F3DxeybtxR3KD0ee6d0xAAAA6InN8v3fgKQ/8YKsZ7k633u/UdLK3oMA6EeL5yduH5H03YafJvBI3hM2PS8JS0+CAQAAgLTtcBdJh0n6jqQr2ELbseLZQ/nlIy/bgEKlYkNvypWpU+Xsfxfw5TGR6sQ/z/uIUnXtrfNJCQAAAMBYCwumbaEflDQjH0FX12Nme3X/neYOn5P0OknreHcggIlbU9Ir8pFaaY/8qfmIotsc9wylQiG/zCceHJWfLKYvab5sAAAA0C3rSXplfjDQykdiXpvvT60PkrZL/E3SaZI+I2lfSRt7dwqA3lkmL+lJ5wC/RtI7JR2aC3qkN/CDkoZzfihp9gJyWv7n38zFWWI+Wzidh/yO/BTxpfkYpFTDgCPhAAAAUJK02nQTSbtJek9eTfsNSefmulP3FzB5H2t+MILAAAAgAElEQVQeyn/zjyWFfE+eJvrPZ1UtAAAAAABjO6b7ubnewD75QcERko7Lq1p/kFe4Xpgn4NdJukPSw5Osg5WW518l6eJ8RPhZuSD4V/LkPm2Z3UPSNnk1LRX5AQAAAABwlCrnrzpPUlHrjebJvP9sBe8/FgAAAAAAAAAAAAAAAAAAAAAAAAAAAAAAAAAAAAAAAAAAAAAAAAAAAAAAAAAAAAAAAAAAAAAAAAAAAAAAAAAAAAAAAAAAAAAAAAAAAAAAAAAAAAAAAAAAAAAAAAAAAAAAAAAAAAAAAAAAAAAAAAAAAAAAAAAAAAAAAAAAAAAAAAAAAAAAAAAAAAAAAAAAAAAAAAAAAAAAAAAAAAAAAAAAAAAAAAAAAAAAAAAAAAAAAAAAAAAAAAAAAAAAAAAAAAAAAAAAAAAAAAAAAAAAAAAAAAAAAAAAAAAAAAAAAAAAAAAAAAAAAAAAAAAAAAAAAAAAAAAAAAAAAAAAAAAAAAAAAAAAAAAAAAAAAAAAAAAAAAAAAAAAAAAAAAAAAAAAAAAAAAAAAAAAAAAAAAAAAAAAAAAAAAAAAAAAAAAAAAAAAAAAAAAAAAAAAAAAAAAAAAAAAAAAAAAAAAAAAAAAAAAAAAAAAAAAAAAAAAAAAF1gU7S4DWjVKifqmTagjaylTW1Q246aoO2spR2f+P+3tVn1v2vrWdW/Z0gren8uAAAAAAAayaKWt0FtYkE7WNDeFvQ2C/qYBR1rQTMt6vsW9HMLutCCrrSgmyzoPouyLuYuC/qXRV1R/XejzrGoYYsasKjPWtAhFvUWC9rdBrSFzdAa3u0IAAAAAIAbG9YS1dv1qF2tpXdY0BSLGrSgsyzqLxZ1R5cn8r3MQxZ0rQX92oK+ZUHHWFvvqj571MYWtZR3fwAAAAAAMCnW0obW0h75zfh0izq7ense9UgBE/NSMseCLreo0y1qqkW91Vp6UVoB4d1/AAAAAADMx6LWtqjdLOgjFjVkUb+3oHsKmFzXN0GPWtSlFvUNi/qotfVyahEAAAAAAHrGBrWWRe1pUUdZ1A/ynnj/CXO/PBQIusSiWtbSAWmFhfd4AAAAAAA0gE3Rkhb1Yos6tFqiHnS9+ySY2JMeClxZPRCIekM6scB7zAAAAAAA6lJ5P2onCzrMgs6sqt57T3CJjXPbwPkWdXA6AtF7PAEAAAAASqrGnwrOBX3Kgs6jOF+DEvRY9TBg5MSBlb3HGgAAAACgxyxqfYt6Z3V+fdDt7hNVYj3IAxZ1ig1qW+/xBwAAAADoImtrK4s6OheQ856Mkuiacy3q1d5jEgAAAADQqaX9bb3Ugr5sQVcXMOkksbAE/dyitvEeqwAAAACACbCgHSxqukXd7D7BJFaTYwU/Z1FLeY9dAAAAAMAiWEubWtCnLeof7hNKYjXNbzhCEAAAAAAKZINazYI+aFG/K2DySGIjchGnBQAAAABAIVIVd4uKFnV/ARNGEhuXlvcYBwAAAIC+ZdP1NAs6KL+h9Z4gktjozLUBbe095gEAAACgr9igNskF/e4uYGJIYp8kaIb32AcAAACAvmAtvciiTq3exnpPBon1Ye63aVrJ+zoAAAAAgMayqJ0s6MwCJoCEvM77egAAAACARrEpWtyC9reovxQw6SPEcgYWPGBnaQULeo9FnW5B11vUHRZ1m0X90aJOsbb2TUUren4lAQAAAEChzLSYBb3eoi4tYLJHiM2XoMueOmij3mpBt4/hX5COqPiKDWotl6sLAAAAAAphbb3Koi5wn+QREkdJ0KN2nJb7z6AN+vIE/kX3W9AxNqQVXa84AAAAAPDY4x91rvvkjpA4hgxq28cH7gcm+S/7t7X0jrTfxfsiBAAAAIBuspY2tKjvuk/oCInjyltkQ1rHgu7p0L/wImtpF+8LEgAAAAA6zaKWt6BPW9QDBUzmCLFxJeiTaRAf0YV/cTrqYmPvCxQAAAAAOsGC9raoa9wncYTECSboxDSQf9ul/8BDFvVFi1rZ+2IFAAAAgImwtja3qHPcJ2+ExEkm6AzlY/66+R9KRwgebFO0pPfFCwAAAABjkeYvFnRYfrHpP3kjJE4656cVAA/36D/2Z2vpld4XMgAAAAAsjEVtaUEXFjBhI8Q6mD+nBwA39fQ/muoDDOjZ3hc1AAAAAMzLopayqKN6+JKUEOthrkmD/GyH//AjFjXdBrSm90UOAAAAADao51vQnwqYpBFiXcpt6QHAh93+gHT8YNCn0nEa3hc8AAAAgP6UzkfnaD9iTU/QPelJ12oWda/zH/Ivi3qnDWsJ74sfAAAAQP+wqKPdJ2aExJ7k3scH/ecL+GNSLrW29vL+EgAAAADQfBb0uQLmQIRYTxJ038jAP07LVZPvcv6wX1pLL/L+QgAAAADQTBb0Nvd5DyGxp7l//qIXUXcV8EeNJOgxi/q2RW3s+s0AAAAAoFGsrc3Y80+sX7cAPHEhtLRjWhZQwB/2n6QjOIK+alGru31DAAAAAGgMi/qp+zyHkNjz3PrUiyHoZRZ0ZwF/3JOTVicczokBAAAAACbKol5cwNyGEHPIPxd8UbT0PAu6toA/8KkJusWCDrOZWrbn3xYAAAAAas2CTnCf0xASHRJ0+egXxpDWsaiL3f/I0XONRb2VowMBAAAAjJVFXVTAXKZuecSi7rCof1vUVRb1Fwu60ILOs6DZC8iPLWp4vgSd9cQ/j/pd/t+nXFn9O0eOhqcuQ+xigi5Z+MUxTSvVYH/MpRb0ejMt1rNvDQAAAAC1ZFE39tGE7+Hq8wb91aLOtajTLepkizo+H4H4cQs6yNra14J2t6iXWFub24A2skGtZlEr97x/ZmpZi1rbBvXc6u+J2tOC9regD1Z/c9DXLep8i7rBoua6t3GsUYLOW3QHRC2VB0npH+YP1tIrezIqAQAAANRSUcefjz/3W9DVFvUbCzrDoqJFfcaiPmRtvTlP4l9oLW1oQ1pRDWfDWtoGtYlF7WotvcOCvlCtPhhZTeDdV1Zgvj+2hjUtlp8QWQ1yjgXt0PXRBgAAAKB2Cq0BcFd+MJFWX38tv+l+v0W9rnoLnia5s7SCd9vVic3QGtbWXhZ0TLX6IejBAvrZN0EzxteIaXlI1Bz3P3xs+YFFbdm1EQUAAACgdmxIG6Tz0Hs0J3nEgq6v3thHfdeiplUFzaPeYi3tYlHP4ZSz3kjtbC3tYVHTLeq6Pn0AcOz4G27kKcp97n/82JL2hHwjPTHryigCAAAAUDvW1sst6PYOzDdSPYHf5UJ3X6qW4ke9xga1bbWPfYoW9/6sGGWFe9TO6Y24Bd1TwLy1Vzl8Yg2W9pVE3VzABxhr5lSd29azOj56AAAAANRONUEPOjadjT7KHOIhi7rCon5mUSdZ0BRr68Dq4UFLm9o0LeP9GTB5FrVyXpXR/OKQQW+beEOlypBBl7t/iPEfXzGYimJ0dNQAAAAAqC0b1Fo2oK2tre2rKvhRa3v/TXA5feCIqtCi/7y1O2nrVZNrpKjV834Wq+FxGKli5vodGzEAAAAAgFqzqPWrwvLec9ZuZEBbTL6BjtNyFnSa+4eZ+IOAATtRz+zIaAEAAAAA1JpN0ZIW9UX3+WqnM6jVOllE4Wj3DzS5BwHR2lqvIw0CAAAAAKg1izrSfa7auTzQjQZ6ay6WUdcHAelsyONtSOt0vHEAAAAAALViQSe6z1M7M9e9vDsNFPWSmp0QMPqKAB4EAAAAAEDfsmlaxqIudZ+jTn6Oe1b3GilqYwu6zP1DTj4PWNQ0tgYAAAAAQH+yqD0b8ADgxO420kytYlE/df+gnWmshy2onY4+7GqjAQAAAACKYqnmXdCf3Oelk8uh3W+oYS1R7an3/7CdylyLGraWntf1xgMAAAAAFMGiPlDAfHQyeV0vG+tDFvRowx4EnGptbdWzRgQAAAAAuLBBrVXzOe2WvW2wqN0s6q4CPnhnEzTbgnboaWMCAAAAAHrK6roNID24mKlle99gA9rCoq5xb4Du5HwL2rvnjQoAAAAA6Dqr6/b2oCv9Gu0EPd2iznVvhO417q/Tg4BUKMKtkQEAAAAAHWVtHVjTOeoZvg03U8ta1MnuDdHdXGQt7WdTtKRrYwMAAAAAJi1t/S5gnjmRTFUJLOgQi5pTQIN0L0FX54qRy3u3NwAAAABgYmxAa7rPLyeWt6oU1tbLLerWAhql2w8CbrGoo9IWCO82BwAAAACMj03R4rU8CSBoO5XETtQzLeoC94bpTR6yoFnW0qbe7Q4AAAAAGLv8YtdqlDkuJwAsSp/UBZg3cy3oTIt6oXfbAwAAAAAWzYKuLWAuOfYEXaKSWdTBtVxWMblwhCAAAAAAFM7q9gAg6mSVzoJ2t6g7Cmis3iboD9bSG21YS3j3AQAAAABgfhZ1jfu8cXz5sOrABrWJRf2lgAbzeBBwtQUdZjO1inc/AAAAAABquwJgZ9WFDWlFizq9gEbzyl0W9SUb0gbefQEAAAAA/c7q9QBgrkWtrDox02IWNMWCHiugAb0yx4K+Y21t790fAAAAANCvLOq6AuaHY0vQZaora+m1FnW3eyP65zcWtQ91AgAAAACgtyzongLmhGPNSaoza2nTdIxBAQ1ZQm60qKNtQKt69wsAAAAANJ0dp+UKmAeOPUEHqe5sppa1qCH3xiwlI0+gog3o2d59AwAAAABNZS1t6D7/G09aeoGawoLeY1EPuTdqKQl61IJOs5Z28e4bAAAAAGgaC9quRvPD+2yKllQDO6Bu5zD2In9Oyz1sllbw7iMAAAAAaAJraY8C5npjzS/UROlYAwv6XgENXGJS0cRog3qudz8BAAAAQJ1Z1NsLmOONNUerqaqjAqOOqJbB+zd0iZlrQWdaW69KbeXdXwAAAADqLy0xtyFtYAPaKNUkswFtYdO0jBrKoo4qYG43tgS9Qk2XPqRF3eze2CUn6HIL+qBN00re/QUAAACgdlXw/9eC2hZ1gUU9sID5Rnop+w+L+q619WYb0opqCAv6ek3mfA9b1PLqB9bSuhb0a/dGr8fpAdMt6jnefQYAAACgXNbWS/NJbHdNYO6RHhIM2pDWUc1Z1O9rMtf7tfqJRS1lUV9xb/g6JOgxC5ptUa+zYS3h3XcAAAAA/KUVwxb0fgv6a4fmHfdZ1JF1nnNY0J3u87ex5fPqRxa1T37T7d0BdckNqViEtbWed98BAAAA6D2L2tKiWl2cR51tM7WKasYGtGYB87WxJWh39StrazOLusi9E+qUkX0737eoV9sULe7dhwAAAAC6x4a1tLW0nwWd16P5xmUWtbpqxFra0X2eNrY81PfHwadKlBY1rVru7t8h9UrQ1RZ1uE3XM7z7EQAAAEDnWNT6FvV/FnSTw1zj3PTgQTVhQW9zn5uNLed4t1UxLOo1FnVbAZ1SxzxiUcPVSQscJQgAAADUUlrhm5aIVyt+/Y9RP141YfWpMXe4d1sVJe1vr542+XdMnXOFBR1mM7SGd38CAAAAWLS0ore6h4+6qoD5xEjSA4gBbaEasF5tj5hsBrWtd1sVJ1WerIrd+T/xqneCHqzOwkzHgrAqAAAAACjvbX+q6xX0PYuaU+ic4kzVY9XEPe5ttejcSg23hbConXPle++Oqn+CLq8eqkSt792vAAAAQD+zqLWrt/0j9bys8MxNf68KZgN6dgHtNJZ827utipeqT6anTgV0VlMyx4LOqOotTNGS3v0LAAAA9IPqLXVLe+TTvMp82z963q2CWTohwb+NFp22DvRuq1pIy9ct6JDqyATvTmtWbrSoqekoRu8+BgAAABpbyT9oikVdV8D9fyPfXFvQsQW00aIy1wa0pndb1YpFbVMVuPPvvOYl6EILOsim62ne/QwAAAA04JjzffJK5rq97V9QzlfBLOqcAtqo1m1YLBvSihZ1SgEd2NTcbVHRol7s3dcAAABAndiAtk5H51nQ7QXc13cuQVer7ALyd7u30aLzCe+2qjUL2t+i7iqgI5ucv1jUh21Qa3n3NwAAAFAiG9CqFvUBi7qogPv37iTocpX90MWKT1ube7dVM/bTRP3CvTObnnQcY9Bsa+kAm6UVvPsdAAAAKOD4vp3yytn7+2A+8HMVyoI+6N4+i85V3u3UtIvv4xb0cAEd2/wE3Vl90bW0YyrO6N3/AAAAQI+Pm/s/i/qn+315b/M1Fcqivl2DOdRXvdupcWxAW1jUxe6d219JlUyn2qA28e5/AAAAoBtsplapVsKmFbFBjxVwD+6Rd6pQFnR9Ae2zqOzk3U6NZDO1rEV9pY8vTJ+k9g46L30xWNTK3uMAAAAAmAyLWsqiXmNBp3EUuebYdD1DBbIBbVRA+ywqN6ZV695t1WgWtWtNngQ1MQ9Y0LespT1SRU7vsQAAAACM89jxaRZ0SwH31aXkuyqUpZUZ/u2zqEz3bqe+YINazYK+U0CH93P+nfa7cKQgAAAASmUn6plVTbGRE7C875/LW+k7oK1VKAtqu7fRotLSLt7t1Fcsah+LusO940mqFzCt5C8QAAAA9N2+/jOrE6/875VLzZAKZlFXFdBGoyfoJlZFO7AhbWBBv3QfAOTxXJyfsq7vPTYAAADQH+w4LWdt7WtBZ3CC2Jjyz7SqWoWyeuz/b3m3U38fFxj0MYp4FJSRYo2/sqj32Qyt4T1GAAAA0Czp7atF7WZRJ1vQPe73v3VJ0IPW1vYqmEW9272dFp3/8m6nvpePC7yggMFA5s8cCzrLot5iQ1rRe5wAAACgnsy0WKpBVW0/TTWp/O9z65WRLRFvUOEs6lT3tlp4/kn1/0LYFC1pQZ9kNUCxecCihi3o9Wmplvd4AQAAQE0q+Ad9waKuKeB+tq55xFraT3VY2RF0ewHttbBM9W4nPIm1tTmrAYrPvdWxglFv4GEAAAAA5mVRW1rUZy3qigLuW+ueuyzq1aoBi3phAe21qGzp3U4YbTVA1OGsBqhBgu6zqG9bS2+0qOW9xw4AAAB6z6KeY1FHWdSl7venzcmlNqBnqyZsZP5mBedi7zbCWFYDBP2hgMFCxv4wYDgf88jDAAAAgAazqI3zpO/iIu5Fm5SgULf7aYs6x73dFp6PercRxoDVALXN/VURkHSsyyyt4D2OAAAAMHk2qOda0Kcs6E8F3G82MbdZ1OtUMxa1clWrwL/9Ri+i2NK63u2EcWA1QK1zvwWdZkH/Y9P1NO+xBAAAgLGzQT3fgj7N8v6u52d1naTayApgKzZBZ3m3ESZ+UsBhrAao+fmlQbMt6mCLWtt7TAEAAGDUwtxHW9Tf3O8fm585VVvX+Hg6izq58DnI673bCJPAaoCGJC3FCTrPgj5iA9rIe1wBAAD0qzT5tKiXWNSXOLKvp/fDl9ugtlX9x87N7m05etLftpR3O6EzqwE+lveaew8q0okEXVItLxvQ1t7jCwAAoOlsmpaxlvawqGhR/3a/F+y/DDVhe6xFvbiAthw9Qcd6txE6yNp6lgX92H1gkU7nuurHKGhvntgBAAB0RirOXN1fBc3KZ8x73/P1Y+6ylvZTQ1jUZwto09EzqOd6txG6wKLeYlG3ug8w0o2kfj3Jol5Tt+NQAAAAvKXCchb1Xov6iQU9XMC9XT/nZ3ainqkGsag/FtCuo+VX3u2DLrKo1YsvQEEmmwcs6kf5R2x97zEHAABQcOX+T1Z1s4IeK+Aerr8TdJ8Fvd9Mi6lBbEjrFD2+WjrAu43QAxa1s0X93X3AkV7kKouaZlG7slUAAAD0K5upZfP90NSqsJz/PRr5T35jbW2mBrKo9xXQvgtO0C3puvBuI/SIHaflquM0WObUT7nNoobTkz6bqVW8xyAAAEA32QytUd33pPufqLsLuBcjTz3++jAb1hJqKBs53rvU9v+cd/vAa/lT1O/cByDp9QX/qEWdX33p1vxoFQAAgCcdh31YdZ8TNdf9nouMdi96ibX0AjWYzdQqBb9snWNtrefdRnCSnrpZ0CEWdW8Bg5F4JOhKi/qKtfWqtDrEe0wCAACMhUWtbFFvqI6MC/qX+z0VWVQesagj05HlajgL2r+A9h4tw97tg3KKVHyvgAFJ/JdjzX58dUDTirEAAIB6swFtZFEH5/uVUt+wkqfeY/7VorZRn7CS51VtvdS7fVAQa2tfi7rBfWCSUnKdBbUt6PXpKbv3+AQAAP2lWkodtY8FzeAtfy0zx4KOsWEtrX6qtxZ0XwFtv6Bc7N0+KJANaUULOjYv0/EepKSczEnnhVrUERa0nU3R4t5jFQAANEu6v6hWIUYdbkHn5fsP73sgMrH80Qa0tfqMtfTaAtp+wWnrQO/2QemFVKJ+4T5QSbnHh0R9w6LeYoNay3u8AgCAerIT9UyLertFfduibnW/xyGTzf0W9LF+2Ou/IBb1tQL6YEG5oZ9WYmASLGhvi/pnAYOWlJ2rLCpWy/Q4ahAAAIzCopa3qF0taqoFXWhBjxVwH0M6k3NtQM9Wn7KopSzqjgL6YUH5qHf7oEZsmlaqKsWzDIuMLWmc/MaiPmst7WLTtIz3GAYAAI6nTkW92II+VU0Q2WbavATdbkFv6/cC0ha1p3tfLDh3pfmcd/ughtITvarqqv8gJvXKA3ncHJ2f+C/lPZYBAECXq/UHHZSOHKsmh/73IqRbCTrTWlrXe8yVwKJOdu+PBefz3m2DGktP9qylAyzopgIGM6ln7uW4QQAAGjbhT/eHaTtg0PUF3GuQ7udGi3qD99grhQ1r6UKX/z+Ujnz3bh8051iW4y3o0QIGNqlzRo71SQUF322Deq732AYAAAuXJhQWtL9FnWRB17rfS5BeZq4FnciS8vlZW3sV0DcLypB326BhrK2t8n5v78FNmpKR1SWnWtAHLWpLjhwEAMCXtbWetfXmXPD37+73CsQrf0z1HLzHY4mszOX/c2xQm3i3DZq6LSBVf+cJMOlGgu55YstA1E7UEAAAoAdv+NO93ciE/1L3ewHinbss6uBU0NF7bJbIpmmZ3EZWWE7ybhs0nM3SChb1marom/+AJ83N3Rb1o+qBQNAOPBAAAGByrK3NLOqdFnUKxz+TJzJyROMpNl3P8B6jNTg23QoLb//ROxa1vgV9i3NdSU8SdJ9FnZOPHdwj1afwvgYAACiVTdGSFrRd9UY3bbkbKebm/3tOSsul6Thn7/FaBxb1zQL6a/4EzfRuF/Qhi3qhBf3a/QIg/ZirLGhWdQRRW5tz0gAAoF/ZdD2t2kI3snLuTAu6s4DfaVJu7q+Obp6mZbzHbm1WQIfqZZQVk1Skva3NvNsGfYr6AKSQ3F3VEUg/aFG72nFazvvaAACgGyxq7bwkeapFnW9RjxTwO0zqkPSAaEgbeI/hOrGot7r321PD3n8UUx/gs9QHIIXkEQv6rQV92Vp6o7W0rvc1AgDAeNlMLWtRL7Ggj1jUMPv3yYQSdKVFvdp7PNeRRf2ksL582KI29m4XYP5jZEaWZlMfgJSWG6sn32mVQHpzcoKe7n29AADwlOr8877dD3qwgN9PUteMLF0/Oj1I8h7bdWSDWqsqtufdj/PneO92ARbIWtrRoi4o4CIhZLTMtaDLLOprFvT+qqbFsJb2vnYAAP3Bpmkli/ovi/qERX3fgm4q4LeRNOceZwbV/SfHgg4poC/nPzp7QGt6twswKpuixfO+GZarkbrkIYv6XXq6akH724CeTYFBAEBHlvK3tb0FfTCvlEwPoOcW8LtHmpag8yxqG+8x3wQWdKF7f86fo7zbBBiTVJDNoj5uUXcUcOEQMr6MVFP+abUcs619raVNeSgAAFjoMXyDer619A4LChb1Rwr1ka4nFeRua1/v8d8UFvUc9z6dP/9OJ354twswLjao1SzoWPazkQbkbos614K+ai0dYFFbphs+72sMANBbFrWUtbWVBb3Ngk7IVfnvL+B3ivTXPv8jOAGps3Jxcyso7/VuE2DCLGp9izqZpW+kURl5sPX76m1P0EFVTQGK7gBAY1jU8tUy/qj3WtRgtTx4pCK3/28Q6b+MFNw+ORWO9L42GnrM+VUF9fXl6WGjd7sAk1Ytjws6y/2iIqR7mWNBl+RCg4dY0CtshtbwvvYAAAtnUatX39kjx++dYkF/taBHC/hdISTlfGvpRd7XSVNVR2/697E9kaC9vdsE6MZFdn4RFxghvckdecxPy6sFdkpvlryvRQDoy/36A9ooH713dD4utpw3f4TMn79b1D7UIuouixoooK8t5yfe7QF0b6lN0P9Y1D8KuNAI6X1G3iz9zaKGLehT1tJrq5tSfuQBoCPS8VnVW/2oD1vQzFyc76EifgMIWXhutKh3U2+oR3U9om4t5N7w4VR82rtNgK5K57DnI3Jucb/oCCnlzNeo31hUtKiDLWq3VEfD+1oFgMKLDr/Mgt5jQSda1C+KuaEnZPz3AEfaLK3gfV31i7wayArJVO/2AHrGhrSiBX06f/F5X3yElJeRa+OCXFDzE9bWf1tbm/F2AEC/sJlapdpG2Na7qlNZgmZXR2V5fz8TMvmkYyOnp1Ur3tdZv7GobxfQ/2ZRN3DsH/q3CE/UFzlSh5BxLBdLxaqiTq2OsGlpPxvQ1hwPBKC2WwSHtIG19aq8CqpVvdEPusn9+5aQ7lT2H2bZtw+bppUs6gH3cRCrvMm7PQBXNl3PyE/3HyzggiSkjplrQVdb1E+rJbHpVIKoPatVAxwtA6CEI/ZaeoG1tW+15DnqmxZ1ES8ASB/lXIt6sfe12M8s6p0FjAOrHnJSAwoYYW2tVz3959xdQjqZOVUBzqAfW9AJFvUhi3q1DWoTthQA6BSbqWUtastqy1LUxy2ond/mX1/A9yAhPgm60Fraw/v6RLX//9cFjIcHWQECLIC19SyLOilPXPy/vAlp9j7EKyzorHxsYSrSubcNaAv2pgFY4BLatrayoNdb1EctKFjQzy3qury82fs7jZBS8pfqYRhveotgUc8pYEyYRR3u3RZA0aylDavq6CNHqHlfsIT0Y+6o3l6MnJ2drsXDqlAFProAABNCSURBVDOKB7VtKubp/R0BoPNsQKtW13i61keu+ZgL8F3FJJ+QRSRtxws6yIa1hPe1jP+woC+4j42oP7MtExgja2tzCzqNGw9Cisu/8zGG37SgY6qbnlTMK12z07SS93cHgAVM7keW6e9VHaMX9X8WNMuCfllN8Fl5R8jEJ/5tHcjWuvKkPrGoG53Hx6MW9ULvtgBqp1qWnKqn8iCAkHpkpLBnmlScX127UVNzpe/HVxGsw/JIoIN78Ae0kUXt9KS392dWK3mi7nL/TiCkaRmpcXGwTdMy3t8BWLDqgaf3OIk6zrsdgFpLVVQt6oc8CCCkEUlVwP9mUT+zqJOr4w2D3l/tnWxpR4vaOFUQ9/7eATyloz7ztbCzRb3Fgj5pUQN5cn9JtV3H/1ompH+SjqpMJ+7M1LLe3w9YuGoVse94ucpmaQXvdgAaoTr/fOSinuv+Q0AI6XbutaDLLepXFnWqRR1vQZ+yqLfn5czbWUvr2rCW9v5uAsbCZmqVqjBVWy+1qDdY1Acs6NPVaThRp1crZ4KurMa+//VHCBnJzRb0MSZ09WBRq7ueLhaqpf87ebcD0DjW0vMs6OsUCySE5NxqQZdZ0Hl5IjVkUZ+3qEOrPZrppIOgHaytzWxQq3l/h6EZUtEvm65nVHvso3a1oP0t6sPV1pegmXnl2oV5yfBDBVwnhJCxJuhf1Rt/VqTVSt526Dl2Pu/dBkCj5eWRQ65P+ggh9cvIw8Obn/LQYKRq8OEW9T5r683VSoP0tnZQz7chbZDe4Hp/76Hz0l5eG9CaNqBnVw+KovbMk/kPWdTRefXJ1y3qRxb027wy5VZWoxHSyFxX/Qawx7+WLOpix7FzEasSgR6xqPUtanouQOb9w0EIaXqC7rSga6u92OkBwsi+7LQq6cT89veTFvSR6pSElvbLZ6inN8Q7VFuZRgq3rZ0qtHt/f9ZVOpbSZmiNqi1beoG1tX3VxqmWRNSbqrZP59anGhNR06o38kHfq2pPjLyVv9KCbuHNPCEkJxWwfScTuPqyqG3cxk/Qg+lEJO82APpOXor5JfZPEkJqlZGHl6mo2zVVgcSRCu6/q85iHzmP/fv5RJTvVFXeRzItn7KQcniuAH9oNfEdOZ7xzVVl+AWlpT2qyfKC0tbLqxMbFpSWXjTq/+7xtPTaef47+z3x94xMyNPfd1jOp+b5+0c+08jnS6dH/CR/7t/nyfrl+Uz6WyzoHvf+IoQ0KX+3lg7gOL/6s6AT3MZR0CHenx/oa7kAyOc4AokQQgghhCwgf7Go/7UpWtz7vhUd2soVdLvLWAqazTgCCmFRK+e3TLcW8ENDCCGEEEJ88/tqqxATtkaxtvZ1Gk832qDW8v78AJ4kVXCtCrpE/aOAHx5CCCGEENKrBD1WFfGM2tn7nhTdYVFnO4ytOYwpoHDpaW8+DuzX7j9GhBBCCCGkm3nEgmbZgLbwvgdFl4uB+xwNfrj3ZwcwDha1Uy6q5fGFQQghhBBCupN7c6HU9b3vN9F9+bSX3o6xoLPYRgLUlA1qk/wj8UABP1iEEEIIIWRiudmijrZBreZ9f4neSKc3WNQNPR5n/0wFx70/O4BOHCEYdEw+isv7B4wQQgghhIwl6ajQdNToTC3rfT+J3spHz/ZyvD1kbW3v/bkBdJBN19PSWZ4WdK37DxohhBBCCBktv7Co17EUu3/l4o69G3MtHeD9mQF0d0nRmyzqogJ+4AghhBBCSHoDGzTT2trK+14RfVf8b6r3ZwbQIzaobasqsqmarP8PHyGEEEJIP+7vn2otret9X4gyWNRnelr0b1hLeH9mAD1mUWtXxWWibi3gh5AQQgghpNkJ+lO1v/84Led9H4hypMl4LsbXi3F4qU3TSt6fGYAjm6Zl0h4gi7rY/YeREEIIIaRZmWtBZ1rUrt73fFC/F/+71Qa0kffnBVAQi9rZgk6zqDkF/GASQgghhNQzQXda1HHW1rO87+9QtvyAqNvj8T6LerH3ZwVQKLYHEEIIIYRMKH+slvnP0gre93Mon7W1Xg+K/z1iUa/2/qwAaoDtAYQQQgghi8xDFjXMMn+MV37h1r2xGfSYRb3V+3MCqCFraReLOpXTAwghhBBCqlxhUYfaoFbzvk9D/fSo+N+HvD8ngJqzQa1lQYdZ1FUF/PASQgghhPS6qN9si9qHo9QwGRa0d5fH6me9PyOABrEpWtyCdreg71E0kBBCCCENz43VWe1tred9D4ZmsKgfdG28BgUzLeb9GQE0lA1pHYs60qKuK+AHmhBCCCFk8hkpzvYja+u/LWop7/stNEeXi//F9KLO+zMC6JdVAVG75kI4rAoghBBCSB1zg0VNtZY29L63QjNZ0JSujN2gNpN/AH5HCY7UCrimgB9yQgghhJDRE/Rw9QIj7ctmbz+6v4322i6M48iyfwClVDh9jUX9sCqc4/0DTwghhBDyn1xqUR+2qNW975nQHyxqty6M42lM/gGUut/pkxZ0eQE/+IQQQgjpz9xrQTMsaAfveyP0H4s6qcPj+Tgm/wCKZ1EvqfYpRd1VwI0AIYQQQpqdtArxF9bWgTakFb3vg9C/8okSkx/TQY9Z1OHenwcAxsWO03LW1pst6qdsESCEEEJIh/N3izrCotb3vucBbLqe0aFx/Yi1dID35wGASbGW1q0KB7JFgBBCCCETTdCdVUG0qJ1YGo2SWEsv6MAYv9eiXu39WQCgo6ylHS1q0KLudr+RIIQQQkgdqvifbm39tw1rae/7GKBLDwD+bVHbeH8OAOgai1regva3oNlsESCEEELIk/J7i/qAnaCne9+zAIti07TSJO5n/2ZtPcv7MwBAb08RiPqoRf2xgBsOQgghhPgkHd13pLW0qfe9CTBeFvTzCYz5UyleCaCv2YCebVFHUy+AEEII6YtcY1GfT0uove9BgMlIx09a0KNjGvdBt6Rif9SyAIB5WNB21RmoUTcUcINCCCGEkM4kHZc2rZowMQFCg1hb+1rQPQsZ+7dVL7oGtKr33woAxbIpWtxa2qWq/Bt0ewE3LoQQQggZT0Z+vwetrZfbsJbwvrcAusWGtI5FHW5RP7Co31nU2Rb0ZYt6DYUsAWCc0hentbWXRX3Dgu5zv6EhhBBCyGi5y6JOsaC9mfgAAIBJsVlawVraz4LOsKiHCrjRIYQQQvo9t1nQDGtpD5umZbzvFQAAQHOPFdzbgmYtYu8VIYQQQjo/6U+/v3tb1FLe9wQAAKCP2Ewt+8TDgJHlh943RoQQQkizEnR9rs2zt03Rkt6//QAAAErLD6tliGk5YtSt7jdMhBBCSF0TdLUFHWttbU/1fgAAULRUddiidspHD/3L/UaKEEIIKT+XVseWDWpbJv0AAKC+Rwumm5l0UxN1RQE3WIQQQoh/gh60oNkWdbC1tZ737zUAAEDHWdQ2FnWUBf3Bgh5zvwEjhBBCepdbLWimBb0+nbDj/ZsMAADQMxa1urV0gEUNW9TdBdyYEUIIIZ3OVdWWuKhdqdwPAADwnxMFdregEy3o2gJu2AghhJCJ5AGLOtuiPmQtber9+woAAFA8G9BG1b7Ikf2Rcwq4oSOEEEIW9pY/WtQ+NqQVvX9DAQAAastO0NOrm6qgWRZ1VwE3eoQQQvo7D1QPqIMOs5ae5/07CQAA0Eg2rKWtpV0s6BiLusCi5hZwI0gIIaT5uSIfb7u7HaflvH8PAQAA+nd1QFp6Se0AQgghncutVZHaoIOsrWd5/94BAABgQbUD0s0aJwsQQgiZ6LL+QW1rU7S4928aAAAAxsimaMnqJi7dzEWdz3YBQgghTyToUQu60KKmVkf0zdSy3r9bAAAA6BCboTWspf0s6iQLutr95pMQQkjvEvSYBf3VoqZbW/9tM7WK9+8SAAAAesSi1n6ifkDUpe43p4QQQrpzPF9LB1hL63r/7gAAAKAQPBAghJBaZ27+7k7f4fukIrHevysAAACoifS2yIL2t6jBfPyT980tIYSQeffwjxwH+yUL2psl/QAAAOgYG9I6FvUmC2pb1N/db34JIaS/crcF/diijqqK9k3X07x/FwAAANAnbJpWqm5Co462oDMt6M4CbpAJIaQpuTEf6XqwRe1kUUt5f+8DAAAAFRvWEtbW5lWxqcfrCKSq0/430YQQUnrmPLF/f6Rg34be3+kAAADAuNig1rKWXmtBX7Cg8yzqgQJutAkhxDdBV1rUNy3oEGtpRztOy3l/XwMAAAAdlZawWksvsqgPWdC3qptgVgkQQpqcoJuqbVJRR1rQ7jao1by/iwEAAAAXNqQV8/7Wgy1oVl4GO7eIG3dCCBlf7rWo8y1qWrWUP22LMi3m/T0LAAAAlF5gkIcChJCSc9dTJvvDWsL7+xMAAACoPR4KEEIcc2Nexj+VN/sAAACAA5upVSxqZwt6vwUFC/p1dVa2/2SBEFLPPGJRf6lqlER93Fp6pUWt7v1dBwAAAGAUNqR1LGrXJ1YLBF1oQQ8WMLkghJT1Vn/2E0v4B7Ut1fgBAACABrApWtIGtJEF7W1RR1vUMNsICOmDBN2Z9+rH6qHgyMNB3uoDAAAAfVlboK3tra0DLerzFvVdC/qrRT3kPnEhhIw1cy3oaos624K+bEEHVduDBrSm93cMAAAAgDptJRiZTEzNRcCuYtUAIU4Jeri6BuctyJeW7k/X07y/LwAAAAA0UJpsVJOOlvarthOMFAz7Yz4WzH+SREi980BViC/qdIv6kkW916J2s7aeZVO0uPf1DwAAAAAVG9Cq1RFh864cSPUGRgoR3lPA5IqQEnJHdU2M1OKYmq+VXas6HUzyAQAAADSBRa1tUS+xqDdZ1BEWNWhRP8tbCx4pYGJGSCdys0VdYEGnVXvyU/G9ll5rA9o6PSTzvg4BAAAAwJUNawmLWt9a2tGi9snHGB5rQV+3qHMt6oq8PNp7ckf6Ow9Y0JUWdF4+ZvNz1Rv8tl5lg3ouR+kBAAAAQIekCVa1VDpqp+pBQdBh1VnmI8upz89F0h4tYKJI6pc7quMxg2bnY/NSjYuDquMzU92LVBjTtJj3NQAAAAAAmHc1waDWyvUIdraW3mhR77OooyzqeIv6pgX93IIusaB/5erq3pNP0vncm7eX/MaifmBBMyzq/yzoEAvavyqu19ILbLqewcQeAAAAAPqERa1sbW2WaxS8xqLeblEft6BjLGq6RZ1iQWdY0C8t6qI8sUzF3Fht0JuJ/D/zA5vU/t+3oJl5f/2RFvUBa+vNFrWnRb2w2krCUnwAAAAAQFeORkzLw9Me8KgXV2+W0/aEtt5lUYda1GdytfcTq6XlI0cnpi0LP62Wm49UhB95qBB0bX6wUL9TE4Iey8voU67LD0nSkvo/5GX1p+eaDqkNvmBBUyzqo9Uy+5FjJdODl12r5fbpYcwMrWFRS3n3LwAAAAAAXWfDWro6XjEtU0+1Dx5PW1tVE+V5M/L2e9cFZM9cWHHhCdp9lP99OtZxu3n+OxtXf0PaZpH+tllawbudAAAAAAAAAAAAAAAAAAAAAAAAAAAAAAAAAAAAAAAAAAAAAAAAAAAAAAAAAAAAAAAAAAAAAAAAAAAAAAAAAAAAAAAAAAAAAAAAAAAAAAAAAAAAAAAAAAAAAAAAAAAAAAAAAAAAAAAAAAAAAAAAAAAAAAAAAAAAAAAAAAAAAAAAAAAAAAAAAAAAAAAAAAAAAAAAAAAAAAAAAAAAAAAAAAAAAAAAAAAAAAAAAAAAAAAAAAAAAAAAAAAAAAAAAAAAAAAAAAAAAAAAAAAAAAAAAAAAAAAAAAAAAAAAAAAAAAAAAAAAAAAAAAAAAAAAAAAAAAAAAAAAAAAAAAAAAAAAAAAAAAAAAAAAAAAAAAAAAAAAAAAAAAAAAAAAAAAAAAAAAAAAAAAAAAAAAAAAAAAAAAAAAAAAAAAAAAAAAAAAAAAAAAAAAAAAAAAAAAAAAAAAAAAAAAAAAAAAAAAAAAAAAAAAAAAAAAAAAAAAAAAAAAAAAAAAAAAAAAAAAAAAAAAAAAAAAAAAAAAAAAAAAAAAAAAAAAAAAAAAAAAAAAAAAAAAAAAAAAAAAAAAAAAAAAAAAAAAAAAAAAAAAAAAAAAAAAAAAAAAAAAAAAAAAAAAAAAAAAAAAAAAAAAAAAAAAAAAAAAAAAAAAAAAAAAAAAAAAAAAAAAAAAAAAAAAAAAAAAAAAAAAAAAAAAAAAAAAAAAAAAAAAAAAAAAAAAAAAAAAAAAAAAAAAAAAAAAAAAAAAAAAAAAAAAD4//bgmAAAAABh0PqntoYHEAAAAAAAAAAAAAAAAAAAAAAAAAAAAAAAAAAAAAAAAAAAAAAAAAAAAAAAAAAAAAAAAAAAAAAAAAAAAAAAAAAAAAAAAAAAAAAAAAAAAAAAAAAAAAAAAAAAAAAAAAAAAAAAAAAAAAAAAAAAAAAAAAAAAAAAAAAAAAAAAAAAAAAAAAAAAAAAAAAAAAAAAAAAAAAAAAAAAAAAAAAAAAAAAAAAAAAAAAAAAAAAAAAAAAAAAAAAAAAAAAAAAAAAAAAAAAAAAAAAAAAAAAAAAAAAAAAAAAAAAAAAAAAAAAAAAAAAAAAAAAAAAAAAAAAAAAAAAAAAAAB0YW0/KnpnVMC5AAAAAElFTkSuQmCC;" vertex="1" parent="1">
          <mxGeometry x="50" y="416.15" width="48" height="48" as="geometry" />
        </mxCell>
        <mxCell id="mUxvejZHNIjnbuFFz3lB-16" style="edgeStyle=orthogonalEdgeStyle;rounded=0;orthogonalLoop=1;jettySize=auto;html=1;entryX=0;entryY=0.5;entryDx=0;entryDy=0;" edge="1" parent="1">
          <mxGeometry relative="1" as="geometry">
            <mxPoint x="28" y="520" as="sourcePoint" />
            <mxPoint x="48" y="326" as="targetPoint" />
            <Array as="points">
              <mxPoint x="28" y="326" />
            </Array>
          </mxGeometry>
        </mxCell>
        <mxCell id="mUxvejZHNIjnbuFFz3lB-14" value="&lt;span style=&quot;border-color: rgb(218, 220, 224);&quot;&gt;&lt;font face=&quot;Verdana&quot; style=&quot;border-color: rgb(218, 220, 224);&quot; color=&quot;#0000ff&quot;&gt;qbusiness-&lt;br&gt;webexperience-&lt;br&gt;chat-&lt;br&gt;logo-&lt;br&gt;visibility&lt;/font&gt;&lt;/span&gt;" style="text;html=1;strokeColor=none;fillColor=none;align=center;verticalAlign=middle;whiteSpace=wrap;rounded=0;fontSize=13;fontColor=#000000;container=0;" vertex="1" parent="1">
          <mxGeometry x="7" y="520" width="103" height="80" as="geometry" />
        </mxCell>
        <mxCell id="mUxvejZHNIjnbuFFz3lB-18" value="" style="rounded=1;whiteSpace=wrap;html=1;strokeWidth=1;dashed=1;fillColor=none;container=0;" vertex="1" parent="1">
          <mxGeometry x="49" y="300" width="50" height="50" as="geometry" />
        </mxCell>
        <mxCell id="mUxvejZHNIjnbuFFz3lB-19" value="" style="rounded=1;whiteSpace=wrap;html=1;strokeWidth=1;dashed=1;fillColor=none;container=0;" vertex="1" parent="1">
          <mxGeometry x="44" y="417" width="60" height="44.15" as="geometry" />
        </mxCell>
      </root>
    </mxGraphModel>
  </diagram>
</mxfile>
